<?xml version="1.0" encoding="utf-8"?>
<!-- Generator: Adobe Illustrator 27.5.0, SVG Export Plug-In . SVG Version: 6.00 Build 0)  -->
<svg version="1.1" xmlns="http://www.w3.org/2000/svg" xmlns:xlink="http://www.w3.org/1999/xlink" x="0px" y="0px"
	 viewBox="0 0 3710 3710" style="enable-background:new 0 0 3710 3710;" xml:space="preserve">
<g id="Background">
	<g>
		<g>
			<rect style="fill:#FFFFFF;" width="3710" height="3710"/>
		</g>
	</g>
</g>
<g id="Illustration">
	<g>
		<path style="fill:#F4F7FA;" d="M1885.565,407.201C1200.418,386.396,606.936,897.644,517.271,1568.465
			c-98.035,733.452,441.54,1393.383,1105.464,1499.081c825.811,131.471,1626.8-629.101,1554.879-1454.207
			C3123.43,991.693,2582.03,428.351,1885.565,407.201z"/>
		<g>
			<g>
				<g>
					<defs>
						<path id="SVGID_1_" d="M2005.223,3066.338c-29.013-64.435-63.328-167.982-33.434-276.65
							c52.151-189.581,241.026-181.371,361.334-401.568c97.033-177.598,25.351-276.62,149.559-410.487
							c20.791-22.407,129.726-144.261,241.739-117.972c63.12,14.813,99.207,70.019,105.981,80.382
							c102.386,156.633-1.219,471.85-196.575,655.262c-112.24,105.377-160.619,93.497-369.254,237.011
							C2141.976,2916.646,2056.82,3005.955,2005.223,3066.338z"/>
					</defs>
					
						<linearGradient id="SVGID_00000022560168687192394160000007583164438827177906_" gradientUnits="userSpaceOnUse" x1="3055.1504" y1="5309.0571" x2="2964.7256" y2="4910.1226">
						<stop  offset="0" style="stop-color:#FF9085"/>
						<stop  offset="1" style="stop-color:#FB6FBB"/>
					</linearGradient>
					
						<use xlink:href="#SVGID_1_"  style="overflow:visible;fill:url(#SVGID_00000022560168687192394160000007583164438827177906_);"/>
					<clipPath id="SVGID_00000162310330640202083030000012238381718647067522_">
						<use xlink:href="#SVGID_1_"  style="overflow:visible;"/>
					</clipPath>
					<g style="clip-path:url(#SVGID_00000162310330640202083030000012238381718647067522_);">
						<path style="fill:#FFFFFF;" d="M2003.983,3152.78c-9.194-170.119,25.762-295.335,103.894-372.176
							c38.266-37.634,73.061-51.206,109.896-65.576c39.514-15.412,80.373-31.351,127.037-79.699
							c45.344-46.978,56.372-83.575,70.334-129.908c12.583-41.758,28.241-93.729,74.205-169.617
							c40.286-66.512,73.219-101.373,102.274-132.129c31.42-33.26,56.238-59.53,78.663-113.683
							c36.646-88.484,40.969-190.643,12.852-303.638l3.448-0.858c28.303,113.749,23.925,216.654-13.017,305.855
							c-22.674,54.758-47.691,81.238-79.363,114.764c-28.934,30.627-61.726,65.34-101.816,131.53
							c-45.733,75.502-61.322,127.235-73.847,168.802c-14.1,46.793-25.239,83.753-71.175,131.349
							c-47.209,48.908-88.433,64.99-128.302,80.542c-36.487,14.232-70.951,27.677-108.7,64.801
							c-77.373,76.093-111.975,200.394-102.839,369.449L2003.983,3152.78z"/>
						<path style="fill:#FFFFFF;" d="M2578.385,2220.589l0.141-2.374c0.141-2.441,13.138-244.91-93.49-315.323l1.958-2.965
							c102.584,67.745,96.272,290.587,95.189,316.125c122.855-29.243,201.37-99.508,245.676-153.477
							c48.346-58.887,67.552-111.623,67.741-112.149l3.344,1.196c-0.189,0.531-19.55,53.747-68.248,113.097
							c-44.94,54.771-124.792,126.178-249.995,155.33L2578.385,2220.589z"/>
						<path style="fill:#FFFFFF;" d="M2506.714,2423.792c-36.218,0-58.668-3.527-59.044-3.589l-1.51-0.245l0.017-1.527
							c0.669-65.285-18.881-139.246-35.405-189.793c-17.913-54.807-36.211-94.636-36.394-95.031l3.227-1.489
							c0.183,0.398,18.568,40.414,36.542,95.417c16.475,50.401,35.946,123.998,35.594,189.381
							c10.19,1.419,71.03,8.782,151.055-4.414c80.604-13.295,197.733-50.779,297.979-153.849l2.544,2.475
							c-100.96,103.805-218.91,141.531-300.079,154.9C2564.817,2422.027,2532.321,2423.792,2506.714,2423.792z"/>
						<path style="fill:#FFFFFF;" d="M2428.596,2729.79c-25.797,0-48.546-1.424-67.765-3.421
							c-67.528-7.017-107.3-22.441-107.697-22.596l-1.741-0.686l0.776-1.703c59.764-131.312-21.963-300.474-22.794-302.167
							l3.185-1.569c0.838,1.701,82.565,170.895,23.628,303.461c17.868,6.374,169.988,56.263,384.982-5.749l0.986,3.413
							C2559.394,2722.644,2486.364,2729.79,2428.596,2729.79z"/>
					</g>
				</g>
			</g>
			<g>
				
					<linearGradient id="SVGID_00000117652397022483255570000002865032222469678261_" gradientUnits="userSpaceOnUse" x1="-2.0174" y1="1692.3645" x2="-1021.9518" y2="2530.1689" gradientTransform="matrix(0.9456 0.3251 -0.3251 0.9456 3271.104 1020.5929)">
					<stop  offset="0.0036" style="stop-color:#E38DDD"/>
					<stop  offset="1" style="stop-color:#9571F6"/>
				</linearGradient>
				<path style="fill:url(#SVGID_00000117652397022483255570000002865032222469678261_);" d="M1856.53,2884.144
					c38.774-27.867,102.238-68.199,187.601-98.461c151.833-53.826,221.413-22.071,285.689-86.26
					c66.534-66.443,23.438-131.886,103.096-206.084c6.698-6.238,92.228-83.847,169.604-54.948
					c54.13,20.218,75.206,81.706,85.096,110.557c38.381,111.972,16.064,282.587-103.392,366.743
					c-113.255,79.787-256.643,41.762-302.168,29.366c-79.865-21.746-98.792-52.875-179.984-72.56
					C2003.334,2848.558,1914.586,2866.292,1856.53,2884.144z"/>
			</g>
		</g>
		<g>
			<path style="fill:#D8DEE8;" d="M3091.223,715.717h-127.583c-10.361,0-18.762,9.054-18.762,19.416
				c0,10.361,8.401,19.416,18.762,19.416h75.765l-540.437,499.145l-340.359-311.815c-7.302-6.686-18.537-6.558-25.674,0.3
				l-651.629,626.087l-282.947-267.039c-7.393-6.977-19-6.798-26.176,0.41l-669.691,672.938c-7.311,7.344-7.281,19.224,0.064,26.533
				c3.661,3.644,8.447,5.464,13.234,5.464c4.817,0,9.632-1.843,13.298-5.528l656.803-659.986l282.652,266.759
				c7.272,6.867,18.66,6.818,25.877-0.115l651.82-626.272l340.104,311.571c7.19,6.589,17.844,6.569,25.012-0.053l560.319-517.891
				v80.766c0,10.361,9.054,18.762,19.416,18.762s19.416-8.401,19.416-18.762V735.741
				C3110.508,725.38,3101.584,715.717,3091.223,715.717z"/>
			
				<ellipse transform="matrix(0.2298 -0.9732 0.9732 0.2298 -369.9866 2181.1167)" style="fill:#C9CED6;" cx="1192.987" cy="1324.307" rx="72.448" ry="72.448"/>
			
				<ellipse transform="matrix(0.2298 -0.9732 0.9732 0.2298 -399.4252 2661.7576)" style="fill:#C9CED6;" cx="1481.925" cy="1583.226" rx="72.448" ry="72.448"/>
			
				<ellipse transform="matrix(0.7071 -0.7071 0.7071 0.7071 -57.329 1804.7499)" style="fill:#C9CED6;" cx="2149.861" cy="971.577" rx="72.448" ry="72.448"/>
			
				<ellipse transform="matrix(0.7071 -0.7071 0.7071 0.7071 -153.7609 2137.1155)" style="fill:#C9CED6;" cx="2502.846" cy="1254.164" rx="72.448" ry="72.448"/>
		</g>
		<g>
			<g>
				
					<linearGradient id="SVGID_00000034081556064390738700000007003657628311779499_" gradientUnits="userSpaceOnUse" x1="1346.327" y1="3042.8599" x2="2557.5581" y2="3042.8599">
					<stop  offset="0" style="stop-color:#FCB148"/>
					<stop  offset="0.0521" style="stop-color:#FDBA46"/>
					<stop  offset="0.1424" style="stop-color:#FFC244"/>
					<stop  offset="0.3183" style="stop-color:#FFC444"/>
					<stop  offset="0.4849" style="stop-color:#FDB946"/>
					<stop  offset="0.7754" style="stop-color:#F99C4D"/>
					<stop  offset="0.8658" style="stop-color:#F8924F"/>
					<stop  offset="1" style="stop-color:#F8924F"/>
				</linearGradient>
				<path style="fill:url(#SVGID_00000034081556064390738700000007003657628311779499_);" d="M1436.332,2950.321v116.762
					c0,37.73,235.686,68.315,526.421,68.315s526.421-30.586,526.421-68.315v-116.762H1436.332z"/>
				
					<linearGradient id="SVGID_00000168805733817692120360000003811099675039052195_" gradientUnits="userSpaceOnUse" x1="1957.509" y1="2906.4189" x2="2021.3638" y2="3440.9766">
					<stop  offset="0" style="stop-color:#FFDB44"/>
					<stop  offset="1" style="stop-color:#FEEF06"/>
				</linearGradient>
				<path style="fill:url(#SVGID_00000168805733817692120360000003811099675039052195_);" d="M2489.174,2950.32
					c0,37.73-235.686,68.316-526.421,68.316s-526.421-30.586-526.421-68.316c0-37.729,235.686-68.314,526.421-68.314
					S2489.174,2912.591,2489.174,2950.32z"/>
				
					<linearGradient id="SVGID_00000165221714377519093230000001109257333696679853_" gradientUnits="userSpaceOnUse" x1="1954.7323" y1="2882.5801" x2="1974.3431" y2="3046.7517">
					<stop  offset="0" style="stop-color:#FFDB44"/>
					<stop  offset="1" style="stop-color:#FEEF06"/>
				</linearGradient>
				<path style="fill:url(#SVGID_00000165221714377519093230000001109257333696679853_);" d="M1962.751,3023.347
					c-257.481,0-526.725-24.594-526.725-72.029c0-2.604,0.929-7.184,3.535-7.184s1.485,3.582,1.485,6.186
					c0,30.083,214.258,63.599,521.706,63.599c307.45,0,521.708-33.516,521.708-63.599c0-2.604,0.444-5.046,3.049-5.046
					s1.976,3.476,1.976,6.081C2489.484,2998.792,2220.233,3023.347,1962.751,3023.347z"/>
				<g>
					<path style="fill:#FCB048;" d="M1913.008,2954.128c5.166-3.575,10.662-7.099,16.545-10.582
						c5.827-3.477,13.419-6.62,22.615-9.427c9.248-2.808,20.815-5.091,34.701-6.863c13.885-1.771,31.249-2.705,51.979-2.806
						c20.345-0.099,39.426,0.546,57.296,1.939c17.815,1.388,33.539,3.471,47.117,6.238c13.522,2.769,24.565,6.193,33.077,10.262
						c8.456,4.081,13.495,8.75,15.121,14.014l59.273,0.6c4.301,0.028,8.107,0.376,11.364,1.052c3.311,0.676,4.915,1.529,4.919,2.563
						l0.024,4.881l-76.201-0.734c-2.673,5.978-9.482,11.445-20.431,16.403c-10.892,4.966-24.821,9.258-41.785,12.891l-27.752-3.858
						c-2.483-0.379-4.526-0.864-6.129-1.452c-1.601-0.582-2.376-1.215-2.379-1.908c-0.005-0.938,2.14-2.007,6.435-3.209
						c4.294-1.206,9.139-2.698,14.533-4.476c5.396-1.771,10.679-3.869,15.904-6.289c5.171-2.414,8.632-5.302,10.433-8.664
						l-179.862-1.782c-4.724,3.477-10.055,6.891-15.884,10.248c-5.883,3.356-13.643,6.38-23.333,9.063
						c-9.691,2.685-21.755,4.862-36.192,6.54c-14.494,1.672-32.628,2.561-54.572,2.669c-16.486,0.08-32.533-0.545-48.253-1.87
						c-15.721-1.332-29.679-3.32-41.877-5.97c-12.198-2.654-22.194-5.934-30.042-9.836c-7.793-3.91-12.172-8.396-13.078-13.471
						l-48.797-0.501c-4.301-0.027-8.107-0.363-11.529-1.013c-3.366-0.653-5.081-1.516-5.085-2.6l-0.024-4.88l66.717,0.635
						c2.953-5.142,8.996-9.625,18.24-13.438c9.244-3.818,20.53-7.215,33.859-10.187l22.345,3.069
						c6.787,0.953,10.156,2.067,10.162,3.35c0.002,0.692-1.371,1.547-4.178,2.572c-2.863,1.025-6.166,2.252-10.017,3.672
						c-3.798,1.427-7.539,3.094-11.113,5.014c-3.63,1.914-6.321,4.081-8.128,6.509L1913.008,2954.128z M1748.404,2960.779
						c1.341,3.201,4.33,5.956,8.863,8.274c4.532,2.325,10.166,4.229,16.954,5.724c6.789,1.497,14.404,2.591,22.843,3.288
						c8.494,0.698,17.373,1.029,26.636,0.983c10.806-0.053,20.233-0.52,28.277-1.397c7.991-0.881,15.042-2.072,21.154-3.582
						c6.058-1.51,11.397-3.257,15.91-5.252c4.511-1.997,8.525-4.158,12.152-6.493L1748.404,2960.779z M2139.959,2956.415
						c-1.338-3.243-4.607-6.086-9.69-8.528c-5.085-2.437-11.603-4.493-19.494-6.152c-7.894-1.665-17.106-2.901-27.642-3.71
						c-10.479-0.809-22.06-1.186-34.74-1.123c-11.247,0.054-21.004,0.56-29.104,1.509c-8.101,0.955-15.152,2.227-21.153,3.84
						c-5.948,1.606-11.066,3.478-15.19,5.617c-4.18,2.14-8.084,4.428-11.657,6.864L2139.959,2956.415z"/>
				</g>
				
					<linearGradient id="SVGID_00000082345219736257954040000011002329441861048493_" gradientUnits="userSpaceOnUse" x1="-303.9188" y1="1098.2985" x2="-284.3774" y2="1261.8881" gradientTransform="matrix(-1 0 0 -1 1669.249 4127.8389)">
					<stop  offset="0.0036" style="stop-color:#F36F56"/>
					<stop  offset="0.3059" style="stop-color:#F99C4C"/>
					<stop  offset="0.545" style="stop-color:#FDB946"/>
					<stop  offset="0.6817" style="stop-color:#FFC444"/>
					<stop  offset="0.8038" style="stop-color:#FFC244"/>
					<stop  offset="0.8667" style="stop-color:#FEBA46"/>
					<stop  offset="0.916" style="stop-color:#FCAD49"/>
					<stop  offset="0.958" style="stop-color:#F99A4D"/>
					<stop  offset="0.9955" style="stop-color:#F58152"/>
					<stop  offset="1" style="stop-color:#F57E53"/>
				</linearGradient>
				<path style="fill:url(#SVGID_00000082345219736257954040000011002329441861048493_);" d="M1962.825,2889.401
					c-234.721,0-479.12,20.653-518.211,60.637c1.53,1.41,2.951,2.915,4.273,4.499c32.95-27.761,234.754-55.711,513.939-55.711
					c286.351,0,491.391,29.407,516.227,57.852c1.221-1.561,2.526-3.054,3.937-4.461
					C2450.7,2910.818,2201.716,2889.401,1962.825,2889.401z"/>
			</g>
			<g>
				
					<linearGradient id="SVGID_00000130623123435634847540000000961620085797249421_" gradientUnits="userSpaceOnUse" x1="1199.9856" y1="2920.2144" x2="2411.2153" y2="2920.2144">
					<stop  offset="0" style="stop-color:#FCB148"/>
					<stop  offset="0.0521" style="stop-color:#FDBA46"/>
					<stop  offset="0.1424" style="stop-color:#FFC244"/>
					<stop  offset="0.3183" style="stop-color:#FFC444"/>
					<stop  offset="0.4849" style="stop-color:#FDB946"/>
					<stop  offset="0.7754" style="stop-color:#F99C4D"/>
					<stop  offset="0.8658" style="stop-color:#F8924F"/>
					<stop  offset="1" style="stop-color:#F8924F"/>
				</linearGradient>
				<path style="fill:url(#SVGID_00000130623123435634847540000000961620085797249421_);" d="M1289.991,2827.676v116.762
					c0,37.731,235.686,68.315,526.421,68.315c290.733,0,526.42-30.584,526.42-68.315v-116.762H1289.991z"/>
				
					<linearGradient id="SVGID_00000183949209894109228520000011257139492609151135_" gradientUnits="userSpaceOnUse" x1="1811.167" y1="2783.7747" x2="1875.0216" y2="3318.3318">
					<stop  offset="0" style="stop-color:#FFDB44"/>
					<stop  offset="1" style="stop-color:#FEEF06"/>
				</linearGradient>
				<path style="fill:url(#SVGID_00000183949209894109228520000011257139492609151135_);" d="M2342.831,2827.676
					c0,37.73-235.686,68.315-526.42,68.315c-290.734,0-526.421-30.586-526.421-68.315c0-37.729,235.686-68.314,526.421-68.314
					C2107.145,2759.361,2342.831,2789.947,2342.831,2827.676z"/>
				
					<linearGradient id="SVGID_00000020363540553480650180000008440853984031088825_" gradientUnits="userSpaceOnUse" x1="1808.3906" y1="2759.9358" x2="1828.0013" y2="2924.1064">
					<stop  offset="0" style="stop-color:#FFDB44"/>
					<stop  offset="1" style="stop-color:#FEEF06"/>
				</linearGradient>
				<path style="fill:url(#SVGID_00000020363540553480650180000008440853984031088825_);" d="M1816.409,2900.701
					c-257.481,0-526.725-24.593-526.725-72.028c0-2.605,0.929-7.184,3.533-7.184c2.606,0,1.485,3.581,1.485,6.185
					c0,30.084,214.258,63.6,521.707,63.6s521.707-33.516,521.707-63.6c0-2.604,0.445-5.045,3.049-5.045
					c2.606,0,1.977,3.476,1.977,6.081C2343.143,2876.146,2073.892,2900.701,1816.409,2900.701z"/>
				<g>
					<path style="fill:#FCB048;" d="M1766.667,2831.485c5.165-3.576,10.662-7.101,16.544-10.583
						c5.827-3.478,13.421-6.62,22.615-9.428c9.249-2.807,20.817-5.091,34.702-6.862c13.885-1.771,31.248-2.705,51.978-2.807
						c20.346-0.099,39.426,0.548,57.296,1.939c17.817,1.388,33.54,3.471,47.117,6.239c13.523,2.768,24.566,6.193,33.077,10.26
						c8.456,4.082,13.497,8.75,15.121,14.015l59.273,0.6c4.301,0.027,8.108,0.375,11.364,1.051c3.312,0.676,4.915,1.529,4.919,2.564
						l0.024,4.88l-76.201-0.733c-2.672,5.978-9.482,11.445-20.431,16.404c-10.892,4.964-24.82,9.256-41.785,12.89l-27.752-3.86
						c-2.483-0.379-4.526-0.861-6.127-1.45c-1.602-0.582-2.377-1.216-2.381-1.908c-0.005-0.94,2.142-2.008,6.435-3.208
						c4.296-1.207,9.14-2.7,14.534-4.477c5.394-1.772,10.678-3.868,15.903-6.289c5.172-2.415,8.632-5.302,10.434-8.664
						l-179.861-1.783c-4.726,3.477-10.056,6.892-15.885,10.249c-5.883,3.356-13.641,6.379-23.332,9.064
						c-9.691,2.683-21.756,4.861-36.193,6.538c-14.492,1.672-32.627,2.56-54.571,2.669c-16.485,0.081-32.534-0.544-48.254-1.87
						c-15.719-1.33-29.678-3.32-41.877-5.969c-12.197-2.654-22.194-5.934-30.041-9.837c-7.793-3.909-12.171-8.395-13.078-13.47
						l-48.799-0.501c-4.3-0.027-8.107-0.363-11.529-1.015c-3.366-0.65-5.08-1.516-5.085-2.599l-0.024-4.88l66.719,0.635
						c2.951-5.142,8.995-9.625,18.24-13.438c9.244-3.82,20.53-7.215,33.858-10.186l22.345,3.068
						c6.786,0.953,10.154,2.068,10.161,3.349c0.004,0.693-1.371,1.547-4.178,2.573c-2.862,1.024-6.163,2.25-10.017,3.672
						c-3.797,1.427-7.537,3.094-11.113,5.014c-3.629,1.914-6.32,4.08-8.128,6.509L1766.667,2831.485z M1602.063,2838.135
						c1.34,3.2,4.33,5.955,8.862,8.273c4.533,2.324,10.166,4.229,16.955,5.724c6.789,1.495,14.404,2.589,22.843,3.289
						c8.494,0.698,17.373,1.027,26.635,0.982c10.807-0.054,20.233-0.521,28.277-1.397c7.99-0.881,15.043-2.072,21.156-3.581
						c6.057-1.51,11.396-3.259,15.907-5.255c4.511-1.997,8.526-4.158,12.155-6.493L1602.063,2838.135z M1993.618,2833.771
						c-1.339-3.244-4.607-6.086-9.691-8.528c-5.085-2.437-11.6-4.494-19.494-6.153c-7.891-1.665-17.106-2.901-27.64-3.709
						c-10.481-0.811-22.061-1.186-34.742-1.124c-11.248,0.055-21.004,0.56-29.105,1.509c-8.1,0.955-15.151,2.229-21.153,3.841
						c-5.947,1.605-11.065,3.478-15.19,5.618c-4.18,2.139-8.084,4.426-11.654,6.863L1993.618,2833.771z"/>
				</g>
				
					<linearGradient id="SVGID_00000060736165692501336090000002304935687946223239_" gradientUnits="userSpaceOnUse" x1="-157.5761" y1="1220.9437" x2="-138.0348" y2="1384.533" gradientTransform="matrix(-1 0 0 -1 1669.249 4127.8389)">
					<stop  offset="0.0036" style="stop-color:#F36F56"/>
					<stop  offset="0.3059" style="stop-color:#F99C4C"/>
					<stop  offset="0.545" style="stop-color:#FDB946"/>
					<stop  offset="0.6817" style="stop-color:#FFC444"/>
					<stop  offset="0.8038" style="stop-color:#FFC244"/>
					<stop  offset="0.8667" style="stop-color:#FEBA46"/>
					<stop  offset="0.916" style="stop-color:#FCAD49"/>
					<stop  offset="0.958" style="stop-color:#F99A4D"/>
					<stop  offset="0.9955" style="stop-color:#F58152"/>
					<stop  offset="1" style="stop-color:#F57E53"/>
				</linearGradient>
				<path style="fill:url(#SVGID_00000060736165692501336090000002304935687946223239_);" d="M1816.482,2766.756
					c-234.721,0-479.119,20.654-518.211,60.637c1.53,1.41,2.951,2.916,4.272,4.5c32.951-27.762,234.755-55.711,513.939-55.711
					c286.351,0,491.391,29.406,516.228,57.851c1.22-1.56,2.525-3.054,3.936-4.46
					C2304.358,2788.174,2055.373,2766.756,1816.482,2766.756z"/>
			</g>
			<g>
				
					<linearGradient id="SVGID_00000148650286499604290610000015041646743578265249_" gradientUnits="userSpaceOnUse" x1="1326.2579" y1="2797.9287" x2="2537.489" y2="2797.9287">
					<stop  offset="0" style="stop-color:#FCB148"/>
					<stop  offset="0.0521" style="stop-color:#FDBA46"/>
					<stop  offset="0.1424" style="stop-color:#FFC244"/>
					<stop  offset="0.3183" style="stop-color:#FFC444"/>
					<stop  offset="0.4849" style="stop-color:#FDB946"/>
					<stop  offset="0.7754" style="stop-color:#F99C4D"/>
					<stop  offset="0.8658" style="stop-color:#F8924F"/>
					<stop  offset="1" style="stop-color:#F8924F"/>
				</linearGradient>
				<path style="fill:url(#SVGID_00000148650286499604290610000015041646743578265249_);" d="M1416.263,2705.39v116.762
					c0,37.731,235.687,68.315,526.422,68.315c290.733,0,526.42-30.584,526.42-68.315V2705.39H1416.263z"/>
				
					<linearGradient id="SVGID_00000004543454308912299420000013091600385020035712_" gradientUnits="userSpaceOnUse" x1="1937.4399" y1="2661.489" x2="2001.2947" y2="3196.0464">
					<stop  offset="0" style="stop-color:#FFDB44"/>
					<stop  offset="1" style="stop-color:#FEEF06"/>
				</linearGradient>
				<path style="fill:url(#SVGID_00000004543454308912299420000013091600385020035712_);" d="M2469.105,2705.39
					c0,37.73-235.686,68.315-526.42,68.315c-290.734,0-526.422-30.585-526.422-68.315c0-37.729,235.687-68.314,526.422-68.314
					C2233.418,2637.075,2469.105,2667.661,2469.105,2705.39z"/>
				
					<linearGradient id="SVGID_00000094581924669780174440000017150385173212948399_" gradientUnits="userSpaceOnUse" x1="1934.6641" y1="2637.6499" x2="1954.2748" y2="2801.8208">
					<stop  offset="0" style="stop-color:#FFDB44"/>
					<stop  offset="1" style="stop-color:#FEEF06"/>
				</linearGradient>
				<path style="fill:url(#SVGID_00000094581924669780174440000017150385173212948399_);" d="M1942.683,2778.416
					c-257.481,0-526.725-24.592-526.725-72.028c0-2.605,0.929-7.184,3.534-7.184c2.605,0,1.485,3.581,1.485,6.185
					c0,30.084,214.258,63.6,521.707,63.6s521.707-33.516,521.707-63.6c0-2.604,0.445-5.045,3.049-5.045
					c2.605,0,1.977,3.476,1.977,6.082C2469.416,2753.861,2200.165,2778.416,1942.683,2778.416z"/>
				<g>
					<path style="fill:#FCB048;" d="M1892.94,2709.198c5.165-3.575,10.661-7.099,16.544-10.582
						c5.828-3.478,13.419-6.62,22.615-9.428c9.249-2.807,20.816-5.091,34.702-6.862c13.885-1.771,31.247-2.705,51.978-2.807
						c20.346-0.099,39.426,0.548,57.296,1.94c17.815,1.387,33.54,3.471,47.117,6.238c13.523,2.768,24.566,6.193,33.078,10.26
						c8.455,4.082,13.496,8.75,15.12,14.015l59.273,0.599c4.302,0.027,8.107,0.376,11.364,1.052
						c3.312,0.676,4.915,1.529,4.919,2.564l0.024,4.88l-76.201-0.733c-2.672,5.978-9.482,11.444-20.431,16.404
						c-10.892,4.964-24.82,9.256-41.785,12.89l-27.753-3.86c-2.482-0.378-4.525-0.861-6.126-1.45
						c-1.603-0.582-2.377-1.216-2.381-1.908c-0.005-0.94,2.141-2.008,6.435-3.208c4.295-1.207,9.139-2.7,14.534-4.477
						c5.394-1.772,10.678-3.868,15.903-6.289c5.172-2.415,8.632-5.302,10.433-8.664l-179.862-1.783
						c-4.724,3.477-10.055,6.892-15.884,10.249c-5.882,3.356-13.642,6.379-23.332,9.064c-9.691,2.683-21.756,4.86-36.193,6.538
						c-14.493,1.673-32.628,2.561-54.571,2.669c-16.486,0.081-32.534-0.544-48.254-1.87c-15.719-1.331-29.679-3.32-41.877-5.969
						c-12.197-2.654-22.194-5.934-30.041-9.837c-7.793-3.909-12.172-8.395-13.079-13.47l-48.797-0.501
						c-4.301-0.027-8.107-0.363-11.529-1.015c-3.366-0.65-5.081-1.515-5.085-2.599l-0.024-4.88l66.719,0.635
						c2.951-5.142,8.995-9.625,18.24-13.438c9.243-3.819,20.53-7.215,33.857-10.186l22.346,3.068
						c6.786,0.953,10.154,2.068,10.161,3.349c0.002,0.693-1.371,1.547-4.178,2.573c-2.862,1.025-6.164,2.25-10.017,3.672
						c-3.798,1.427-7.538,3.094-11.113,5.014c-3.629,1.914-6.32,4.081-8.128,6.509L1892.94,2709.198z M1728.336,2715.85
						c1.34,3.2,4.33,5.955,8.863,8.273c4.531,2.324,10.165,4.229,16.954,5.724c6.789,1.495,14.404,2.589,22.842,3.289
						c8.495,0.698,17.374,1.027,26.636,0.982c10.806-0.054,20.233-0.521,28.277-1.397c7.991-0.881,15.042-2.072,21.155-3.581
						c6.058-1.51,11.397-3.259,15.908-5.255c4.511-1.997,8.525-4.158,12.152-6.493L1728.336,2715.85z M2119.89,2711.485
						c-1.338-3.244-4.606-6.086-9.69-8.528c-5.085-2.437-11.601-4.494-19.494-6.152c-7.893-1.665-17.106-2.902-27.641-3.71
						c-10.481-0.811-22.061-1.187-34.74-1.124c-11.249,0.055-21.005,0.562-29.105,1.509c-8.1,0.955-15.151,2.228-21.153,3.841
						c-5.947,1.605-11.065,3.478-15.19,5.618c-4.18,2.139-8.084,4.426-11.655,6.863L2119.89,2711.485z"/>
				</g>
				
					<linearGradient id="SVGID_00000074421002706616323390000012402306418474369710_" gradientUnits="userSpaceOnUse" x1="-283.8496" y1="1343.2294" x2="-264.3083" y2="1506.8187" gradientTransform="matrix(-1 0 0 -1 1669.249 4127.8389)">
					<stop  offset="0.0036" style="stop-color:#F36F56"/>
					<stop  offset="0.3059" style="stop-color:#F99C4C"/>
					<stop  offset="0.545" style="stop-color:#FDB946"/>
					<stop  offset="0.6817" style="stop-color:#FFC444"/>
					<stop  offset="0.8038" style="stop-color:#FFC244"/>
					<stop  offset="0.8667" style="stop-color:#FEBA46"/>
					<stop  offset="0.916" style="stop-color:#FCAD49"/>
					<stop  offset="0.958" style="stop-color:#F99A4D"/>
					<stop  offset="0.9955" style="stop-color:#F58152"/>
					<stop  offset="1" style="stop-color:#F57E53"/>
				</linearGradient>
				<path style="fill:url(#SVGID_00000074421002706616323390000012402306418474369710_);" d="M1942.755,2644.47
					c-234.721,0-479.119,20.654-518.211,60.637c1.53,1.41,2.951,2.916,4.272,4.5c32.95-27.762,234.755-55.711,513.939-55.711
					c286.351,0,491.391,29.406,516.228,57.851c1.22-1.56,2.523-3.054,3.936-4.46
					C2430.631,2665.888,2181.647,2644.47,1942.755,2644.47z"/>
			</g>
			<g>
				
					<linearGradient id="SVGID_00000088841736268862724640000006848537854661482397_" gradientUnits="userSpaceOnUse" x1="1402.8856" y1="2675.2849" x2="2614.1152" y2="2675.2849">
					<stop  offset="0" style="stop-color:#FCB148"/>
					<stop  offset="0.0521" style="stop-color:#FDBA46"/>
					<stop  offset="0.1424" style="stop-color:#FFC244"/>
					<stop  offset="0.3183" style="stop-color:#FFC444"/>
					<stop  offset="0.4849" style="stop-color:#FDB946"/>
					<stop  offset="0.7754" style="stop-color:#F99C4D"/>
					<stop  offset="0.8658" style="stop-color:#F8924F"/>
					<stop  offset="1" style="stop-color:#F8924F"/>
				</linearGradient>
				<path style="fill:url(#SVGID_00000088841736268862724640000006848537854661482397_);" d="M1492.891,2582.747v116.761
					c0,37.731,235.685,68.315,526.42,68.315c290.733,0,526.421-30.584,526.421-68.315v-116.761H1492.891z"/>
				
					<linearGradient id="SVGID_00000150786225236157469390000007785957141718692771_" gradientUnits="userSpaceOnUse" x1="2014.0669" y1="2538.8442" x2="2077.9216" y2="3073.4019">
					<stop  offset="0" style="stop-color:#FFDB44"/>
					<stop  offset="1" style="stop-color:#FEEF06"/>
				</linearGradient>
				
					<ellipse style="fill:url(#SVGID_00000150786225236157469390000007785957141718692771_);" cx="2019.311" cy="2582.746" rx="526.42" ry="68.315"/>
				
					<linearGradient id="SVGID_00000014593702254178960910000005658045603931004324_" gradientUnits="userSpaceOnUse" x1="2011.2896" y1="2515.0046" x2="2030.9004" y2="2679.1763">
					<stop  offset="0" style="stop-color:#FFDB44"/>
					<stop  offset="1" style="stop-color:#FEEF06"/>
				</linearGradient>
				<path style="fill:url(#SVGID_00000014593702254178960910000005658045603931004324_);" d="M2019.308,2655.771
					c-257.481,0-526.725-24.593-526.725-72.028c0-2.605,0.929-7.185,3.535-7.185c2.606,0,1.485,3.582,1.485,6.188
					c0,30.082,214.258,63.598,521.706,63.598c307.449,0,521.708-33.516,521.708-63.598c0-2.605,0.444-5.047,3.049-5.047
					s1.976,3.476,1.976,6.081C2546.042,2631.217,2276.791,2655.771,2019.308,2655.771z"/>
				<g>
					<path style="fill:#FCB048;" d="M1969.565,2586.553c5.165-3.576,10.662-7.101,16.544-10.583
						c5.828-3.476,13.422-6.62,22.615-9.427c9.25-2.809,20.817-5.091,34.703-6.862s31.25-2.705,51.979-2.807
						c20.344-0.099,39.426,0.546,57.296,1.939c17.816,1.388,33.539,3.471,47.116,6.238c13.522,2.769,24.565,6.193,33.077,10.262
						c8.456,4.081,13.496,8.75,15.121,14.014l59.273,0.6c4.301,0.029,8.108,0.376,11.364,1.052c3.311,0.676,4.915,1.529,4.919,2.563
						l0.024,4.881l-76.202-0.733c-2.672,5.978-9.482,11.446-20.43,16.404c-10.892,4.963-24.821,9.256-41.784,12.891l-27.752-3.861
						c-2.483-0.379-4.526-0.862-6.129-1.45c-1.601-0.582-2.376-1.216-2.379-1.908c-0.005-0.938,2.141-2.008,6.435-3.208
						c4.294-1.208,9.14-2.7,14.533-4.478c5.396-1.771,10.678-3.867,15.904-6.289c5.171-2.414,8.631-5.302,10.433-8.663
						l-179.861-1.783c-4.726,3.477-10.056,6.892-15.885,10.248c-5.883,3.358-13.642,6.38-23.333,9.064
						c-9.691,2.684-21.755,4.861-36.192,6.539c-14.493,1.672-32.627,2.562-54.572,2.669c-16.485,0.081-32.533-0.545-48.253-1.87
						c-15.72-1.332-29.678-3.32-41.878-5.969c-12.197-2.655-22.193-5.934-30.041-9.837c-7.793-3.91-12.171-8.395-13.078-13.471
						l-48.799-0.5c-4.299-0.028-8.106-0.363-11.527-1.014c-3.366-0.651-5.079-1.516-5.085-2.6l-0.023-4.88l66.716,0.635
						c2.953-5.142,8.996-9.625,18.24-13.438c9.245-3.818,20.53-7.213,33.86-10.185l22.344,3.068
						c6.787,0.953,10.156,2.069,10.163,3.35c0.003,0.692-1.372,1.548-4.178,2.572c-2.861,1.025-6.164,2.251-10.017,3.672
						c-3.798,1.427-7.539,3.095-11.114,5.014c-3.629,1.914-6.32,4.081-8.127,6.509L1969.565,2586.553z M1804.961,2593.204
						c1.34,3.2,4.33,5.955,8.863,8.273c4.533,2.325,10.166,4.229,16.954,5.725c6.789,1.495,14.404,2.589,22.844,3.288
						c8.493,0.698,17.371,1.028,26.635,0.983c10.807-0.053,20.232-0.521,28.277-1.397c7.99-0.882,15.043-2.072,21.155-3.582
						c6.057-1.51,11.397-3.258,15.909-5.253c4.511-1.997,8.525-4.158,12.153-6.493L1804.961,2593.204z M2196.516,2588.841
						c-1.34-3.243-4.607-6.086-9.691-8.529c-5.084-2.436-11.6-4.493-19.493-6.152c-7.893-1.664-17.106-2.901-27.641-3.709
						c-10.48-0.809-22.06-1.187-34.742-1.124c-11.247,0.055-21.003,0.56-29.104,1.509c-8.101,0.955-15.152,2.229-21.153,3.84
						c-5.948,1.606-11.066,3.478-15.19,5.618c-4.18,2.139-8.084,4.427-11.656,6.864L2196.516,2588.841z"/>
				</g>
				
					<linearGradient id="SVGID_00000094578337761224422560000008083374726719444630_" gradientUnits="userSpaceOnUse" x1="-360.4754" y1="1465.8738" x2="-340.9341" y2="1629.463" gradientTransform="matrix(-1 0 0 -1 1669.249 4127.8389)">
					<stop  offset="0.0036" style="stop-color:#F36F56"/>
					<stop  offset="0.3059" style="stop-color:#F99C4C"/>
					<stop  offset="0.545" style="stop-color:#FDB946"/>
					<stop  offset="0.6817" style="stop-color:#FFC444"/>
					<stop  offset="0.8038" style="stop-color:#FFC244"/>
					<stop  offset="0.8667" style="stop-color:#FEBA46"/>
					<stop  offset="0.916" style="stop-color:#FCAD49"/>
					<stop  offset="0.958" style="stop-color:#F99A4D"/>
					<stop  offset="0.9955" style="stop-color:#F58152"/>
					<stop  offset="1" style="stop-color:#F57E53"/>
				</linearGradient>
				<path style="fill:url(#SVGID_00000094578337761224422560000008083374726719444630_);" d="M2019.382,2521.826
					c-234.723,0-479.12,20.654-518.212,60.637c1.531,1.41,2.952,2.915,4.274,4.5c32.95-27.761,234.754-55.712,513.939-55.712
					c286.352,0,491.39,29.407,516.227,57.852c1.221-1.56,2.526-3.054,3.937-4.459
					C2507.258,2543.242,2258.273,2521.826,2019.382,2521.826z"/>
			</g>
			<g>
				
					<linearGradient id="SVGID_00000157278821856143019990000011302615357546011303_" gradientUnits="userSpaceOnUse" x1="1346.327" y1="2542.9646" x2="2557.5581" y2="2542.9646">
					<stop  offset="0" style="stop-color:#FCB148"/>
					<stop  offset="0.0521" style="stop-color:#FDBA46"/>
					<stop  offset="0.1424" style="stop-color:#FFC244"/>
					<stop  offset="0.3183" style="stop-color:#FFC444"/>
					<stop  offset="0.4849" style="stop-color:#FDB946"/>
					<stop  offset="0.7754" style="stop-color:#F99C4D"/>
					<stop  offset="0.8658" style="stop-color:#F8924F"/>
					<stop  offset="1" style="stop-color:#F8924F"/>
				</linearGradient>
				<path style="fill:url(#SVGID_00000157278821856143019990000011302615357546011303_);" d="M1436.332,2450.427v116.762
					c0,37.73,235.686,68.314,526.421,68.314s526.421-30.584,526.421-68.314v-116.762H1436.332z"/>
				
					<linearGradient id="SVGID_00000115500892477703995670000016209375940242598017_" gradientUnits="userSpaceOnUse" x1="1957.5089" y1="2406.5247" x2="2021.3636" y2="2941.082">
					<stop  offset="0" style="stop-color:#FFDB44"/>
					<stop  offset="1" style="stop-color:#FEEF06"/>
				</linearGradient>
				<path style="fill:url(#SVGID_00000115500892477703995670000016209375940242598017_);" d="M2489.174,2450.427
					c0,37.729-235.686,68.314-526.421,68.314s-526.421-30.585-526.421-68.314c0-37.73,235.686-68.316,526.421-68.316
					S2489.174,2412.697,2489.174,2450.427z"/>
				
					<linearGradient id="SVGID_00000042735566765275865190000008393928757406446768_" gradientUnits="userSpaceOnUse" x1="1954.7322" y1="2382.6843" x2="1974.343" y2="2546.8562">
					<stop  offset="0" style="stop-color:#FFDB44"/>
					<stop  offset="1" style="stop-color:#FEEF06"/>
				</linearGradient>
				<path style="fill:url(#SVGID_00000042735566765275865190000008393928757406446768_);" d="M1962.751,2523.451
					c-257.481,0-526.725-24.593-526.725-72.028c0-2.605,0.929-7.185,3.535-7.185s1.485,3.582,1.485,6.188
					c0,30.082,214.258,63.599,521.706,63.599c307.45,0,521.708-33.517,521.708-63.599c0-2.606,0.444-5.046,3.049-5.046
					s1.976,3.476,1.976,6.081C2489.484,2498.896,2220.233,2523.451,1962.751,2523.451z"/>
				<g>
					<path style="fill:#FCB048;" d="M1913.008,2454.233c5.166-3.576,10.662-7.099,16.545-10.582
						c5.827-3.477,13.419-6.62,22.615-9.428c9.248-2.807,20.815-5.09,34.701-6.862c13.885-1.771,31.249-2.705,51.979-2.807
						c20.345-0.099,39.426,0.546,57.296,1.94c17.815,1.387,33.539,3.47,47.117,6.238c13.522,2.768,24.565,6.192,33.077,10.262
						c8.456,4.08,13.495,8.75,15.121,14.013l59.273,0.601c4.301,0.028,8.107,0.375,11.364,1.051
						c3.311,0.677,4.915,1.529,4.919,2.564l0.024,4.88l-76.201-0.733c-2.673,5.978-9.482,11.446-20.431,16.404
						c-10.892,4.964-24.821,9.258-41.785,12.891l-27.752-3.861c-2.483-0.379-4.526-0.863-6.129-1.45
						c-1.601-0.581-2.376-1.216-2.379-1.908c-0.005-0.938,2.14-2.008,6.435-3.208c4.294-1.208,9.139-2.699,14.533-4.478
						c5.396-1.771,10.679-3.867,15.904-6.288c5.171-2.415,8.632-5.303,10.433-8.664l-179.862-1.783
						c-4.724,3.477-10.055,6.892-15.884,10.249c-5.883,3.357-13.643,6.38-23.333,9.064c-9.691,2.683-21.755,4.859-36.192,6.538
						c-14.494,1.672-32.628,2.562-54.572,2.669c-16.486,0.082-32.533-0.545-48.253-1.87c-15.721-1.332-29.679-3.32-41.877-5.968
						c-12.198-2.655-22.194-5.934-30.042-9.837c-7.793-3.909-12.172-8.395-13.078-13.47l-48.797-0.5
						c-4.301-0.029-8.107-0.364-11.529-1.016c-3.366-0.651-5.081-1.516-5.085-2.598l-0.024-4.88l66.717,0.635
						c2.953-5.143,8.996-9.626,18.24-13.439c9.244-3.818,20.53-7.214,33.859-10.186l22.345,3.068
						c6.787,0.955,10.156,2.07,10.162,3.351c0.002,0.692-1.371,1.547-4.178,2.571c-2.863,1.025-6.166,2.251-10.017,3.672
						c-3.798,1.427-7.539,3.095-11.113,5.015c-3.63,1.913-6.321,4.08-8.128,6.509L1913.008,2454.233z M1748.404,2460.885
						c1.341,3.2,4.33,5.953,8.863,8.273c4.532,2.325,10.166,4.23,16.954,5.724c6.789,1.495,14.404,2.589,22.843,3.289
						c8.494,0.697,17.373,1.027,26.636,0.982c10.806-0.053,20.233-0.521,28.277-1.396c7.991-0.882,15.042-2.072,21.154-3.583
						c6.058-1.51,11.397-3.257,15.91-5.254c4.511-1.996,8.525-4.158,12.152-6.493L1748.404,2460.885z M2139.959,2456.521
						c-1.338-3.243-4.607-6.086-9.69-8.529c-5.085-2.436-11.603-4.493-19.494-6.152c-7.894-1.664-17.106-2.901-27.642-3.709
						c-10.479-0.809-22.06-1.187-34.74-1.124c-11.247,0.055-21.004,0.56-29.104,1.509c-8.101,0.955-15.152,2.229-21.153,3.84
						c-5.948,1.607-11.066,3.479-15.19,5.618c-4.18,2.139-8.084,4.427-11.657,6.864L2139.959,2456.521z"/>
				</g>
				
					<linearGradient id="SVGID_00000110462656142901797280000000071061524496395965_" gradientUnits="userSpaceOnUse" x1="-303.9186" y1="1598.1942" x2="-284.3774" y2="1761.7828" gradientTransform="matrix(-1 0 0 -1 1669.249 4127.8389)">
					<stop  offset="0.0036" style="stop-color:#F36F56"/>
					<stop  offset="0.3059" style="stop-color:#F99C4C"/>
					<stop  offset="0.545" style="stop-color:#FDB946"/>
					<stop  offset="0.6817" style="stop-color:#FFC444"/>
					<stop  offset="0.8038" style="stop-color:#FFC244"/>
					<stop  offset="0.8667" style="stop-color:#FEBA46"/>
					<stop  offset="0.916" style="stop-color:#FCAD49"/>
					<stop  offset="0.958" style="stop-color:#F99A4D"/>
					<stop  offset="0.9955" style="stop-color:#F58152"/>
					<stop  offset="1" style="stop-color:#F57E53"/>
				</linearGradient>
				<path style="fill:url(#SVGID_00000110462656142901797280000000071061524496395965_);" d="M1962.825,2389.505
					c-234.721,0-479.12,20.655-518.211,60.637c1.53,1.411,2.951,2.917,4.273,4.5c32.95-27.761,234.754-55.711,513.939-55.711
					c286.351,0,491.391,29.406,516.227,57.851c1.221-1.56,2.526-3.054,3.937-4.459
					C2450.7,2410.923,2201.716,2389.505,1962.825,2389.505z"/>
			</g>
			<g>
				
					<linearGradient id="SVGID_00000083787305407623498980000014650251838901441922_" gradientUnits="userSpaceOnUse" x1="1199.9856" y1="2420.3193" x2="2411.2153" y2="2420.3193">
					<stop  offset="0" style="stop-color:#FCB148"/>
					<stop  offset="0.0521" style="stop-color:#FDBA46"/>
					<stop  offset="0.1424" style="stop-color:#FFC244"/>
					<stop  offset="0.3183" style="stop-color:#FFC444"/>
					<stop  offset="0.4849" style="stop-color:#FDB946"/>
					<stop  offset="0.7754" style="stop-color:#F99C4D"/>
					<stop  offset="0.8658" style="stop-color:#F8924F"/>
					<stop  offset="1" style="stop-color:#F8924F"/>
				</linearGradient>
				<path style="fill:url(#SVGID_00000083787305407623498980000014650251838901441922_);" d="M1289.991,2327.781v116.763
					c0,37.729,235.686,68.313,526.421,68.313c290.733,0,526.42-30.584,526.42-68.313v-116.763H1289.991z"/>
				
					<linearGradient id="SVGID_00000084494502714142581100000007263407746749276847_" gradientUnits="userSpaceOnUse" x1="1811.1669" y1="2283.8794" x2="1875.0217" y2="2818.4385">
					<stop  offset="0" style="stop-color:#FFDB44"/>
					<stop  offset="1" style="stop-color:#FEEF06"/>
				</linearGradient>
				
					<ellipse style="fill:url(#SVGID_00000084494502714142581100000007263407746749276847_);" cx="1816.411" cy="2327.781" rx="526.421" ry="68.315"/>
				
					<linearGradient id="SVGID_00000147192493901362030720000006006463570501765537_" gradientUnits="userSpaceOnUse" x1="1808.3906" y1="2260.04" x2="1828.0015" y2="2424.2119">
					<stop  offset="0" style="stop-color:#FFDB44"/>
					<stop  offset="1" style="stop-color:#FEEF06"/>
				</linearGradient>
				<path style="fill:url(#SVGID_00000147192493901362030720000006006463570501765537_);" d="M1816.409,2400.807
					c-257.481,0-526.725-24.593-526.725-72.029c0-2.606,0.929-7.184,3.533-7.184c2.606,0,1.485,3.581,1.485,6.186
					c0,30.083,214.258,63.6,521.707,63.6s521.707-33.517,521.707-63.6c0-2.605,0.445-5.046,3.049-5.046
					c2.606,0,1.977,3.476,1.977,6.081C2343.143,2376.252,2073.892,2400.807,1816.409,2400.807z"/>
				<g>
					<path style="fill:#FCB048;" d="M1766.667,2331.589c5.165-3.576,10.662-7.101,16.544-10.583
						c5.827-3.477,13.421-6.62,22.615-9.427c9.249-2.807,20.817-5.091,34.702-6.863c13.885-1.771,31.248-2.705,51.978-2.805
						c20.346-0.102,39.426,0.545,57.296,1.939c17.817,1.387,33.54,3.47,47.117,6.238c13.523,2.768,24.566,6.192,33.077,10.262
						c8.456,4.08,13.497,8.75,15.121,14.013l59.273,0.601c4.301,0.026,8.108,0.376,11.364,1.051
						c3.312,0.676,4.915,1.529,4.919,2.564l0.024,4.88l-76.201-0.734c-2.672,5.978-9.482,11.446-20.431,16.404
						c-10.892,4.964-24.82,9.258-41.785,12.892l-27.752-3.861c-2.483-0.378-4.526-0.861-6.127-1.449
						c-1.602-0.582-2.377-1.216-2.381-1.908c-0.005-0.938,2.142-2.009,6.435-3.209c4.296-1.207,9.14-2.699,14.534-4.477
						c5.394-1.772,10.678-3.868,15.903-6.289c5.172-2.415,8.632-5.302,10.434-8.663l-179.861-1.785
						c-4.726,3.478-10.056,6.892-15.885,10.249c-5.883,3.357-13.641,6.381-23.332,9.064c-9.691,2.684-21.756,4.86-36.193,6.538
						c-14.492,1.673-32.627,2.563-54.571,2.669c-16.485,0.082-32.534-0.544-48.254-1.87c-15.719-1.33-29.678-3.32-41.877-5.968
						c-12.197-2.654-22.194-5.933-30.041-9.836c-7.793-3.909-12.171-8.396-13.078-13.471l-48.799-0.5
						c-4.3-0.027-8.107-0.363-11.529-1.015c-3.366-0.651-5.08-1.516-5.085-2.598l-0.024-4.881l66.719,0.635
						c2.951-5.142,8.995-9.624,18.24-13.438c9.244-3.818,20.53-7.215,33.858-10.186l22.345,3.068
						c6.786,0.953,10.154,2.068,10.161,3.35c0.004,0.692-1.371,1.547-4.178,2.572c-2.862,1.026-6.163,2.251-10.017,3.673
						c-3.797,1.426-7.537,3.093-11.113,5.013c-3.629,1.914-6.32,4.081-8.128,6.509L1766.667,2331.589z M1602.063,2338.24
						c1.34,3.202,4.33,5.955,8.862,8.273c4.533,2.325,10.166,4.23,16.955,5.725c6.789,1.494,14.404,2.589,22.843,3.288
						c8.494,0.699,17.373,1.027,26.635,0.982c10.807-0.052,20.233-0.52,28.277-1.396c7.99-0.882,15.043-2.072,21.156-3.582
						c6.057-1.51,11.396-3.258,15.907-5.254s8.526-4.158,12.155-6.493L1602.063,2338.24z M1993.618,2333.875
						c-1.339-3.243-4.607-6.085-9.691-8.528c-5.085-2.437-11.6-4.494-19.494-6.15c-7.891-1.665-17.106-2.902-27.64-3.711
						c-10.481-0.808-22.061-1.185-34.742-1.123c-11.248,0.054-21.004,0.56-29.105,1.508c-8.1,0.955-15.151,2.23-21.153,3.841
						c-5.947,1.607-11.065,3.479-15.19,5.618c-4.18,2.138-8.084,4.426-11.654,6.863L1993.618,2333.875z"/>
				</g>
				
					<linearGradient id="SVGID_00000159437153892065827140000018007331693594050436_" gradientUnits="userSpaceOnUse" x1="-157.576" y1="1720.8395" x2="-138.0348" y2="1884.4282" gradientTransform="matrix(-1 0 0 -1 1669.249 4127.8389)">
					<stop  offset="0.0036" style="stop-color:#F36F56"/>
					<stop  offset="0.3059" style="stop-color:#F99C4C"/>
					<stop  offset="0.545" style="stop-color:#FDB946"/>
					<stop  offset="0.6817" style="stop-color:#FFC444"/>
					<stop  offset="0.8038" style="stop-color:#FFC244"/>
					<stop  offset="0.8667" style="stop-color:#FEBA46"/>
					<stop  offset="0.916" style="stop-color:#FCAD49"/>
					<stop  offset="0.958" style="stop-color:#F99A4D"/>
					<stop  offset="0.9955" style="stop-color:#F58152"/>
					<stop  offset="1" style="stop-color:#F57E53"/>
				</linearGradient>
				<path style="fill:url(#SVGID_00000159437153892065827140000018007331693594050436_);" d="M1816.482,2266.86
					c-234.721,0-479.119,20.655-518.211,60.637c1.53,1.412,2.951,2.917,4.272,4.5c32.951-27.761,234.755-55.71,513.939-55.71
					c286.351,0,491.391,29.405,516.228,57.85c1.22-1.56,2.525-3.053,3.936-4.459
					C2304.358,2288.279,2055.373,2266.86,1816.482,2266.86z"/>
			</g>
			<g>
				
					<linearGradient id="SVGID_00000020390031996494359950000014962255760487074448_" gradientUnits="userSpaceOnUse" x1="1326.2579" y1="2298.0347" x2="2537.489" y2="2298.0347">
					<stop  offset="0" style="stop-color:#FCB148"/>
					<stop  offset="0.0521" style="stop-color:#FDBA46"/>
					<stop  offset="0.1424" style="stop-color:#FFC244"/>
					<stop  offset="0.3183" style="stop-color:#FFC444"/>
					<stop  offset="0.4849" style="stop-color:#FDB946"/>
					<stop  offset="0.7754" style="stop-color:#F99C4D"/>
					<stop  offset="0.8658" style="stop-color:#F8924F"/>
					<stop  offset="1" style="stop-color:#F8924F"/>
				</linearGradient>
				<path style="fill:url(#SVGID_00000020390031996494359950000014962255760487074448_);" d="M1416.263,2205.496v116.762
					c0,37.729,235.687,68.314,526.422,68.314c290.733,0,526.42-30.586,526.42-68.314v-116.762H1416.263z"/>
				
					<linearGradient id="SVGID_00000021102501975026257070000011724260910849489315_" gradientUnits="userSpaceOnUse" x1="1937.4398" y1="2161.5938" x2="2001.2947" y2="2696.1526">
					<stop  offset="0" style="stop-color:#FFDB44"/>
					<stop  offset="1" style="stop-color:#FEEF06"/>
				</linearGradient>
				
					<ellipse style="fill:url(#SVGID_00000021102501975026257070000011724260910849489315_);" cx="1942.685" cy="2205.495" rx="526.421" ry="68.315"/>
				
					<linearGradient id="SVGID_00000114783505720984939040000012517351353476506283_" gradientUnits="userSpaceOnUse" x1="1934.6641" y1="2137.7544" x2="1954.2749" y2="2301.9263">
					<stop  offset="0" style="stop-color:#FFDB44"/>
					<stop  offset="1" style="stop-color:#FEEF06"/>
				</linearGradient>
				<path style="fill:url(#SVGID_00000114783505720984939040000012517351353476506283_);" d="M1942.683,2278.521
					c-257.481,0-526.725-24.593-526.725-72.029c0-2.605,0.929-7.184,3.534-7.184c2.605,0,1.485,3.582,1.485,6.188
					c0,30.082,214.258,63.599,521.707,63.599s521.707-33.517,521.707-63.599c0-2.605,0.445-5.047,3.049-5.047
					c2.605,0,1.977,3.476,1.977,6.081C2469.416,2253.966,2200.165,2278.521,1942.683,2278.521z"/>
				<g>
					<path style="fill:#FCB048;" d="M1892.94,2209.303c5.165-3.576,10.661-7.1,16.544-10.583c5.828-3.476,13.419-6.62,22.615-9.427
						c9.249-2.807,20.816-5.091,34.702-6.863c13.885-1.771,31.247-2.705,51.978-2.806c20.346-0.099,39.426,0.546,57.296,1.94
						c17.815,1.387,33.54,3.47,47.117,6.238c13.523,2.768,24.566,6.192,33.078,10.261c8.455,4.08,13.496,8.75,15.12,14.013
						l59.273,0.601c4.302,0.028,8.107,0.376,11.364,1.052c3.312,0.676,4.915,1.529,4.919,2.564l0.024,4.88l-76.201-0.734
						c-2.672,5.978-9.482,11.446-20.431,16.404c-10.892,4.964-24.82,9.258-41.785,12.891l-27.753-3.86
						c-2.482-0.379-4.525-0.863-6.126-1.45c-1.603-0.582-2.377-1.216-2.381-1.908c-0.005-0.938,2.141-2.01,6.435-3.21
						c4.295-1.207,9.139-2.698,14.534-4.477c5.394-1.772,10.678-3.868,15.903-6.289c5.172-2.415,8.632-5.302,10.433-8.664
						l-179.862-1.782c-4.724,3.477-10.055,6.891-15.884,10.248c-5.882,3.357-13.642,6.381-23.332,9.064
						c-9.691,2.684-21.756,4.861-36.193,6.538c-14.493,1.673-32.628,2.563-54.571,2.67c-16.486,0.081-32.534-0.545-48.254-1.87
						c-15.719-1.332-29.679-3.32-41.877-5.97c-12.197-2.654-22.194-5.933-30.041-9.836c-7.793-3.909-12.172-8.396-13.079-13.471
						l-48.797-0.5c-4.301-0.028-8.107-0.363-11.529-1.015c-3.366-0.651-5.081-1.516-5.085-2.599l-0.024-4.881l66.719,0.635
						c2.951-5.142,8.995-9.624,18.24-13.438c9.243-3.818,20.53-7.215,33.857-10.186l22.346,3.068
						c6.786,0.953,10.154,2.068,10.161,3.351c0.002,0.691-1.371,1.547-4.178,2.571c-2.862,1.026-6.164,2.252-10.017,3.673
						c-3.798,1.426-7.538,3.094-11.113,5.013c-3.629,1.914-6.32,4.081-8.128,6.509L1892.94,2209.303z M1728.336,2215.954
						c1.34,3.201,4.33,5.955,8.863,8.273c4.531,2.326,10.165,4.23,16.954,5.725c6.789,1.494,14.404,2.589,22.842,3.288
						c8.495,0.699,17.374,1.029,26.636,0.982c10.806-0.052,20.233-0.52,28.277-1.396c7.991-0.882,15.042-2.072,21.155-3.582
						c6.058-1.51,11.397-3.257,15.908-5.254c4.511-1.996,8.525-4.158,12.152-6.493L1728.336,2215.954z M2119.89,2211.59
						c-1.338-3.243-4.606-6.086-9.69-8.529c-5.085-2.437-11.601-4.493-19.494-6.151c-7.893-1.665-17.106-2.902-27.641-3.711
						c-10.481-0.808-22.061-1.185-34.74-1.123c-11.249,0.054-21.005,0.56-29.105,1.509c-8.1,0.955-15.151,2.229-21.153,3.84
						c-5.947,1.607-11.065,3.479-15.19,5.618c-4.18,2.139-8.084,4.427-11.655,6.863L2119.89,2211.59z"/>
				</g>
				
					<linearGradient id="SVGID_00000155866350685937928860000003921236029106259593_" gradientUnits="userSpaceOnUse" x1="-283.8495" y1="1843.1251" x2="-264.3083" y2="2006.714" gradientTransform="matrix(-1 0 0 -1 1669.249 4127.8389)">
					<stop  offset="0.0036" style="stop-color:#F36F56"/>
					<stop  offset="0.3059" style="stop-color:#F99C4C"/>
					<stop  offset="0.545" style="stop-color:#FDB946"/>
					<stop  offset="0.6817" style="stop-color:#FFC444"/>
					<stop  offset="0.8038" style="stop-color:#FFC244"/>
					<stop  offset="0.8667" style="stop-color:#FEBA46"/>
					<stop  offset="0.916" style="stop-color:#FCAD49"/>
					<stop  offset="0.958" style="stop-color:#F99A4D"/>
					<stop  offset="0.9955" style="stop-color:#F58152"/>
					<stop  offset="1" style="stop-color:#F57E53"/>
				</linearGradient>
				<path style="fill:url(#SVGID_00000155866350685937928860000003921236029106259593_);" d="M1942.755,2144.574
					c-234.721,0-479.119,20.655-518.211,60.637c1.53,1.412,2.951,2.917,4.272,4.5c32.95-27.76,234.755-55.71,513.939-55.71
					c286.351,0,491.391,29.406,516.228,57.85c1.22-1.56,2.523-3.053,3.936-4.459
					C2430.631,2165.993,2181.647,2144.574,1942.755,2144.574z"/>
			</g>
			<g>
				
					<linearGradient id="SVGID_00000095327817804509241400000015398721150834344636_" gradientUnits="userSpaceOnUse" x1="1260.5791" y1="2175.3899" x2="2471.8091" y2="2175.3899">
					<stop  offset="0" style="stop-color:#FCB148"/>
					<stop  offset="0.0521" style="stop-color:#FDBA46"/>
					<stop  offset="0.1424" style="stop-color:#FFC244"/>
					<stop  offset="0.3183" style="stop-color:#FFC444"/>
					<stop  offset="0.4849" style="stop-color:#FDB946"/>
					<stop  offset="0.7754" style="stop-color:#F99C4D"/>
					<stop  offset="0.8658" style="stop-color:#F8924F"/>
					<stop  offset="1" style="stop-color:#F8924F"/>
				</linearGradient>
				<path style="fill:url(#SVGID_00000095327817804509241400000015398721150834344636_);" d="M1350.584,2082.851v116.762
					c0,37.73,235.686,68.315,526.421,68.315c290.733,0,526.42-30.585,526.42-68.315v-116.762H1350.584z"/>
				
					<linearGradient id="SVGID_00000012458635897401911490000014952746782619234198_" gradientUnits="userSpaceOnUse" x1="1871.7604" y1="2038.9495" x2="1935.6155" y2="2573.5098">
					<stop  offset="0" style="stop-color:#FFDB44"/>
					<stop  offset="1" style="stop-color:#FEEF06"/>
				</linearGradient>
				
					<ellipse style="fill:url(#SVGID_00000012458635897401911490000014952746782619234198_);" cx="1877.005" cy="2082.851" rx="526.421" ry="68.315"/>
				
					<linearGradient id="SVGID_00000100377484267251184790000016806593031381179815_" gradientUnits="userSpaceOnUse" x1="1868.9841" y1="2015.1101" x2="1888.5948" y2="2179.2808">
					<stop  offset="0" style="stop-color:#FFDB44"/>
					<stop  offset="1" style="stop-color:#FEEF06"/>
				</linearGradient>
				<path style="fill:url(#SVGID_00000100377484267251184790000016806593031381179815_);" d="M1877.003,2155.876
					c-257.481,0-526.725-24.593-526.725-72.028c0-2.605,0.929-7.183,3.533-7.183c2.606,0,1.485,3.581,1.485,6.186
					c0,30.083,214.259,63.6,521.707,63.6c307.449,0,521.707-33.517,521.707-63.6c0-2.605,0.445-5.046,3.049-5.046
					c2.606,0,1.977,3.477,1.977,6.081C2403.736,2131.321,2134.485,2155.876,1877.003,2155.876z"/>
				<g>
					<path style="fill:#FCB048;" d="M1827.26,2086.659c5.165-3.577,10.662-7.101,16.544-10.583
						c5.828-3.477,13.422-6.62,22.615-9.427c9.249-2.807,20.817-5.091,34.702-6.863c13.885-1.771,31.248-2.705,51.979-2.806
						c20.345-0.1,39.425,0.546,57.295,1.939c17.816,1.387,33.54,3.47,47.116,6.239c13.523,2.767,24.566,6.192,33.078,10.26
						c8.455,4.081,13.495,8.75,15.12,14.014l59.273,0.601c4.301,0.027,8.108,0.375,11.364,1.05c3.312,0.677,4.915,1.529,4.919,2.565
						l0.024,4.879l-76.201-0.732c-2.673,5.976-9.482,11.444-20.431,16.403c-10.892,4.964-24.82,9.258-41.785,12.891l-27.752-3.861
						c-2.483-0.379-4.526-0.861-6.127-1.449c-1.602-0.582-2.377-1.217-2.381-1.908c-0.005-0.94,2.142-2.01,6.435-3.21
						c4.296-1.206,9.139-2.699,14.534-4.478c5.394-1.771,10.678-3.867,15.904-6.288c5.171-2.415,8.63-5.303,10.432-8.663
						l-179.861-1.785c-4.726,3.477-10.056,6.892-15.884,10.249c-5.883,3.357-13.642,6.38-23.333,9.064
						c-9.691,2.683-21.756,4.861-36.193,6.538c-14.492,1.672-32.627,2.562-54.571,2.669c-16.485,0.082-32.534-0.543-48.253-1.869
						c-15.72-1.33-29.679-3.322-41.878-5.969c-12.197-2.655-22.194-5.933-30.042-9.838c-7.793-3.908-12.171-8.395-13.078-13.47
						l-48.798-0.5c-4.301-0.027-8.107-0.363-11.529-1.016c-3.365-0.651-5.08-1.516-5.085-2.597l-0.024-4.881l66.719,0.635
						c2.951-5.142,8.995-9.624,18.24-13.437c9.244-3.821,20.53-7.215,33.859-10.187l22.345,3.068
						c6.786,0.953,10.154,2.068,10.161,3.35c0.003,0.692-1.371,1.547-4.178,2.572c-2.861,1.025-6.163,2.25-10.016,3.672
						c-3.797,1.427-7.539,3.094-11.114,5.014c-3.629,1.914-6.32,4.08-8.128,6.509L1827.26,2086.659z M1662.656,2093.31
						c1.34,3.201,4.33,5.955,8.863,8.273c4.532,2.325,10.165,4.23,16.954,5.725c6.789,1.495,14.404,2.588,22.843,3.288
						c8.494,0.699,17.373,1.027,26.635,0.982c10.807-0.053,20.233-0.521,28.277-1.396c7.99-0.882,15.044-2.072,21.156-3.582
						c6.057-1.51,11.396-3.258,15.908-5.255c4.51-1.996,8.524-4.158,12.153-6.493L1662.656,2093.31z M2054.21,2088.945
						c-1.339-3.243-4.606-6.086-9.69-8.528c-5.085-2.437-11.6-4.494-19.494-6.152c-7.891-1.665-17.106-2.902-27.64-3.71
						c-10.481-0.809-22.06-1.185-34.742-1.124c-11.247,0.055-21.004,0.56-29.104,1.509c-8.101,0.955-15.152,2.23-21.154,3.841
						c-5.946,1.606-11.065,3.479-15.19,5.617c-4.18,2.139-8.083,4.427-11.654,6.864L2054.21,2088.945z"/>
				</g>
				
					<linearGradient id="SVGID_00000142165790105436832500000006999761998286354873_" gradientUnits="userSpaceOnUse" x1="-218.1701" y1="1965.7695" x2="-198.6289" y2="2129.3582" gradientTransform="matrix(-1 0 0 -1 1669.249 4127.8389)">
					<stop  offset="0.0036" style="stop-color:#F36F56"/>
					<stop  offset="0.3059" style="stop-color:#F99C4C"/>
					<stop  offset="0.545" style="stop-color:#FDB946"/>
					<stop  offset="0.6817" style="stop-color:#FFC444"/>
					<stop  offset="0.8038" style="stop-color:#FFC244"/>
					<stop  offset="0.8667" style="stop-color:#FEBA46"/>
					<stop  offset="0.916" style="stop-color:#FCAD49"/>
					<stop  offset="0.958" style="stop-color:#F99A4D"/>
					<stop  offset="0.9955" style="stop-color:#F58152"/>
					<stop  offset="1" style="stop-color:#F57E53"/>
				</linearGradient>
				<path style="fill:url(#SVGID_00000142165790105436832500000006999761998286354873_);" d="M1877.075,2021.93
					c-234.721,0-479.119,20.655-518.211,60.637c1.53,1.411,2.952,2.917,4.273,4.5c32.95-27.761,234.755-55.71,513.939-55.71
					c286.351,0,491.391,29.406,516.228,57.85c1.22-1.56,2.525-3.054,3.937-4.459
					C2364.952,2043.349,2115.967,2021.93,1877.075,2021.93z"/>
			</g>
		</g>
		<g>
			
				<linearGradient id="SVGID_00000165236323962146113290000013003364198697647251_" gradientUnits="userSpaceOnUse" x1="2616.9114" y1="2780.0762" x2="2777.385" y2="3359.1768">
				<stop  offset="0" style="stop-color:#311944"/>
				<stop  offset="1" style="stop-color:#893976"/>
			</linearGradient>
			<path style="fill:url(#SVGID_00000165236323962146113290000013003364198697647251_);" d="M2775.041,3108.357
				c0,0,7.653,31.017,7.895,42.254c0.245,11.238-123.42,26.902-125.345,18.623c-1.925-8.279,18.778-23.347,33.723-29.277
				c14.947-5.931,58.788-22.075,58.788-22.075L2775.041,3108.357z"/>
			
				<linearGradient id="SVGID_00000121980207976685258210000002949633135855648395_" gradientUnits="userSpaceOnUse" x1="2759.7334" y1="3189.5054" x2="2762.0593" y2="2994.1453">
				<stop  offset="0" style="stop-color:#FFC444"/>
				<stop  offset="0.9964" style="stop-color:#F36F56"/>
			</linearGradient>
			<path style="fill:url(#SVGID_00000121980207976685258210000002949633135855648395_);" d="M2742.402,3079.439l7.09,38.762
				c0,0,15.182,8.373,27.296,0l2.948-43.046L2742.402,3079.439z"/>
			
				<linearGradient id="SVGID_00000133498207488267792280000014582565194774544282_" gradientUnits="userSpaceOnUse" x1="2817.8213" y1="2724.3999" x2="2978.2959" y2="3303.5046">
				<stop  offset="0" style="stop-color:#311944"/>
				<stop  offset="1" style="stop-color:#893976"/>
			</linearGradient>
			<path style="fill:url(#SVGID_00000133498207488267792280000014582565194774544282_);" d="M3000.579,3141.559
				c0,0,7.654,31.016,7.897,42.254c0.244,11.238-123.422,26.902-125.346,18.623c-1.926-8.278,18.778-23.347,33.723-29.278
				c14.946-5.93,58.787-22.075,58.787-22.075L3000.579,3141.559z"/>
			
				<linearGradient id="SVGID_00000031927387611075628630000015474196115690927007_" gradientUnits="userSpaceOnUse" x1="2985.635" y1="3192.1958" x2="2987.9609" y2="2996.8335">
				<stop  offset="0" style="stop-color:#FFC444"/>
				<stop  offset="0.9964" style="stop-color:#F36F56"/>
			</linearGradient>
			<path style="fill:url(#SVGID_00000031927387611075628630000015474196115690927007_);" d="M2967.941,3112.641l7.091,38.762
				c0,0,15.181,8.374,27.296,0l2.947-43.046L2967.941,3112.641z"/>
			
				<linearGradient id="SVGID_00000166633915911356668820000005199466087677536184_" gradientUnits="userSpaceOnUse" x1="2647.1238" y1="2561.2043" x2="2855.1265" y2="2561.2043">
				<stop  offset="0" style="stop-color:#444B8C"/>
				<stop  offset="0.9964" style="stop-color:#26264F"/>
			</linearGradient>
			<path style="fill:url(#SVGID_00000166633915911356668820000005199466087677536184_);" d="M2683.174,2057.426
				c-12.016,30.237-24.033,60.474-36.05,90.709c1.763,166.919,10.492,347.877,29.644,540.615
				c14.248,143.396,32.826,278.829,54.084,405.65c19.381-2.449,38.762-4.906,58.144-7.354
				c23.656-58.081,50.084-145.321,44.773-249.972c-5.539-109.161-39.715-120.974-45.977-225.416
				c-8.115-135.367,45.668-175.967,62.835-340.953c6.565-63.095,7.832-144.921-9.303-242.697
				C2788.606,2037.812,2735.891,2047.623,2683.174,2057.426z"/>
			
				<linearGradient id="SVGID_00000088820929009353235290000013811490294051119540_" gradientUnits="userSpaceOnUse" x1="2647.1252" y1="2561.2043" x2="2855.127" y2="2561.2043">
				<stop  offset="0" style="stop-color:#444B8C"/>
				<stop  offset="0.9964" style="stop-color:#26264F"/>
			</linearGradient>
			<path style="opacity:0.3;fill:url(#SVGID_00000088820929009353235290000013811490294051119540_);" d="M2841.324,2028.008
				c-28.47,5.294-56.94,10.589-85.411,15.89c-44.474,94.077-51.402,188.842-39.015,229.52
				c17.524,57.555,52.969,73.601,55.817,132.567c2.818,58.345-30.261,76.184-46.516,146.521
				c-11.251,48.699-3.779,92.046,11.631,176.755c31.034,170.629,76.786,219.904,46.513,279.088
				c-8.603,16.816-24.886,37.327-58.618,54.694c1.699,10.479,3.388,20.994,5.126,31.357c19.381-2.446,38.762-4.906,58.144-7.352
				c23.656-58.088,50.084-145.323,44.773-249.974c-5.539-109.162-39.715-120.978-45.977-225.417
				c-8.115-135.367,45.668-175.964,62.835-340.95C2857.191,2207.611,2858.458,2125.785,2841.324,2028.008z"/>
			
				<linearGradient id="SVGID_00000079482935027039869200000009107070352719990165_" gradientUnits="userSpaceOnUse" x1="2764.5566" y1="2590.9202" x2="3080.3025" y2="2590.9202">
				<stop  offset="0" style="stop-color:#444B8C"/>
				<stop  offset="0.9964" style="stop-color:#26264F"/>
			</linearGradient>
			<path style="fill:url(#SVGID_00000079482935027039869200000009107070352719990165_);" d="M2764.557,2103.607
				c38.7,144.702,75.084,299.973,107.002,465.177c38.538,199.472,65.703,388.258,84.523,564.052
				c21.399-1.103,42.799-2.214,64.198-3.318c70.797-173.183,66.895-286.441,48.877-358.938
				c-6.943-27.936-24.088-82.432-33.635-165.165c-6.653-57.671-6.491-101.98-6.122-155.257
				c0.807-116.813,11.041-143.12,5.692-231.992c-5.017-83.406-8.052-125.569-33.794-148.259
				C2933.479,2010.13,2776.458,2096.881,2764.557,2103.607z"/>
			
				<linearGradient id="SVGID_00000068676897126193948230000017384488230484048309_" gradientUnits="userSpaceOnUse" x1="2027.6799" y1="1716.5903" x2="2223.0449" y2="1915.4437">
				<stop  offset="0" style="stop-color:#FFC444"/>
				<stop  offset="0.9964" style="stop-color:#F36F56"/>
			</linearGradient>
			<path style="fill:url(#SVGID_00000068676897126193948230000017384488230484048309_);" d="M2143.251,1767.438
				c0,0-47.014-4.03-53.816-11.653c-6.801-7.621-17.133-19.828-18.152-26.816c-1.019-6.989-10.102,3.45-1.868,18.604
				s-15.128,11.945-18.774,11.578c-8.383-0.842-40.361-1.779-39.44,0.2c0.923,1.981-3.797,10.729,18.914,21.02
				c19.882,9.009,43.549,3.145,56.474,3.765c12.923,0.619,12.923,0.619,12.923,0.619l34.277,2.614L2143.251,1767.438z"/>
			
				<linearGradient id="SVGID_00000050645063335175957360000014861988931617681062_" gradientUnits="userSpaceOnUse" x1="2963.3718" y1="1131.4408" x2="2028.4229" y2="2087.3201">
				<stop  offset="0.0036" style="stop-color:#6165D7"/>
				<stop  offset="1" style="stop-color:#AA80F9"/>
			</linearGradient>
			<path style="fill:url(#SVGID_00000050645063335175957360000014861988931617681062_);" d="M2115.692,1745.472
				c-2.071,15.672-4.141,31.343-6.212,47.014c31.138,25.974,99.982,75.763,195.76,83.229
				c168.849,13.172,336.293-111.792,367.468-252.344c15.437-69.609,2.827-167.271-40.434-182.976
				c-12.008-4.361-30.048-3.741-67.24,21.245c-99.254,66.673-107.696,154.236-162.528,213.466
				C2363.044,1717.734,2285.454,1760.918,2115.692,1745.472z"/>
			
				<linearGradient id="SVGID_00000137093456720281813210000004146761789150929839_" gradientUnits="userSpaceOnUse" x1="3399.2307" y1="2628.3386" x2="2694.5322" y2="1616.6422">
				<stop  offset="0.0036" style="stop-color:#6165D7"/>
				<stop  offset="1" style="stop-color:#AA80F9"/>
			</linearGradient>
			<path style="fill:url(#SVGID_00000137093456720281813210000004146761789150929839_);" d="M2633.17,2179.226
				c-23.177-32.304-0.106-67.101,0.589-131.88c0.787-73.418-28.262-83.305-65.71-201.87
				c-24.903-78.854-48.811-154.555-34.885-246.526c6.673-44.078,17.991-118.838,75.883-159.149
				c29.875-20.802,72.812-22.402,157.468-24.746c104.687-2.903,157.029-4.355,197.542,13c5.93,2.542,129.348,57.391,145.89,161.594
				c16.838,106.054-98.235,129.712-102.331,273.269c-1.839,64.444,18.438,161.71,31.589,224.797
				c12.627,60.575,19.198,75.817,8.606,95.311c-25.527,46.988-115.656,41.399-295.913,30.232
				C2681.19,2208.878,2650.464,2203.333,2633.17,2179.226z"/>
			
				<linearGradient id="SVGID_00000148620648187149390000000015274752013218234245_" gradientUnits="userSpaceOnUse" x1="3399.1614" y1="2628.3862" x2="2694.4607" y2="1616.6868">
				<stop  offset="0" style="stop-color:#AA80F9"/>
				<stop  offset="0.9964" style="stop-color:#6165D7"/>
			</linearGradient>
			<path style="opacity:0.3;fill:url(#SVGID_00000148620648187149390000000015274752013218234245_);" d="M2879.698,1850.13
				c9.759,27.134,38.521,45.68,62.794,111.636c5.24,14.242,42.564,115.65,6.978,144.2c-20.556,16.488-42.308-9.888-95.354-9.309
				c-91.923,1.002-129.315,81.322-190.711,65.127c-10.652-2.815-24.953-9.479-40.039-26.219c-1.431,16.29,0.154,30.21,9.803,43.662
				c17.295,24.106,48.021,29.652,118.728,34.034c180.257,11.167,270.385,16.756,295.913-30.232
				c10.592-19.494,4.021-34.736-8.606-95.311c-13.151-63.087-33.428-160.353-31.589-224.797
				c4.096-143.557,119.169-167.215,102.331-273.269c-4.501-28.352-17.031-52.915-32.836-73.901
				C2934.455,1587.224,2849.027,1764.865,2879.698,1850.13z"/>
			
				<linearGradient id="SVGID_00000071553769921661897140000017924934311999226280_" gradientUnits="userSpaceOnUse" x1="2970.0386" y1="2067.2046" x2="3083.7068" y2="2067.2046">
				<stop  offset="0" style="stop-color:#FFC444"/>
				<stop  offset="0.9964" style="stop-color:#F36F56"/>
			</linearGradient>
			<path style="fill:url(#SVGID_00000071553769921661897140000017924934311999226280_);" d="M3082.739,2045.132l-27.989,21.198
				c-5.787-5.691-19.037-17.048-38.521-19.727c-21.95-3.012-46.167,5.771-46.191,12.702c-0.02,5.552,15.503,9.906,17.903,10.581
				c19.376,5.437,32.878-1.45,41.094,5.506c2.905,2.46,6.658,7.167,14.739,11.16c2.121,1.05,4.331,1.949,5.484,2.296
				c12.952,3.877,32.748-19.718,34.448-21.776L3082.739,2045.132z"/>
			
				<linearGradient id="SVGID_00000035521833882044988600000005056962587003959216_" gradientUnits="userSpaceOnUse" x1="3596.855" y1="2490.6826" x2="2892.1536" y2="1478.9819">
				<stop  offset="0.0036" style="stop-color:#6165D7"/>
				<stop  offset="1" style="stop-color:#AA80F9"/>
			</linearGradient>
			<path style="fill:url(#SVGID_00000035521833882044988600000005056962587003959216_);" d="M2964.588,1665.233
				c-25.434-49.398-46.488-126.461-22.096-245.368c229.092,69.712,358.977,268.085,327.93,436.078
				c-25.593,138.489-152.935,215.15-181.408,231.412c-8.14-15.119-16.28-30.232-24.42-45.351
				c31.228-40.929,65.341-100.482,54.714-164.468C3104.578,1788.828,3016.082,1765.24,2964.588,1665.233z"/>
			
				<linearGradient id="SVGID_00000076569470978214481480000008079835773646554030_" gradientUnits="userSpaceOnUse" x1="149.6243" y1="1364.9517" x2="149.6243" y2="1163.4823" gradientTransform="matrix(0.827 0.5622 -0.5622 0.827 3357.9539 289.0357)">
				<stop  offset="0" style="stop-color:#FFC444"/>
				<stop  offset="0.9964" style="stop-color:#F36F56"/>
			</linearGradient>
			<path style="fill:url(#SVGID_00000076569470978214481480000008079835773646554030_);" d="M2763.547,1309.481
				c0,0,4.866,38.708,19.258,66.834c13.004,25.42,71.649,37.356,83.738,42.294c12.091,4.938-19.923,24.769-53.182,30.827
				c-33.257,6.058-129.619,6.117-147.898-5.21c-18.279-11.326,12.928-12.865,36.156-23.569
				c23.227-10.702,33.314-58.615,27.387-79.519C2723.081,1320.231,2763.547,1309.481,2763.547,1309.481z"/>
			
				<linearGradient id="SVGID_00000075149484432639345630000003266931205835303308_" gradientUnits="userSpaceOnUse" x1="2805.377" y1="1436.8086" x2="2721.1128" y2="1222.7932">
				<stop  offset="0" style="stop-color:#444B8C"/>
				<stop  offset="0.9964" style="stop-color:#3E4177"/>
			</linearGradient>
			<path style="fill:url(#SVGID_00000075149484432639345630000003266931205835303308_);" d="M2709.389,1299.645
				c-18.767-15.699-21.355-17.501-23.725-23.257c-9.503-23.105,6.287-57.054,29.771-66.982c1.222-0.515,16.985-6.991,23.723-0.466
				c5.723,5.54-1.334,14.391,3.256,25.585c4.298,10.48,13.686,10.538,32.096,23.257c15.165,10.474,24.59,16.986,27.445,26.98
				c5.886,20.604-17.031,52.984-39.539,53.957C2754.322,1339.068,2751.796,1335.121,2709.389,1299.645z"/>
			<g>
				
					<linearGradient id="SVGID_00000077287566699014198190000016887501051261755826_" gradientUnits="userSpaceOnUse" x1="7.2138" y1="1306.8901" x2="101.4081" y2="1123.7344" gradientTransform="matrix(0.827 0.5622 -0.5622 0.827 3357.9539 289.0357)">
					<stop  offset="0" style="stop-color:#FFC444"/>
					<stop  offset="0.9964" style="stop-color:#F36F56"/>
				</linearGradient>
				<path style="fill:url(#SVGID_00000077287566699014198190000016887501051261755826_);" d="M2760.479,1342.129
					c0,0-16.815,22.421-45.541,17.756c-25.72-4.176-23.922-62.582-6.205-73.31c5.91-3.577,17.12-4.219,25.86-0.839
					c5.164,1.998,6.744,4.375,15.242,7.476c7.838,2.857,10.197,2.185,12.425,4.462c2.79,2.846,4.41,9.322-2.292,25.804
					c5.42-4.526,11.531-5.873,15.539-3.487c0.64,0.382,2.302,1.762,3.124,3.69C2781.61,1330.66,2774.742,1338.543,2760.479,1342.129
					z"/>
			</g>
		</g>
		<g>
			
				<linearGradient id="SVGID_00000182492111573854198950000012860959291661761197_" gradientUnits="userSpaceOnUse" x1="1645.9565" y1="1084.5111" x2="1055.292" y2="1274.0731">
				<stop  offset="0" style="stop-color:#FCB148"/>
				<stop  offset="0.0521" style="stop-color:#FDBA46"/>
				<stop  offset="0.1424" style="stop-color:#FFC244"/>
				<stop  offset="0.3183" style="stop-color:#FFC444"/>
				<stop  offset="0.4849" style="stop-color:#FDB946"/>
				<stop  offset="0.7754" style="stop-color:#F99C4D"/>
				<stop  offset="0.8658" style="stop-color:#F8924F"/>
				<stop  offset="1" style="stop-color:#F8924F"/>
			</linearGradient>
			<path style="fill:url(#SVGID_00000182492111573854198950000012860959291661761197_);" d="M2325.937,1063.079
				c0,274.017-214.265,489.572-488.119,481.162c-285.001-8.752-524.696-254.893-524.696-549.443
				c0-294.55,239.695-508.371,524.696-478.695C2111.672,544.617,2325.937,789.062,2325.937,1063.079z"/>
			
				<linearGradient id="SVGID_00000146484645722679255640000015055708454833280141_" gradientUnits="userSpaceOnUse" x1="2123.7695" y1="496.5638" x2="1596.4607" y2="1659.9058">
				<stop  offset="0" style="stop-color:#FFDB44"/>
				<stop  offset="1" style="stop-color:#FEEF06"/>
			</linearGradient>
			<path style="fill:url(#SVGID_00000146484645722679255640000015055708454833280141_);" d="M2399.938,1039.452
				c0,274.017-214.265,489.571-488.119,481.161c-285.001-8.752-524.697-254.892-524.697-549.443
				c0-294.551,239.696-508.372,524.697-478.696C2185.673,520.99,2399.938,765.435,2399.938,1039.452z"/>
			
				<linearGradient id="SVGID_00000110432443075108897550000018126728644896235412_" gradientUnits="userSpaceOnUse" x1="2026.771" y1="1724.9257" x2="1925.0256" y2="1169.0941">
				<stop  offset="0" style="stop-color:#FCB148"/>
				<stop  offset="0.0521" style="stop-color:#FDBA46"/>
				<stop  offset="0.1424" style="stop-color:#FFC244"/>
				<stop  offset="0.3183" style="stop-color:#FFC444"/>
				<stop  offset="0.4849" style="stop-color:#FDB946"/>
				<stop  offset="0.7754" style="stop-color:#F99C4D"/>
				<stop  offset="0.8658" style="stop-color:#F8924F"/>
				<stop  offset="1" style="stop-color:#F8924F"/>
			</linearGradient>
			<path style="fill:url(#SVGID_00000110432443075108897550000018126728644896235412_);" d="M2378.443,1038.002
				c0,261.95-205.011,467.664-466.624,459.194c-271.766-8.8-499.941-243.703-499.941-524.357s228.175-484.79,499.941-456.947
				C2173.431,542.696,2378.443,776.052,2378.443,1038.002z"/>
			
				<linearGradient id="SVGID_00000085943828272813376830000004934222178882505345_" gradientUnits="userSpaceOnUse" x1="1811.0514" y1="825.2511" x2="2230.3577" y2="1715.3582">
				<stop  offset="0" style="stop-color:#FCB148"/>
				<stop  offset="0.0521" style="stop-color:#FDBA46"/>
				<stop  offset="0.1424" style="stop-color:#FFC244"/>
				<stop  offset="0.3183" style="stop-color:#FFC444"/>
				<stop  offset="0.4849" style="stop-color:#FDB946"/>
				<stop  offset="0.7754" style="stop-color:#F99C4D"/>
				<stop  offset="0.8658" style="stop-color:#F8924F"/>
				<stop  offset="1" style="stop-color:#F8924F"/>
			</linearGradient>
			<path style="fill:url(#SVGID_00000085943828272813376830000004934222178882505345_);" d="M2363.048,1036.965
				c0,253.308-198.374,451.994-451.229,443.505c-262.328-8.808-482.311-235.685-482.311-506.441s219.983-467.972,482.311-441.409
				C2164.674,558.224,2363.048,783.657,2363.048,1036.965z"/>
			<g>
				
					<linearGradient id="SVGID_00000121986561848978749010000002712109544899818923_" gradientUnits="userSpaceOnUse" x1="1794.3458" y1="633.7116" x2="2005.1875" y2="1423.9087">
					<stop  offset="0" style="stop-color:#FFDB44"/>
					<stop  offset="1" style="stop-color:#FEEF06"/>
				</linearGradient>
				<path style="fill:url(#SVGID_00000121986561848978749010000002712109544899818923_);" d="M1909.23,618.795L1909.23,618.795
					c13.456,1.28,24.347,13.392,24.347,27.057v46.638c26.905,3.004,53.848,7.682,80.83,14.022
					c19.894,4.676,39.654,10.241,59.282,16.694c11.761,3.867,19.774,15.741,18.575,27.988l-5.728,58.483
					c-1.52,15.516-16.858,24.628-31.297,18.189c-12.929-5.766-26.184-10.704-39.77-14.815
					c-23.707-7.173-48.707-11.849-75.014-14.018l-6.879-0.566v133.565c70.191,19.638,121.741,46.057,155.054,79.286
					c33.153,33.07,49.671,74.286,49.671,123.765c0,53.507-18.262,96.353-54.931,128.667
					c-36.865,32.485-88.551,50.756-155.389,54.712v51.475c0,13.671-10.898,24.32-24.366,23.784l-0.432-0.017
					c-13.494-0.537-24.452-12.093-24.452-25.811v-50.778l-10.847-0.49c-31.333-1.414-61.346-4.61-90.021-9.598
					c-21.236-3.694-41.974-8.462-62.209-14.307c-12.237-3.535-20.638-15.192-19.516-27.716l6.74-75.178
					c1.456-16.252,17.781-25.709,33.235-19.613c18.013,7.106,36.251,13.091,54.711,17.959c28.768,7.586,57.927,12.453,87.472,14.613
					l0.433-148.574c-67.376-16.672-117.82-41.365-150.962-74.073c-33.297-32.862-50.003-74.918-50.003-126.052
					c0-52.917,18.116-93.764,54.21-122.431c35.911-28.522,86.961-42.712,152.822-42.676V641.3
					C1884.799,627.588,1895.747,617.513,1909.23,618.795z M1884.799,797.084c-20.823,1.515-37.061,7.234-48.683,17.164
					c-11.641,9.947-17.469,23.315-17.469,40.093c0,15.894,5.391,29.18,16.16,39.845c10.753,10.648,27.431,19.15,49.992,25.503
					V797.084z M1927.982,1066.119v136.247c22.636,0.045,39.994-5.359,52.111-16.198c12.096-10.82,18.137-26.103,18.137-45.864
					c0-18.017-5.614-32.96-16.855-44.842C1970.116,1083.561,1952.335,1073.782,1927.982,1066.119z"/>
			</g>
			
				<linearGradient id="SVGID_00000166646440373808677300000006044094177692510393_" gradientUnits="userSpaceOnUse" x1="1687.6929" y1="882.8544" x2="2106.1531" y2="1771.1655">
				<stop  offset="0" style="stop-color:#FCB148"/>
				<stop  offset="0.0521" style="stop-color:#FDBA46"/>
				<stop  offset="0.1424" style="stop-color:#FFC244"/>
				<stop  offset="0.3183" style="stop-color:#FFC444"/>
				<stop  offset="0.4849" style="stop-color:#FDB946"/>
				<stop  offset="0.7754" style="stop-color:#F99C4D"/>
				<stop  offset="0.8658" style="stop-color:#F8924F"/>
				<stop  offset="1" style="stop-color:#F8924F"/>
			</linearGradient>
			<path style="opacity:0.3;fill:url(#SVGID_00000166646440373808677300000006044094177692510393_);" d="M1830.164,1098.996
				c15.245-150.574,153.628-214.316,135.57-352.821c-11.131-85.366-75.833-157.308-148.011-213.479
				c-218.926,22.96-388.215,204.236-388.215,441.333c0,270.757,219.983,497.633,482.311,506.441
				c25.47,0.855,50.346-0.469,74.534-3.64C1882.172,1373.161,1817.067,1228.357,1830.164,1098.996z"/>
		</g>
		<g>
			
				<linearGradient id="SVGID_00000108998461289343527670000003634884214070611877_" gradientUnits="userSpaceOnUse" x1="1267.1964" y1="3380.637" x2="1181.1444" y2="3096.8975" gradientTransform="matrix(0.9999 0.0138 -0.0138 0.9999 63.3784 -14.86)">
				<stop  offset="0" style="stop-color:#444B8C"/>
				<stop  offset="0.9964" style="stop-color:#26264F"/>
			</linearGradient>
			<path style="fill:url(#SVGID_00000108998461289343527670000003634884214070611877_);" d="M1201.842,3244.268
				c-8.808,17.963-6.336,25.684-4.143,29.079c6.427,9.964,21.901,0.556,62.296,5.338c4.738,0.564,13.78,1.786,25.064-0.873
				c9.665-2.279,21.063-7.422,20.576-10.011c-0.178-0.942-1.895-1.32-2.546-1.459c-11.21-2.39-81.386-23.926-81.386-23.926
				L1201.842,3244.268z"/>
			
				<linearGradient id="SVGID_00000084515977815953159210000008935272724945100682_" gradientUnits="userSpaceOnUse" x1="1193.0151" y1="3325.3857" x2="1193.0151" y2="2869.5381" gradientTransform="matrix(0.9999 0.0138 -0.0138 0.9999 63.3784 -14.86)">
				<stop  offset="0" style="stop-color:#FFC444"/>
				<stop  offset="0.9964" style="stop-color:#F36F56"/>
			</linearGradient>
			<path style="fill:url(#SVGID_00000084515977815953159210000008935272724945100682_);" d="M1196.456,3204.778l6.266,40.158
				c0,0,17.248,12.192,21.781-2.609c3.261-10.647,3.169-39.344,3.169-39.344L1196.456,3204.778z"/>
			
				<linearGradient id="SVGID_00000107561780331098673150000005925567810809089706_" gradientUnits="userSpaceOnUse" x1="1360.8573" y1="3325.3904" x2="1360.8573" y2="2869.5354" gradientTransform="matrix(0.9999 0.0138 -0.0138 0.9999 63.3784 -14.86)">
				<stop  offset="0" style="stop-color:#FFC444"/>
				<stop  offset="0.9964" style="stop-color:#F36F56"/>
			</linearGradient>
			<polygon style="fill:url(#SVGID_00000107561780331098673150000005925567810809089706_);" points="1400.128,3224.66 
				1383.194,3270.896 1358.586,3266.976 1364.291,3224.164 			"/>
			
				<linearGradient id="SVGID_00000039812293507839937980000002408843336805103279_" gradientUnits="userSpaceOnUse" x1="1392.5518" y1="3342.6243" x2="1306.4979" y2="3058.8789" gradientTransform="matrix(0.9999 0.0138 -0.0138 0.9999 63.3784 -14.86)">
				<stop  offset="0" style="stop-color:#444B8C"/>
				<stop  offset="0.9964" style="stop-color:#26264F"/>
			</linearGradient>
			<path style="fill:url(#SVGID_00000039812293507839937980000002408843336805103279_);" d="M1375.53,3296.362
				c-11.911-14.134-22.546-12.851-24.691-22.564c-1.687-7.632,2.988-16.992,10.038-20.548c9.911-4.995,21.914,2.808,24.626,4.568
				c18.423,11.978,13.405,30.706,30.776,38.827c3.497,1.635,9.036,3.369,14.877,8.841c2.478,2.324,8.621,8.079,7.182,12.044
				c-1.663,4.584-12.616,4.426-23.028,4.275c-12.495-0.179-18.743-0.265-24.751-4.017
				C1382.23,3312.59,1384.725,3307.271,1375.53,3296.362z"/>
			
				<linearGradient id="SVGID_00000091727487560125019340000018153597717338312859_" gradientUnits="userSpaceOnUse" x1="1153.6302" y1="2341.7532" x2="1111.7666" y2="3283.6873" gradientTransform="matrix(0.9999 0.0138 -0.0138 0.9999 63.3784 -14.86)">
				<stop  offset="0" style="stop-color:#311944"/>
				<stop  offset="1" style="stop-color:#893976"/>
			</linearGradient>
			<path style="fill:url(#SVGID_00000091727487560125019340000018153597717338312859_);" d="M1064.785,2244.234
				c4.553,93.405,17.926,173.14,33.139,238.141c16.365,69.925,25.282,81.877,30.959,130.351
				c12.349,105.48-21.389,121.341-25.081,240.944c-4.078,132.066,33.249,236.16,47.896,275.858
				c12.806,34.706,26.031,62.67,35.942,82.078c12.321,10.286,30.727,5.84,50.139,1.457c4.618-119.808,11.157-232.604,15.775-352.411
				c19.304-180.498,38.607-360.989,57.911-541.485C1229.238,2294.187,1147.012,2269.214,1064.785,2244.234z"/>
			
				<linearGradient id="SVGID_00000153707746828847351520000016712533903919650438_" gradientUnits="userSpaceOnUse" x1="1153.6302" y1="2341.7532" x2="1111.7666" y2="3283.6863" gradientTransform="matrix(0.9999 0.0138 -0.0138 0.9999 63.3784 -14.86)">
				<stop  offset="0" style="stop-color:#311944"/>
				<stop  offset="1" style="stop-color:#893976"/>
			</linearGradient>
			<path style="opacity:0.3;fill:url(#SVGID_00000153707746828847351520000016712533903919650438_);" d="M1237.78,3213.063
				c4.618-119.808,11.157-232.604,15.775-352.411c19.304-180.498,38.607-360.989,57.911-541.485
				c-82.227-24.98-164.453-49.953-246.68-74.933c0.302,6.185,0.741,12.146,1.116,18.216
				c116.693,97.028,140.804,175.358,140.838,229.138c0.042,65.227-34.917,98.311-25.924,192.692
				c6.431,67.483,27.004,78.955,28.304,139.948c1.673,78.538-31.088,123.42-46.532,169.156
				c-14.924,44.205-19.24,106.454,13.308,194.162c4.22,9.039,8.2,17.123,11.745,24.06
				C1199.961,3221.889,1218.367,3217.449,1237.78,3213.063z"/>
			
				<linearGradient id="SVGID_00000121962911551590544550000010079376093068246460_" gradientUnits="userSpaceOnUse" x1="1791.7964" y1="2742.47" x2="1024.3164" y2="2707.584" gradientTransform="matrix(0.9999 0.0138 -0.0138 0.9999 63.3784 -14.86)">
				<stop  offset="0" style="stop-color:#311944"/>
				<stop  offset="1" style="stop-color:#893976"/>
			</linearGradient>
			<path style="fill:url(#SVGID_00000121962911551590544550000010079376093068246460_);" d="M1211.283,2331.159
				c62.21,100.076,97.26,179.144,116.42,228.022c11.688,29.819,22.365,60.91,25.578,101.915
				c3.934,50.236-5.181,91.78-13.282,118.427c-11.896,34.173-22.454,73.96-28.65,118.781
				c-20.097,145.359,16.431,265.856,44.467,335.002c14.626,5.061,29.255,10.128,43.881,15.189
				c30.894-92.658,68.358-223.964,93.817-385.444c13.905-88.197,24.491-157.36,22.727-244.887
				c-1.859-92.319-18.12-238.057-97.396-410.902C1349.656,2248.56,1280.469,2289.86,1211.283,2331.159z"/>
			
				<linearGradient id="SVGID_00000054227630801744222130000017930594780156594068_" gradientUnits="userSpaceOnUse" x1="655.8823" y1="2943.5479" x2="1200.108" y2="1780.6726" gradientTransform="matrix(0.9999 0.0138 -0.0138 0.9999 63.3784 -14.86)">
				<stop  offset="0" style="stop-color:#FF9085"/>
				<stop  offset="1" style="stop-color:#FB6FBB"/>
			</linearGradient>
			<path style="fill:url(#SVGID_00000054227630801744222130000017930594780156594068_);" d="M1227.684,1531.336
				c92.624,13.87,163.236,28.86,195.642,76.52c34.226,50.342-17.626,89.901-29.546,202.217
				c-18.252,171.956,81.717,233.901,57.053,407.179c-8.31,58.384-27.128,103.807-40.171,130.835
				c-29.299,24.964-75.986,59.171-139.809,83.047c-92.875,34.741-139.443,16.702-265.19,26.597
				c-205.68,16.183-235.232,76.572-329.057,41.84c-94.827-35.103-165.034-133.944-146.011-177.233
				c11.394-25.922,49.414-10.704,102.773-43.375c68.768-42.106,55.882-97.288,111.363-146.051
				c79.692-70.041,159.241-2.741,227.381-63.62c68.926-61.587,74.174-207.867,42.463-294.202
				c-20.713-56.391-22.401-118.162-38.118-176.142c-1.308-4.818-2.419-12.521,0.403-21.346
				c10.791-33.749,71.956-41.494,118.199-46.915C1165.589,1522.42,1220.068,1530.192,1227.684,1531.336z"/>
			
				<linearGradient id="SVGID_00000152949884215794060360000018222237223427911331_" gradientUnits="userSpaceOnUse" x1="1316.1392" y1="1626.0889" x2="1741.2521" y2="2500.2654" gradientTransform="matrix(-0.9823 -0.1875 -0.1875 0.9823 3111.8684 295.6934)">
				<stop  offset="0" style="stop-color:#FF9085"/>
				<stop  offset="1" style="stop-color:#FB6FBB"/>
			</linearGradient>
			<path style="opacity:0.3;fill:url(#SVGID_00000152949884215794060360000018222237223427911331_);" d="M686.015,2434.307
				c28.104-19.61,11.507-73.142,53.121-102.641c38.625-27.378,69.938,6.673,127.32-12.273
				c73.598-24.303,68.195-95.546,138.704-119.836c50.703-17.465,66.804,14.793,140.474,14.622
				c73.544-0.169,169.264-32.576,228.618-111.814c25.22-33.668,38.951-69.305,46.135-102.132
				c21.021,63.083,43.683,124.016,30.445,217.02c-8.31,58.384-27.128,103.807-40.171,130.835
				c-29.299,24.964-75.986,59.171-139.809,83.045c-92.873,34.742-139.443,16.704-265.19,26.599
				c-205.68,16.183-235.232,76.572-329.057,41.84c-60.604-22.434-111.017-70.876-134.643-114.238
				C624.622,2442.79,665.618,2448.541,686.015,2434.307z"/>
			
				<linearGradient id="SVGID_00000161611625659093437070000014479134669017755535_" gradientUnits="userSpaceOnUse" x1="1255.6224" y1="1434.9541" x2="1157.4468" y2="1593.7676" gradientTransform="matrix(0.9999 0.0138 -0.0138 0.9999 63.3784 -14.86)">
				<stop  offset="0" style="stop-color:#FFC444"/>
				<stop  offset="0.9964" style="stop-color:#F36F56"/>
			</linearGradient>
			<path style="fill:url(#SVGID_00000161611625659093437070000014479134669017755535_);" d="M1277.563,1370.48
				c0,0,26.455,47.194,28.777,80.659c2.324,33.463-35.534,31.839-35.534,31.839l1.873,21.101
				c1.598,18.013,13.644,33.4,30.746,39.277l15.044,5.168c0,0-96.92,22.935-150.896-13.49l15.29-1.829
				c21.65-2.588,38.477-20.078,40.225-41.814l0.729-9.064C1223.817,1482.329,1204.688,1378.272,1277.563,1370.48z"/>
			<g>
				
					<linearGradient id="SVGID_00000003784619869335961850000009652020466170535808_" gradientUnits="userSpaceOnUse" x1="1621.2554" y1="1680.8479" x2="1423.3688" y2="2000.9585" gradientTransform="matrix(0.9999 0.0138 -0.0138 0.9999 63.3784 -14.86)">
					<stop  offset="0" style="stop-color:#444B8C"/>
					<stop  offset="0.9964" style="stop-color:#26264F"/>
				</linearGradient>
				<path style="fill:url(#SVGID_00000003784619869335961850000009652020466170535808_);" d="M1432.391,1899.655l120.404-268.728
					c1.487-3.318,4.966-5.274,8.574-4.82l210.534,26.545c5.621,0.708,8.879,6.736,6.39,11.825l-141.961,290.367
					c-1.709,3.497-5.628,5.325-9.407,4.391l-187.443-46.353L1432.391,1899.655z"/>
				
					<linearGradient id="SVGID_00000034078693775504403730000014763665285886759345_" gradientUnits="userSpaceOnUse" x1="1641.7466" y1="1696.3252" x2="1470.8047" y2="2017.2766">
					<stop  offset="0" style="stop-color:#FFC444"/>
					<stop  offset="0.9964" style="stop-color:#F36F56"/>
				</linearGradient>
				<path style="fill:url(#SVGID_00000034078693775504403730000014763665285886759345_);" d="M1465.521,1867.12l97.491-217.588
					c1.204-2.687,4.021-4.271,6.942-3.903l170.467,21.494c4.552,0.573,7.189,5.455,5.174,9.576l-114.945,235.107
					c-1.384,2.832-4.557,4.312-7.616,3.555l-151.773-37.531L1465.521,1867.12z"/>
				
					<linearGradient id="SVGID_00000121984093898533948380000006721778362858202046_" gradientUnits="userSpaceOnUse" x1="1601.0499" y1="1660.3135" x2="1648.1444" y2="1562.6359" gradientTransform="matrix(0.9999 0.0138 -0.0138 0.9999 63.3784 -14.86)">
					<stop  offset="0" style="stop-color:#AA80F9"/>
					<stop  offset="0.9964" style="stop-color:#6165D7"/>
				</linearGradient>
				<path style="fill:url(#SVGID_00000121984093898533948380000006721778362858202046_);" d="M1598.357,1648.218l7.725-17.442
					c1.074-2.424,3.6-3.866,6.234-3.556l87.606,10.304c4.068,0.479,6.493,4.777,4.799,8.505l-8.632,18.99
					c-1.105,2.432-3.676,3.851-6.323,3.49l-86.7-11.853C1599.079,1656.112,1596.727,1651.898,1598.357,1648.218z"/>
				<path style="fill:#F4F7FA;" d="M1717.844,1707.05c-0.138-0.002-0.266-0.017-0.402-0.034l-154.406-19.811
					c-1.911-0.244-3.264-1.993-3.02-3.899c0.252-1.918,2.063-3.242,3.905-3.012l154.406,19.811c1.911,0.245,3.264,1.994,3.02,3.899
					C1721.119,1705.788,1719.587,1707.075,1717.844,1707.05z"/>
				<path style="fill:#F4F7FA;" d="M1709.922,1722.641c-0.143-0.002-0.292-0.017-0.436-0.034l-153.629-21.312
					c-1.911-0.259-3.242-2.022-2.979-3.939c0.259-1.904,2.001-3.23,3.932-2.971l153.628,21.312c1.911,0.26,3.244,2.021,2.978,3.939
					C1713.176,1721.391,1711.651,1722.664,1709.922,1722.641z"/>
				<path style="fill:#F4F7FA;" d="M1632.62,1747.153c-0.177-0.002-0.353-0.019-0.53-0.048l-83.773-13.955
					c-1.905-0.313-3.189-2.115-2.869-4.018c0.312-1.891,2.143-3.187,4.012-2.863l83.775,13.957c1.903,0.312,3.187,2.116,2.868,4.02
					C1635.82,1745.958,1634.31,1747.176,1632.62,1747.153z"/>
			</g>
			
				<linearGradient id="SVGID_00000102503966417061202860000001657325566224043146_" gradientUnits="userSpaceOnUse" x1="1663.1201" y1="1807.3578" x2="1615.6372" y2="1884.1682" gradientTransform="matrix(0.9999 0.0138 -0.0138 0.9999 63.3784 -14.86)">
				<stop  offset="0" style="stop-color:#FFC444"/>
				<stop  offset="0.9964" style="stop-color:#F36F56"/>
			</linearGradient>
			<path style="fill:url(#SVGID_00000102503966417061202860000001657325566224043146_);" d="M1671.074,1883.782
				c0,0,34.308-23.334,38.309-39.783c4.001-16.45,2.997-47.401,2.997-47.401l-19.998,43.602c0,0-9.663-2.77-13.826-17.138
				c-4.163-14.37-11.198-1.208-8.357,9.647C1673.041,1843.563,1671.074,1883.782,1671.074,1883.782z"/>
			
				<linearGradient id="SVGID_00000003078429408427533210000010804465192352290461_" gradientUnits="userSpaceOnUse" x1="900.1356" y1="3057.8933" x2="1444.3708" y2="1894.9979" gradientTransform="matrix(0.9999 0.0138 -0.0138 0.9999 63.3784 -14.86)">
				<stop  offset="0" style="stop-color:#FF9085"/>
				<stop  offset="1" style="stop-color:#FB6FBB"/>
			</linearGradient>
			<path style="fill:url(#SVGID_00000003078429408427533210000010804465192352290461_);" d="M1406.915,1591.637
				c18.121,11.039,45.443,30.415,69.594,61.678c68.707,88.943,41.922,183.701,98.759,217.216
				c16.254,9.587,44.785,17.369,96.296-0.849l19.744,10.502c0,0,24.115,122.657-124.827,127.243
				c-148.942,4.592-223.151-180.571-223.151-180.571L1406.915,1591.637z"/>
			
				<linearGradient id="SVGID_00000127002518418220748580000011379504844714970270_" gradientUnits="userSpaceOnUse" x1="710.375" y1="2100.1638" x2="1107.2804" y2="1252.0756" gradientTransform="matrix(0.9999 0.0138 -0.0138 0.9999 63.3784 -14.86)">
				<stop  offset="0" style="stop-color:#444B8C"/>
				<stop  offset="0.9964" style="stop-color:#26264F"/>
			</linearGradient>
			<path style="fill:url(#SVGID_00000127002518418220748580000011379504844714970270_);" d="M1263.368,1418.279
				c-5.041-0.309-9.336-6.603-12.741-4.632c-3.575,2.063-2.974,11.359,0.31,17.824c2.693,5.297,6.963,8.233,9.333,9.594
				c-3.771,5.461-8.542,13.926-10.367,24.913c-4.042,24.299,9.241,43.487,14.833,54.761
				c25.217,50.828-10.559,132.808-50.856,174.685c-32.748,34.04-48.649,20.976-68.042,48.62
				c-37.751,53.803,17.17,110.874-1.411,182.598c-28.254,109.06-198.738,144.981-205.807,146.383
				c-2.785,0.554-4.655,0.904-7.556,1.428c-76.527,13.846-192.516,34.832-275.832-26.436
				c-62.336-45.837-92.221-127.306-89.126-199.693c0.812-19.041,5.025-91.345,62.575-151.517
				c9.136-9.55,63.229-65.976,137.911-68.247c39.556-1.204,47.833,12.566,77.906,3.297c41.171-12.69,65.878-50.899,81.208-74.598
				c28.193-43.598,16.165-52.519,36.658-74.104c40.158-42.286,89.011-10.803,132.067-48.287
				c42.444-36.947,15.324-85.253,56.37-117.327c42.343-33.077,124.901-23.616,143.269,14.3
				C1309.858,1364.42,1278.823,1419.221,1263.368,1418.279z"/>
		</g>
	</g>
</g>
</svg>
