<?xml version="1.0" encoding="utf-8"?>
<!-- Generator: Adobe Illustrator 27.5.0, SVG Export Plug-In . SVG Version: 6.00 Build 0)  -->
<svg version="1.1" xmlns="http://www.w3.org/2000/svg" xmlns:xlink="http://www.w3.org/1999/xlink" x="0px" y="0px"
	 viewBox="0 0 500 500" style="enable-background:new 0 0 500 500;" xml:space="preserve">
<g id="Background_Simple">
	<g>
		<path style="fill:#92E3A9;" d="M332.505,63.829c-21.819,12.483-37.202,33.474-55.859,50.32
			c-23.037,20.801-51.585,35.442-81.919,42.013c-24.955,5.406-51.114,5.483-75.206,13.943c-46.96,16.49-79.195,65.433-80.05,115.196
			c-0.855,49.763,27.498,97.97,69.106,125.282c14.129,9.275,29.689,16.366,45.958,20.945c30.605,8.614,63.053,8.232,94.676,4.94
			c54.623-5.687,111.881-36.703,146.305-80.435c15.355-19.507,28.317-40.882,38.644-63.453
			c16.957-37.064,26.832-77.41,28.52-118.151c1.45-35.008-0.029-73.8-27.768-99.304C407.236,49.678,365.062,45.202,332.505,63.829z"
			/>
		<path style="opacity:0.7;fill:#FFFFFF;" d="M332.505,63.829c-21.819,12.483-37.202,33.474-55.859,50.32
			c-23.037,20.801-51.585,35.442-81.919,42.013c-24.955,5.406-51.114,5.483-75.206,13.943c-46.96,16.49-79.195,65.433-80.05,115.196
			c-0.855,49.763,27.498,97.97,69.106,125.282c14.129,9.275,29.689,16.366,45.958,20.945c30.605,8.614,63.053,8.232,94.676,4.94
			c54.623-5.687,111.881-36.703,146.305-80.435c15.355-19.507,28.317-40.882,38.644-63.453
			c16.957-37.064,26.832-77.41,28.52-118.151c1.45-35.008-0.029-73.8-27.768-99.304C407.236,49.678,365.062,45.202,332.505,63.829z"
			/>
	</g>
</g>
<g id="Shadow">
	<g>
		<ellipse style="fill:#92E3A9;" cx="275.101" cy="416.247" rx="179.334" ry="48.296"/>
		<ellipse style="opacity:0.5;fill:#FFFFFF;" cx="275.101" cy="416.247" rx="179.334" ry="48.296"/>
	</g>
</g>
<g id="Window">
	<g>
		<path style="fill:#FFFFFF;" d="M305.913,77.248v118.184c0,4.944-4.007,8.951-8.951,8.951H86.131c-4.944,0-8.951-4.007-8.951-8.951
			V77.248c0-4.944,4.007-8.951,8.951-8.951h210.831C301.906,68.297,305.913,72.304,305.913,77.248z"/>
		<path style="fill:#92E3A9;" d="M305.913,77.248v3.544H77.18v-3.544c0-4.944,4.007-8.951,8.951-8.951h210.831
			C301.906,68.297,305.913,72.304,305.913,77.248z"/>
		<path style="fill:none;stroke:#263238;stroke-linecap:round;stroke-linejoin:round;stroke-miterlimit:10;" d="M305.913,77.248
			v118.184c0,4.944-4.007,8.951-8.951,8.951H86.131c-4.944,0-8.951-4.007-8.951-8.951V77.248c0-4.944,4.007-8.951,8.951-8.951
			h210.831C301.906,68.297,305.913,72.304,305.913,77.248z"/>
		<path style="fill:none;stroke:#263238;stroke-linecap:round;stroke-linejoin:round;stroke-miterlimit:10;" d="M305.913,77.248
			v3.544H77.18v-3.544c0-4.944,4.007-8.951,8.951-8.951h210.831C301.906,68.297,305.913,72.304,305.913,77.248z"/>
		<path style="fill:#263238;" d="M102.867,74.544c0,1.262-1.023,2.285-2.285,2.285c-1.262,0-2.285-1.023-2.285-2.285
			c0-1.262,1.023-2.285,2.285-2.285C101.844,72.259,102.867,73.282,102.867,74.544z"/>
		<path style="fill:#263238;" d="M114.818,74.544c0,1.262-1.023,2.285-2.285,2.285c-1.262,0-2.285-1.023-2.285-2.285
			c0-1.262,1.023-2.285,2.285-2.285C113.795,72.259,114.818,73.282,114.818,74.544z"/>
		<circle style="fill:#263238;" cx="124.484" cy="74.544" r="2.285"/>
		<g>
			<path style="fill:none;stroke:#263238;stroke-linecap:round;stroke-linejoin:round;stroke-miterlimit:10;" d="M159.103,129.186
				H94.435c-2.038,0-3.69-1.652-3.69-3.69V94.387c0-2.038,1.652-3.69,3.69-3.69h64.668c2.038,0,3.69,1.652,3.69,3.69v31.109
				C162.793,127.534,161.141,129.186,159.103,129.186z"/>
			<g>
				
					<line style="fill:none;stroke:#263238;stroke-linecap:round;stroke-linejoin:round;stroke-miterlimit:10;" x1="94.981" y1="124.347" x2="157.454" y2="124.347"/>
				<rect x="99.619" y="116.998" style="fill:#92E3A9;stroke:#263238;stroke-miterlimit:10;" width="7.248" height="7.248"/>
				<rect x="110.23" y="107.468" style="fill:#92E3A9;stroke:#263238;stroke-miterlimit:10;" width="7.248" height="16.879"/>
				<rect x="122.181" y="110.371" style="fill:#92E3A9;stroke:#263238;stroke-miterlimit:10;" width="7.248" height="14.146"/>
				<rect x="134.736" y="96.282" style="fill:#92E3A9;stroke:#263238;stroke-miterlimit:10;" width="7.248" height="27.751"/>
				<rect x="147.29" y="96.495" style="fill:#92E3A9;stroke:#263238;stroke-miterlimit:10;" width="7.248" height="27.751"/>
			</g>
		</g>
		<g>
			<circle style="fill:#92E3A9;stroke:#263238;stroke-miterlimit:10;" cx="252.115" cy="110.91" r="20.27"/>
			<g>
				<path style="fill:#263238;" d="M253.776,123.555v2.076h-3.397v-2.076c-2.869-0.717-4.718-3.133-4.718-6.304v-0.944l3.85-0.415
					v0.981c0,1.925,0.981,3.095,2.567,3.095c1.585,0,2.567-0.981,2.567-2.529c0-1.85-1.736-3.435-3.775-5.134
					c-2.416-2-4.832-4.379-4.832-7.738c0-3.284,1.585-5.624,4.341-6.304v-2.076h3.397v2.076c2.793,0.642,4.416,2.982,4.416,6.341
					v0.679l-3.85,0.415v-0.755c0-2.038-0.793-3.095-2.189-3.095s-2.189,0.868-2.189,2.529c0,1.85,1.774,3.397,3.775,5.134
					c2.378,2.038,4.831,4.379,4.831,7.738C258.57,120.459,256.682,122.875,253.776,123.555z"/>
			</g>
		</g>
		<g>
			<g>
				
					<line style="fill:none;stroke:#263238;stroke-linecap:round;stroke-linejoin:round;stroke-miterlimit:10;" x1="89.058" y1="148.854" x2="94.981" y2="148.854"/>
				
					<line style="fill:none;stroke:#263238;stroke-linecap:round;stroke-linejoin:round;stroke-miterlimit:10;" x1="89.058" y1="160.295" x2="94.981" y2="160.295"/>
				
					<line style="fill:none;stroke:#263238;stroke-linecap:round;stroke-linejoin:round;stroke-miterlimit:10;" x1="89.058" y1="171.736" x2="94.981" y2="171.736"/>
				
					<line style="fill:none;stroke:#263238;stroke-linecap:round;stroke-linejoin:round;stroke-miterlimit:10;" x1="89.058" y1="183.177" x2="94.981" y2="183.177"/>
			</g>
			<g>
				
					<line style="fill:none;stroke:#263238;stroke-linecap:round;stroke-linejoin:round;stroke-miterlimit:10;" x1="108.027" y1="191.824" x2="108.027" y2="187.225"/>
				
					<line style="fill:none;stroke:#263238;stroke-linecap:round;stroke-linejoin:round;stroke-miterlimit:10;" x1="117.41" y1="191.824" x2="117.41" y2="187.225"/>
				
					<line style="fill:none;stroke:#263238;stroke-linecap:round;stroke-linejoin:round;stroke-miterlimit:10;" x1="126.793" y1="191.824" x2="126.793" y2="187.225"/>
				
					<line style="fill:none;stroke:#263238;stroke-linecap:round;stroke-linejoin:round;stroke-miterlimit:10;" x1="136.175" y1="191.824" x2="136.175" y2="187.225"/>
				
					<line style="fill:none;stroke:#263238;stroke-linecap:round;stroke-linejoin:round;stroke-miterlimit:10;" x1="145.558" y1="191.824" x2="145.558" y2="187.225"/>
				
					<line style="fill:none;stroke:#263238;stroke-linecap:round;stroke-linejoin:round;stroke-miterlimit:10;" x1="154.94" y1="191.824" x2="154.94" y2="187.225"/>
				
					<line style="fill:none;stroke:#263238;stroke-linecap:round;stroke-linejoin:round;stroke-miterlimit:10;" x1="164.323" y1="191.824" x2="164.323" y2="187.225"/>
				
					<line style="fill:none;stroke:#263238;stroke-linecap:round;stroke-linejoin:round;stroke-miterlimit:10;" x1="173.705" y1="191.824" x2="173.705" y2="187.225"/>
				
					<line style="fill:none;stroke:#263238;stroke-linecap:round;stroke-linejoin:round;stroke-miterlimit:10;" x1="183.088" y1="191.824" x2="183.088" y2="187.225"/>
				
					<line style="fill:none;stroke:#263238;stroke-linecap:round;stroke-linejoin:round;stroke-miterlimit:10;" x1="192.47" y1="191.824" x2="192.47" y2="187.225"/>
				
					<line style="fill:none;stroke:#263238;stroke-linecap:round;stroke-linejoin:round;stroke-miterlimit:10;" x1="201.853" y1="191.824" x2="201.853" y2="187.225"/>
				
					<line style="fill:none;stroke:#263238;stroke-linecap:round;stroke-linejoin:round;stroke-miterlimit:10;" x1="211.236" y1="191.824" x2="211.236" y2="187.225"/>
				
					<line style="fill:none;stroke:#263238;stroke-linecap:round;stroke-linejoin:round;stroke-miterlimit:10;" x1="220.618" y1="191.824" x2="220.618" y2="187.225"/>
				
					<line style="fill:none;stroke:#263238;stroke-linecap:round;stroke-linejoin:round;stroke-miterlimit:10;" x1="230.001" y1="191.824" x2="230.001" y2="187.225"/>
				
					<line style="fill:none;stroke:#263238;stroke-linecap:round;stroke-linejoin:round;stroke-miterlimit:10;" x1="239.383" y1="191.824" x2="239.383" y2="187.225"/>
				
					<line style="fill:none;stroke:#263238;stroke-linecap:round;stroke-linejoin:round;stroke-miterlimit:10;" x1="248.41" y1="191.824" x2="248.41" y2="187.225"/>
				
					<line style="fill:none;stroke:#263238;stroke-linecap:round;stroke-linejoin:round;stroke-miterlimit:10;" x1="257.437" y1="191.824" x2="257.437" y2="187.225"/>
				
					<line style="fill:none;stroke:#263238;stroke-linecap:round;stroke-linejoin:round;stroke-miterlimit:10;" x1="266.464" y1="191.824" x2="266.464" y2="187.225"/>
			</g>
			<path style="fill:none;stroke:#92E3A9;stroke-linecap:round;stroke-linejoin:round;stroke-miterlimit:10;" d="M290.344,141.848
				v44.464c0,3.045-3.1,5.511-6.926,5.511H95.984c-2.543,0-4.771-1.089-5.969-2.717c-0.605-0.819-0.956-1.773-0.956-2.794v-44.464
				c0-3.045,3.1-5.511,6.926-5.511h187.435C287.244,136.337,290.344,138.803,290.344,141.848z"/>
			<g>
				<g>
					<path style="fill:#263238;" d="M233.3,55.742l-59.832,80.595l-22.883,30.822l-24.993-15.917l-30.581,40.582h-0.443
						c-2.023,0-3.796-1.089-4.75-2.717l34.367-45.611l24.973,15.897l17.111-23.056l62.385-84.034L233.3,55.742z"/>
				</g>
				<polygon style="fill:#263238;" points="218.117,56.764 240.114,43.429 234.029,66.489 230.153,55.821 				"/>
			</g>
		</g>
	</g>
</g>
<g id="Floor">
	<g>
		<g>
			<polyline style="fill:none;stroke:#263238;stroke-linecap:round;stroke-linejoin:round;stroke-miterlimit:10;" points="
				426.225,310.522 74.537,310.522 35.12,345.568 			"/>
			<g>
				
					<line style="fill:none;stroke:#263238;stroke-linecap:round;stroke-linejoin:round;stroke-miterlimit:10;" x1="74.759" y1="285.979" x2="74.759" y2="217.827"/>
				
					<line style="fill:none;stroke:#263238;stroke-linecap:round;stroke-linejoin:round;stroke-miterlimit:10;" x1="74.759" y1="306.565" x2="74.759" y2="293.383"/>
			</g>
		</g>
		<g id="freepik--Plants--inject-120">
			<path style="fill:#92E3A9;" d="M405.056,144.722c0,0,0-4.118-5.769-9.887c-5.769-5.769-9.469-9.058-9.469-9.058
				s-2.884,9.469,2.466,15.237c3.938,4.067,8.21,7.796,12.771,11.148V144.722z"/>
			<path style="fill:#92E3A9;" d="M396.689,170.446c0,0,0-4.118-5.769-9.887c-5.769-5.769-9.468-9.057-9.468-9.057
				s-2.885,9.469,2.466,15.238c3.94,4.064,8.212,7.793,12.771,11.148V170.446z"/>
			<path style="fill:#92E3A9;" d="M404.694,151.738c0,0,0.432-4.097,6.779-9.225c6.347-5.128,10.374-8.005,10.374-8.005
				s1.867,9.754-4.069,14.889c-4.344,3.62-8.984,6.869-13.872,9.712L404.694,151.738z"/>
			<path style="fill:#92E3A9;" d="M394.585,182.116c0,0,0.864-4.027,7.706-8.458c6.842-4.431,11.148-6.877,11.148-6.877
				s0.836,9.866-5.574,14.387c-4.7,3.14-9.655,5.88-14.813,8.193L394.585,182.116z"/>
			<path style="fill:#92E3A9;" d="M396.487,215.232c0,0,0-4.118,5.762-9.88c5.762-5.762,9.476-9.057,9.476-9.057
				s2.884,9.475-2.473,15.237c-3.935,4.067-8.204,7.796-12.764,11.148V215.232z"/>
			<path style="fill:#92E3A9;" d="M396.389,223.32c0,0,0.585-4.076-4.306-10.604c-4.891-6.528-8.089-10.319-8.089-10.319
				s-4.18,8.967,0.286,15.439c3.322,4.574,7.021,8.862,11.057,12.82L396.389,223.32z"/>
			<path style="fill:#92E3A9;" d="M390.704,247.274c0,0,0-4.118,5.762-9.88c5.762-5.762,9.475-9.057,9.475-9.057
				s2.884,9.475-2.473,15.237c-3.934,4.067-8.204,7.796-12.764,11.148V247.274z"/>
			<path style="fill:#92E3A9;" d="M394.55,268.998c0,0-1.038-3.985,3.087-11.036c4.125-7.051,6.87-11.148,6.87-11.148
				s5.184,8.437,1.47,15.37c-2.784,4.921-5.974,9.601-9.538,13.99L394.55,268.998z"/>
			<path style="fill:none;stroke:#263238;stroke-width:1.1775;stroke-linecap:round;stroke-linejoin:round;" d="M405.579,143.698
				c-0.293,4.287-0.821,8.555-1.582,12.785c-2.278,11.775-7.978,19.376-10.256,30.008c-2.278,10.632,4.264,24.344,2.515,38.007
				c-1.749,13.663-7.072,21.257-5.574,30.377c1.498,9.12,9.496,33.805,9.496,33.805"/>
			
				<line style="fill:none;stroke:#263238;stroke-width:1.1775;stroke-linecap:round;stroke-linejoin:round;" x1="404.638" y1="154.477" x2="410.853" y2="149.704"/>
			
				<line style="fill:none;stroke:#263238;stroke-width:1.1775;stroke-linecap:round;stroke-linejoin:round;" x1="404.924" y1="148.986" x2="402.325" y2="144.36"/>
			<path style="fill:none;stroke:#263238;stroke-width:1.1775;stroke-linecap:round;stroke-linejoin:round;" d="M394.09,185.976
				c0,0,5.198-3.902,10.548-7.803"/>
			<path style="fill:none;stroke:#263238;stroke-width:1.1775;stroke-linecap:round;stroke-linejoin:round;" d="M396.689,177.838
				c0,0-4.334-8.5-9.246-14.137"/>
			<path style="fill:none;stroke:#263238;stroke-width:1.1775;stroke-linecap:round;stroke-linejoin:round;" d="M396.689,221.091
				c2.978-5.473,6.733-10.486,11.148-14.882"/>
			<path style="fill:none;stroke:#263238;stroke-width:1.1775;stroke-linecap:round;stroke-linejoin:round;" d="M395.678,226.874
				c-1.58-3.721-3.465-7.305-5.637-10.716c-3.038-4.48-3.484-5.058-3.484-5.058"/>
			<path style="fill:none;stroke:#263238;stroke-width:1.1775;stroke-linecap:round;stroke-linejoin:round;" d="M390.704,254.848
				c1.316-3.273,2.882-6.441,4.682-9.476c1.801-2.812,3.831-5.471,6.068-7.95"/>
			<path style="fill:none;stroke:#263238;stroke-width:1.1775;stroke-linecap:round;stroke-linejoin:round;" d="M396.431,276.168
				c0,0-0.606-4.933,1.561-9.12c2.167-4.187,4.619-9.685,5.637-11.844"/>
			<path style="fill:#92E3A9;" d="M367.301,199.743c0,0-0.453-2.578,2.543-6.821c2.996-4.243,4.954-6.723,4.954-6.723
				s2.836,5.623,0.104,9.824c-2.029,2.972-4.304,5.769-6.8,8.361L367.301,199.743z"/>
			<path style="fill:#92E3A9;" d="M375.341,214.967c0,0-0.453-2.585,2.536-6.828c2.989-4.243,4.961-6.71,4.961-6.71
				s2.836,5.63,0.105,9.824c-2.028,2.973-4.303,5.77-6.8,8.361L375.341,214.967z"/>
			<path style="fill:#92E3A9;" d="M368.29,204.105c0,0-0.697-2.522-5.253-5.044c-4.557-2.522-7.378-3.902-7.378-3.902
				s-0.112,6.27,4.18,8.904c3.119,1.794,6.382,3.325,9.754,4.577L368.29,204.105z"/>
			<path style="fill:#92E3A9;" d="M377.926,222.053c0,0-0.982-2.432-5.755-4.466c-4.773-2.034-7.748-3.093-7.748-3.093
				s0.55,6.271,5.079,8.41c3.289,1.458,6.694,2.64,10.179,3.532L377.926,222.053z"/>
			<path style="fill:#92E3A9;" d="M380.329,243.031c0,0-0.446-2.585-4.689-5.574c-4.243-2.989-6.925-4.654-6.925-4.654
				s-0.78,6.271,3.205,9.287c2.909,2.112,5.99,3.977,9.211,5.574L380.329,243.031z"/>
			<path style="fill:#92E3A9;" d="M381.263,248.089c0,0-0.808-2.494,1.547-7.114c2.355-4.619,3.957-7.35,3.957-7.35
				s3.602,5.17,1.498,9.712c-1.597,3.229-3.462,6.32-5.574,9.239L381.263,248.089z"/>
			<path style="fill:#92E3A9;" d="M388.502,268.922c0,0,0.3-2.606,4.362-5.832c4.062-3.226,6.647-5.037,6.647-5.037
				s1.136,6.194-2.668,9.455c-2.784,2.277-5.753,4.319-8.876,6.103L388.502,268.922z"/>
			<path style="fill:#92E3A9;" d="M387.429,262.498c0,0-0.446-2.585-4.689-5.574c-4.243-2.989-6.918-4.654-6.918-4.654
				s-0.78,6.271,3.198,9.287c2.911,2.113,5.994,3.977,9.218,5.574L387.429,262.498z"/>
			<path style="fill:#92E3A9;" d="M387.373,276.537c0,0,0.223-2.613-3.121-6.577c-3.344-3.964-5.518-6.271-5.518-6.271
				s-2.341,5.853,0.746,9.796c2.279,2.789,4.787,5.383,7.497,7.755L387.373,276.537z"/>
			<path style="fill:none;stroke:#263238;stroke-width:1.1775;stroke-linecap:round;stroke-linejoin:round;" d="M366.855,199.137
				c0.649,2.659,1.444,5.281,2.383,7.852c2.703,7.135,7.1,11.28,9.685,17.704c2.585,6.424,0,15.725,2.55,24.1
				c2.55,8.375,6.744,12.541,6.779,18.45c0.035,5.908-2.285,22.233-2.285,22.233"/>
			
				<line style="fill:none;stroke:#263238;stroke-width:1.1775;stroke-linecap:round;stroke-linejoin:round;" x1="368.617" y1="205.812" x2="364.207" y2="203.499"/>
			
				<line style="fill:none;stroke:#263238;stroke-width:1.1775;stroke-linecap:round;stroke-linejoin:round;" x1="367.844" y1="202.405" x2="368.973" y2="199.221"/>
			<path style="fill:none;stroke:#263238;stroke-width:1.1775;stroke-linecap:round;stroke-linejoin:round;" d="M378.657,224.421
				c0,0-3.686-1.881-7.462-3.748"/>
			<path style="fill:none;stroke:#263238;stroke-width:1.1775;stroke-linecap:round;stroke-linejoin:round;" d="M376.142,219.642
				c1.083-3.425,2.512-6.73,4.264-9.866"/>
			<path style="fill:none;stroke:#263238;stroke-width:1.1775;stroke-linecap:round;stroke-linejoin:round;" d="M380.838,246.724
				c-2.458-3.11-5.354-5.846-8.598-8.124"/>
			<path style="fill:none;stroke:#263238;stroke-width:1.1775;stroke-linecap:round;stroke-linejoin:round;" d="M382.099,250.242
				c0.585-2.5,1.378-4.947,2.369-7.316c1.393-3.142,1.63-3.553,1.63-3.553"/>
			<path style="fill:none;stroke:#263238;stroke-width:1.1775;stroke-linecap:round;stroke-linejoin:round;" d="M388.056,271.701
				c0,0,2.919-3.581,4.745-4.926c1.096-0.811,2.126-1.708,3.079-2.682"/>
			<path style="fill:none;stroke:#263238;stroke-width:1.1775;stroke-linecap:round;stroke-linejoin:round;" d="M388.251,267.242
				c-1.182-1.909-2.507-3.726-3.964-5.435c-1.435-1.567-2.996-3.014-4.668-4.327"/>
			<path style="fill:none;stroke:#263238;stroke-width:1.1775;stroke-linecap:round;stroke-linejoin:round;" d="M386.976,281.24
				c-0.146-2-0.824-3.924-1.965-5.574c-1.818-2.397-3.957-5.574-4.821-6.821"/>
			<path style="fill:#263238;" d="M406.178,317.644h-26.26c-1.081,0-1.958-0.877-1.958-1.958l-3.769-29.061h37.714l-3.769,29.061
				C408.136,316.767,407.259,317.644,406.178,317.644z"/>
			<path style="fill:#263238;" d="M411.571,291.544h-37.38c-1.621,0-2.939-1.306-2.954-2.926l0,0c0-1.628,1.319-2.947,2.947-2.947
				c0.002,0,0.005,0,0.007,0h37.38c1.628-0.004,2.95,1.313,2.954,2.94c0,0.002,0,0.005,0,0.007l0,0
				C414.51,290.239,413.191,291.544,411.571,291.544z"/>
		</g>
	</g>
</g>
<g id="Coins">
	<g>
		<g>
			<path style="fill:#92E3A9;" d="M327.298,175.315c0,17.228-12.015,31.664-28.131,35.369c-0.04,0.013-0.066,0.013-0.106,0.026
				c-0.953,0.212-1.905,0.397-2.885,0.543c-1.694,0.238-3.427,0.37-5.187,0.37c-20.06,0-36.322-16.262-36.322-36.309
				c0-19.61,15.548-35.594,34.985-36.282c0.331-0.027,0.675-0.027,1.019-0.027c0.106-0.013,0.212-0.013,0.318-0.013
				c0.119,0,0.251,0,0.37,0.013c5.055,0.04,9.858,1.125,14.224,3.057C318.366,147.673,327.298,160.455,327.298,175.315z"/>
			<path style="opacity:0.4;fill:#FFFFFF;" d="M305.584,142.063c-41.932-2.183-42.131,44.367-42.131,44.367
				s-6.404-15.19,4.049-32.021c5.835-9.408,16.011-13.563,23.857-15.402C296.414,139.046,301.217,140.131,305.584,142.063z"/>
			<path style="fill:none;stroke:#263238;stroke-linecap:round;stroke-linejoin:round;stroke-miterlimit:10;" d="M327.298,175.315
				c0,17.268-12.068,31.73-28.237,35.395c-2.593,0.596-5.293,0.913-8.071,0.913c-20.06,0-36.322-16.262-36.322-36.309
				c0-19.61,15.548-35.594,34.985-36.282c0.437-0.026,0.887-0.04,1.336-0.04C311.035,138.993,327.298,155.255,327.298,175.315z"/>
			<path style="fill:none;stroke:#263238;stroke-linecap:round;stroke-linejoin:round;stroke-miterlimit:10;" d="M327.298,175.315
				c0,17.268-12.068,31.73-28.237,35.395c-0.437,0.027-0.886,0.04-1.336,0.04c-20.06,0-36.309-16.262-36.309-36.322
				c0-17.268,12.068-31.73,28.237-35.396c0.437-0.026,0.887-0.04,1.336-0.04C311.035,138.993,327.298,155.255,327.298,175.315z"/>
			<g>
				<path style="fill:none;stroke:#263238;stroke-miterlimit:10;" d="M303.5,198.04l0.941,3.835l-6.276,1.539l-0.941-3.835
					c-5.625-0.025-10.136-3.65-11.573-9.507l-0.427-1.743l6.924-2.512l0.444,1.813c0.872,3.557,3.215,5.274,6.144,4.555
					c2.928-0.719,4.297-2.976,3.596-5.835c-0.839-3.415-4.764-5.558-9.3-7.772c-5.369-2.601-10.909-5.9-12.431-12.105
					c-1.487-6.067,0.38-11.109,5.164-13.612l-0.941-3.835l6.275-1.539l0.941,3.835c5.451-0.081,9.509,3.508,11.031,9.713
					l0.308,1.255l-6.924,2.511l-0.342-1.394c-0.924-3.766-2.867-5.359-5.447-4.726c-2.579,0.633-3.652,2.595-2.898,5.664
					c0.837,3.415,4.816,5.471,9.298,7.772c5.317,2.69,10.91,5.901,12.432,12.106C310.953,190.149,308.561,195.467,303.5,198.04z"/>
				<path style="opacity:0.3;" d="M303.5,198.04l0.941,3.835l-6.276,1.539l-0.941-3.835c-5.625-0.025-10.136-3.65-11.573-9.507
					l-0.427-1.743l6.924-2.512l0.444,1.813c0.872,3.557,3.215,5.274,6.144,4.555c2.928-0.719,4.297-2.976,3.596-5.835
					c-0.839-3.415-4.764-5.558-9.3-7.772c-5.369-2.601-10.909-5.9-12.431-12.105c-1.487-6.067,0.38-11.109,5.164-13.612
					l-0.941-3.835l6.275-1.539l0.941,3.835c5.451-0.081,9.509,3.508,11.031,9.713l0.308,1.255l-6.924,2.511l-0.342-1.394
					c-0.924-3.766-2.867-5.359-5.447-4.726c-2.579,0.633-3.652,2.595-2.898,5.664c0.837,3.415,4.816,5.471,9.298,7.772
					c5.317,2.69,10.91,5.901,12.432,12.106C310.953,190.149,308.561,195.467,303.5,198.04z"/>
			</g>
			
				<line style="fill:none;stroke:#263238;stroke-linecap:round;stroke-linejoin:round;stroke-miterlimit:10;" x1="272.432" y1="206.529" x2="280.103" y2="206.177"/>
			
				<line style="fill:none;stroke:#263238;stroke-linecap:round;stroke-linejoin:round;stroke-miterlimit:10;" x1="268.74" y1="203.982" x2="275.435" y2="203.414"/>
			
				<line style="fill:none;stroke:#263238;stroke-linecap:round;stroke-linejoin:round;stroke-miterlimit:10;" x1="265.737" y1="201.289" x2="272.432" y2="200.722"/>
			
				<line style="fill:none;stroke:#263238;stroke-linecap:round;stroke-linejoin:round;stroke-miterlimit:10;" x1="264.822" y1="150.13" x2="270.554" y2="150.13"/>
			
				<line style="fill:none;stroke:#263238;stroke-linecap:round;stroke-linejoin:round;stroke-miterlimit:10;" x1="267.652" y1="147.486" x2="273.359" y2="147.227"/>
			
				<line style="fill:none;stroke:#263238;stroke-linecap:round;stroke-linejoin:round;stroke-miterlimit:10;" x1="271.226" y1="144.842" x2="277.249" y2="144.275"/>
			<path style="opacity:0.3;" d="M299.166,210.684c-0.04,0.013-0.066,0.013-0.106,0.026c-2.593,0.596-5.293,0.913-8.071,0.913
				c-20.06,0-36.322-16.262-36.322-36.309c0-19.61,15.548-35.594,34.985-36.282c0.331-0.027,0.675-0.027,1.019-0.027
				c-8.852,2.792-23.699,9.924-27.668,24.797C257.366,184.921,270.043,208.911,299.166,210.684z"/>
			<path style="opacity:0.1;" d="M327.298,175.315c0,17.228-12.015,31.664-28.131,35.369c-0.04,0.013-0.066,0.013-0.106,0.026
				c-0.953,0.212-1.905,0.397-2.885,0.543l9.408-69.19C318.366,147.673,327.298,160.455,327.298,175.315z"/>
		</g>
		<g>
			<path style="fill:#92E3A9;" d="M347.9,118.153c-6.034,8.535-17.043,11.472-26.305,7.635c-0.04-0.013-0.093-0.04-0.132-0.053
				c-0.688-0.291-1.376-0.622-2.051-0.992c-0.728-0.397-1.429-0.834-2.117-1.323c-9.911-7-12.266-20.708-5.266-30.619
				c6.735-9.527,19.663-12.068,29.454-6.007c0.172,0.093,0.331,0.199,0.49,0.304c0.225,0.132,0.45,0.291,0.675,0.45
				c0.344,0.238,0.675,0.49,0.992,0.754C352.69,95.473,354.661,108.599,347.9,118.153z"/>
			<path style="opacity:0.4;fill:#FFFFFF;" d="M314.762,118.452c0,0-3.596-10.57,1.18-18.348
				c5.993-9.758,15.188-14.202,27.696-11.802c0,0-6.783-4.578-18.132-1.329C314.159,90.221,308.07,105.836,314.762,118.452z"/>
			<path style="fill:none;stroke:#263238;stroke-linecap:round;stroke-linejoin:round;stroke-miterlimit:10;" d="M347.897,118.158
				c-6.028,8.529-17.038,11.46-26.304,7.626c-1.489-0.611-2.933-1.397-4.306-2.367c-9.908-7.003-12.264-20.713-5.266-30.614
				c6.846-9.686,20.106-12.154,29.947-5.708c0.225,0.139,0.452,0.29,0.674,0.447C352.545,94.54,354.9,108.25,347.897,118.158z"/>
			<path style="fill:none;stroke:#263238;stroke-linecap:round;stroke-linejoin:round;stroke-miterlimit:10;" d="M347.897,118.158
				c-6.028,8.529-17.038,11.46-26.304,7.626c-0.225-0.139-0.452-0.29-0.674-0.447c-9.908-7.003-12.257-20.708-5.254-30.616
				c6.028-8.529,17.038-11.46,26.304-7.626c0.225,0.139,0.452,0.29,0.674,0.447C352.545,94.54,354.9,108.25,347.897,118.158z"/>
			<g>
				<path style="fill:none;stroke:#263238;stroke-miterlimit:10;" d="M328.209,121.075l-0.874,2.223l-3.637-1.431l0.874-2.223
					c-2.77-1.976-3.732-5.341-2.397-8.736l0.398-1.01l4.297,1.176l-0.413,1.051c-0.811,2.062-0.253,3.727,1.445,4.395
					c1.697,0.667,3.161,0.03,3.813-1.627c0.778-1.98-0.413-4.409-1.88-7.086c-1.744-3.159-3.329-6.722-1.914-10.319
					c1.383-3.516,4.066-5.355,7.302-4.921l0.874-2.223l3.637,1.43l-0.874,2.223c2.72,1.863,3.473,5.052,2.058,8.649l-0.286,0.727
					l-4.297-1.176l0.318-0.808c0.858-2.182,0.454-3.648-1.041-4.235c-1.495-0.588-2.71,0.007-3.409,1.786
					c-0.779,1.979,0.469,4.384,1.88,7.085c1.688,3.185,3.329,6.724,1.914,10.32C334.646,119.78,331.608,121.572,328.209,121.075z"/>
				<path style="opacity:0.3;" d="M328.209,121.075l-0.874,2.223l-3.637-1.431l0.874-2.223c-2.77-1.976-3.732-5.341-2.397-8.736
					l0.398-1.01l4.297,1.176l-0.413,1.051c-0.811,2.062-0.253,3.727,1.445,4.395c1.697,0.667,3.161,0.03,3.813-1.627
					c0.778-1.98-0.413-4.409-1.88-7.086c-1.744-3.159-3.329-6.722-1.914-10.319c1.383-3.516,4.066-5.355,7.302-4.921l0.874-2.223
					l3.637,1.43l-0.874,2.223c2.72,1.863,3.473,5.052,2.058,8.649l-0.286,0.727l-4.297-1.176l0.318-0.808
					c0.858-2.182,0.454-3.648-1.041-4.235c-1.495-0.588-2.71,0.007-3.409,1.786c-0.779,1.979,0.469,4.384,1.88,7.085
					c1.688,3.185,3.329,6.724,1.914,10.32C334.646,119.78,331.608,121.572,328.209,121.075z"/>
			</g>
			<path style="opacity:0.3;" d="M341.482,86.793c-6.034-1.072-13.602-1.667-17.704,0.966c-7.529,4.83-12.213,10.916-12.147,20.787
				c0.066,9.871,9.289,16.791,9.289,16.791l0.542,0.397c-1.442-0.609-2.845-1.376-4.168-2.316c-9.911-7-12.266-20.708-5.266-30.619
				C318.763,83.273,331.691,80.733,341.482,86.793z"/>
			<path style="opacity:0.1;" d="M347.9,118.153c-6.034,8.535-17.043,11.472-26.305,7.635c-0.04-0.013-0.093-0.04-0.132-0.053
				c-0.688-0.291-1.376-0.622-2.051-0.992l24.228-36.441C352.69,95.473,354.661,108.599,347.9,118.153z"/>
		</g>
	</g>
</g>
<g id="Character">
	<g>
		<g>
			<g>
				<path style="fill:#92E3A9;" d="M336.581,399.76c-9.365,11.118-20.361,20.86-32.843,28.349
					c-3.909,2.338-7.903,4.421-11.995,6.259c-28.41,12.774-60.791,13.602-91.076,6.259C137.001,425.199,103.22,369,98.934,306.614
					c-1.157-16.866-3.738-35.072,3.093-51.11c6.771-15.904,20.641-25.987,36.265-32.928c11.337-5.042,23.588-8.439,34.718-11.203
					c20.264-5.029,41.27-2.728,60.084,6.198c13.091,6.211,22.419,16.964,33.428,26.085c1.169,0.962,2.338,1.924,3.519,2.874
					c11.118,8.951,22.833,17.183,35.023,24.611c18.51,11.289,37.458,21.944,49.283,40.905
					C373.199,342.258,357.283,375.162,336.581,399.76z"/>
				<path style="opacity:0.4;fill:#FFFFFF;" d="M336.581,399.76c-9.365,11.118-20.361,20.86-32.843,28.349
					c-3.909,2.338-7.903,4.421-11.995,6.259c-28.41,12.774-60.791,13.602-91.076,6.259C137.001,425.199,103.22,369,98.934,306.614
					c-1.157-16.866-3.738-35.072,3.093-51.11c6.771-15.904,20.641-25.987,36.265-32.928c11.337-5.042,23.588-8.439,34.718-11.203
					c20.264-5.029,41.27-2.728,60.084,6.198c13.091,6.211,22.419,16.964,33.428,26.085c1.169,0.962,2.338,1.924,3.519,2.874
					c11.118,8.951,22.833,17.183,35.023,24.611c18.51,11.289,37.458,21.944,49.283,40.905
					C373.199,342.258,357.283,375.162,336.581,399.76z"/>
				<path style="fill:none;stroke:#263238;stroke-miterlimit:10;" d="M270.042,246.526c-1.18-0.949-2.353-1.907-3.519-2.873
					c-11.012-9.117-20.34-19.872-33.427-26.082c-18.816-8.929-39.828-11.225-60.086-6.197
					c-26.467,6.569-59.301,16.683-70.984,44.132c-6.827,16.04-4.248,34.242-3.089,51.104c4.288,62.39,38.06,118.59,101.728,134.021
					c34.647,8.397,72.022,6.1,103.077-12.523c12.475-7.481,23.478-17.234,32.833-28.348c20.703-24.597,36.628-57.504,17.778-87.716
					c-11.827-18.957-30.774-29.611-49.29-40.9C292.871,263.71,281.166,255.479,270.042,246.526z"/>
				<path style="fill:none;stroke:#263238;stroke-linecap:round;stroke-linejoin:round;stroke-miterlimit:10;" d="M173.551,357.78
					c-5.252,1.622-10.544,3.651-15.367,6.181"/>
				<path style="fill:none;stroke:#263238;stroke-linecap:round;stroke-linejoin:round;stroke-miterlimit:10;" d="M206.041,351.604
					c0,0-10.411,0.711-23.055,3.643"/>
				<path style="fill:none;stroke:#263238;stroke-linecap:round;stroke-linejoin:round;stroke-miterlimit:10;" d="M199.251,349.997
					c0,0-29.883-17.381-65.945-3.45"/>
			</g>
			<path style="opacity:0.1;" d="M336.581,399.76c-9.365,11.118-20.361,20.86-32.843,28.349c-3.909,2.338-7.903,4.421-11.995,6.259
				c-3.251-0.999-6.442-2.155-9.572-3.507c-18.656-8.013-34.317-21.53-49.624-34.877c-9.231-8.037-18.607-16.196-29.653-21.469
				c-14.759-7.051-32.137-8.476-47.846-3.933c8.11-9.219,19.509-15.49,31.638-17.414c-7.891-7.185-18.887-10.205-29.567-10.4
				c-10.68-0.207-16.562,1.12-26.986,3.458c3.483-6.418,12.75-12.226,20.057-12.056c-7.307-0.171-15.648-0.658-20.775-1.473
				c-9.438-1.522-13.651-12.616-15.064-22.054c-3.897-25.987,0.049-53.691,14.236-75.794c2.971-4.628,6.211-8.695,9.706-12.275
				c11.337-5.042,23.588-8.439,34.718-11.203c20.264-5.029,41.27-2.728,60.084,6.198c13.091,6.211,22.419,16.964,33.428,26.085
				c1.169,0.962,2.338,1.924,3.519,2.874c11.118,8.951,22.833,17.183,35.023,24.611c18.51,11.289,37.458,21.944,49.283,40.905
				C373.199,342.258,357.283,375.162,336.581,399.76z"/>
		</g>
		<path style="fill:#FFFFFF;" d="M346.961,399.023c0,0,8.402,7.072,17.564,12.945c11.893,0.799,6.56,15.176,6.56,15.176
			l-10.18,6.543c0,0-17.388-13.82-26.878-18.31S346.961,399.023,346.961,399.023z"/>
		<g>
			<path style="opacity:0.3;" d="M262.51,247.703c0,0-1.633-16.132-4.229-20.665L218.8,218.97v-3.056c0,0,0.911-5.324-7.89-8.653
				c-8.801-3.329-27.135,0.999-31.865,4.577c-4.73,3.578-2.997,9.739-2.997,9.739s-15.908,8.06-23.062,11.126
				c-7.154,3.065-17.079,9-17.079,9s-3.233,37.072-2.6,45.682c0.633,8.61-0.514,16.711,0.221,21.482
				c0.736,4.772,1.32,7.483,6.326,11.542s9.542,10.05,22.658,4.107l-1.829-1.447l86.341-29.031L262.51,247.703z"/>
			<path style="fill:#92E3A9;" d="M262.51,247.703c0,0-1.633-16.132-4.229-20.665L218.8,218.97v-3.056c0,0,0.911-5.324-7.89-8.653
				c-8.801-3.329-27.135,0.999-31.865,4.577c-4.73,3.578-2.997,9.739-2.997,9.739s-15.908,8.06-23.062,11.126
				c-7.154,3.065-17.079,9-17.079,9s-3.233,37.072-2.6,45.682c0.633,8.61-0.514,16.711,0.221,21.482
				c0.736,4.772,1.32,7.483,6.326,11.542s9.542,10.05,22.658,4.107l-1.829-1.447l86.341-29.031L262.51,247.703z"/>
			<path style="opacity:0.05;" d="M262.51,247.703c0,0-1.633-16.132-4.229-20.665L218.8,218.97v-3.056c0,0,0.911-5.324-7.89-8.653
				c-8.801-3.329-27.135,0.999-31.865,4.577c-4.73,3.578-2.997,9.739-2.997,9.739s-15.908,8.06-23.062,11.126
				c-7.154,3.065-17.079,9-17.079,9s-3.233,37.072-2.6,45.682c0.633,8.61-0.514,16.711,0.221,21.482
				c0.736,4.772,1.32,7.483,6.326,11.542s9.542,10.05,22.658,4.107l-1.829-1.447l86.341-29.031L262.51,247.703z"/>
			<path style="opacity:0.1;" d="M258.8,228.985h-16.517c-3.209,0-5.947,2.321-6.473,5.486l-8.142,49.035
				c0,0-11.207,0.932-19.147,6.728c-7.939,5.796-27.469-35.521-58.334-35.541c0,0,8.881,20.296,10.852,36.496
				c0,0-19.291-2.099-22.494,5.449c-3.204,7.548,1.456,21.7,9.611,16.225c8.155-5.474,15.797-14.638,21.296-8.891
				c5.499,5.747,29.798,8.891,29.798,8.891l37.471-18.824l14.533-6.831L258.8,228.985z"/>
			<path style="opacity:0.4;fill:#FFFFFF;" d="M206.349,204.712c0,0,9.383,2.603,10.902,5.748
				c1.519,3.145,1.363,11.119,1.363,11.119s-2.556,7.081-10.092,13.881l-7.004-13.881l0.627,15.746c0,0-13.278-2.21-18.913-6.458
				c-5.635-4.247-5.635-4.247-5.635-4.247s-2.425-7.972-2.081-10.705c0.344-2.734,10.507-8.217,10.507-8.217L206.349,204.712z"/>
			<path style="fill:#92E3A9;" d="M362.587,447.423c-0.257-0.577,3.853-7.83,0.635-15.224c-3.218-7.395-8.35-4.544-8.35-4.544
				s-14.61-9.297-20.751-12.233c-6.141-2.937-12.749-7.58-12.749-7.58l-6.487,8.737l5.996,18.563L362.587,447.423z"/>
			<path style="fill:#92E3A9;" d="M354.336,427.206l18.763,11.466c0,0,13.186-8.463,19.482-14.305
				c6.296-5.842,20.369-18.273,20.369-18.273l8.985-12.114c0,0-6.245-7.72-16.644-1.515c-13.44,8.019-29.829,19.614-40.766,19.503
				C364.525,411.968,366.682,425.399,354.336,427.206"/>
			<path style="fill:#FFFFFF;" d="M203.168,156.226c0,0,8.515,12.879,10.064,17.05c1.549,4.171,2.799,10.344,2.484,13.31
				c-0.315,2.966-3.422,18.879-5.03,19.344l-1.51,1.707l0.968,6.74c0,0-6.66,11.517-26.242,3.075c0,0-0.764-13.447-3.144-17.664
				c-2.38-4.217-5.942,0.8-9.505-11.39c-3.563-12.19,7.798-24.947,7.798-24.947L203.168,156.226z"/>
			<path style="opacity:0.5;fill:#FFFFFF;" d="M413.825,390.223c0,0-9.64,1.673-12.774,7.383
				c-3.133,5.71-9.138,16.325-11.189,21.457c-2.052,5.131-19.016,17.522-19.016,17.522l2.253,2.088c0,0,13.804-8.534,22.128-16.643
				c8.325-8.109,26.704-28.509,26.704-28.509S420.619,392.208,413.825,390.223z"/>
			<path style="opacity:0.5;fill:#FFFFFF;" d="M317.265,413.374l-2.38,3.206l7.336,15.222l40.367,14.51l1.872-5.914
				c0,0,0.624-6.02-13.546-10.555c-14.169-4.535-22.809-7.568-26.839-10.704C320.044,416.002,317.265,413.374,317.265,413.374z"/>
			<path style="fill:#FFFFFF;" d="M183.995,300.326c0,0-12.361-1.855-18.132,8.255c-5.771,10.111-5.181,14.488-5.181,14.488
				s8.165,7.421,19.394,7.041c11.229-0.38,27.597-13.322,32.926-17.509c5.329-4.187,18.771-16.178,27.942-13.703l1.011-8.671
				c0,0-0.891-3.887-8.737-2.842c-7.845,1.045-10.921,5.523-13.444,5.523c-2.523,0-4.92-2.434-10.034,6.251
				C209.741,299.16,191.91,302.324,183.995,300.326z"/>
			<path style="fill:none;stroke:#263238;stroke-linecap:round;stroke-linejoin:round;stroke-miterlimit:10;" d="M200.064,174.753
				c0.257,1.62,0.632,3.221,1.12,4.786c0.236,0.756,0.512,1.526,1.046,2.111c0.945,1.035,2.459,1.264,3.845,1.474
				c0.228,0.035,0.477,0.082,0.625,0.259c0.134,0.161,0.148,0.388,0.148,0.598c-0.003,1.563-0.481,3.122-1.355,4.417"/>
			<path style="opacity:0.1;" d="M325.563,403.041l-8.298,10.333c0,0,9.104,8.407,18.527,11.523
				c9.423,3.116,25.907,9.023,28.667,13.536L363.398,433c0,0-25.785-15.82-31.712-19.596
				C325.76,409.628,325.563,403.041,325.563,403.041z"/>
			<path style="opacity:0.1;" d="M354.336,427.206l16.51,9.379c0,0,8.129-5.558,12.148-9.698c4.02-4.14,8.923-8.662,11.954-17.876
				c4.189-12.734,16.192-18.788,16.192-18.788s-16.691,7.855-25.38,14.026c-8.689,6.172-17.158,8.736-22.076,8.318
				C363.684,412.568,367.634,425.073,354.336,427.206z"/>
			<path style="fill:#FFFFFF;stroke:#263238;stroke-linecap:round;stroke-linejoin:round;stroke-miterlimit:10;" d="
				M194.237,190.669c0,0,6.489,5.089,13.233,3.181C207.47,193.85,201.108,206.446,194.237,190.669z"/>
			<path style="fill:#263238;" d="M194.038,179.668c0.188,1.401-0.234,2.614-0.941,2.709c-0.707,0.094-1.432-0.965-1.62-2.366
				c-0.188-1.401,0.234-2.614,0.941-2.709C193.125,177.207,193.851,178.267,194.038,179.668z"/>
			<path style="fill:#263238;" d="M208.127,177.125c0.188,1.401-0.233,2.614-0.941,2.709c-0.707,0.095-1.432-0.965-1.62-2.366
				c-0.188-1.401,0.234-2.614,0.941-2.709C207.215,174.664,207.94,175.723,208.127,177.125z"/>
			<path style="fill:none;stroke:#263238;stroke-linecap:round;stroke-linejoin:round;stroke-miterlimit:10;" d="M193.014,173.731
				c0,0-3.783-1.949-6.475,2.228"/>
			<path style="fill:none;stroke:#263238;stroke-linecap:round;stroke-linejoin:round;stroke-miterlimit:10;" d="M202.69,171.132
				c0,0,3.991-3.434,6.312,0"/>
			<path style="fill:none;stroke:#263238;stroke-linecap:round;stroke-linejoin:round;stroke-miterlimit:10;" d="M180.161,186.599
				c0,0-2.433-3.592-4.982-3.476c-2.549,0.116-3.592,3.708-2.665,7.184c0.927,3.476,4.751,8.343,7.647,7.879
				c2.897-0.464,4.171-2.318,4.171-2.318"/>
			<path style="fill:none;stroke:#263238;stroke-linecap:round;stroke-linejoin:round;stroke-miterlimit:10;" d="M203.456,159.134
				c2.735,2.263,5.621,4.741,7.051,8.077c1.218,2.84,1.495,5.983,2.611,8.866c1.189,3.072,2.497,6.286,2.595,9.636
				c0.09,3.05-0.603,6.22-1.21,9.189c-0.525,2.57-0.931,5.22-1.854,7.685c-1.344,3.59-3.839,5.798-7.181,7.504
				c-2.431,1.241-6.48,3.022-9.106,1.342c-1.531-0.98-3.827-3.858-5.741-6.491"/>
			<path style="fill:none;stroke:#263238;stroke-linecap:round;stroke-linejoin:round;stroke-miterlimit:10;" d="M180.161,198.186
				c0,0,4.298,10.542,3.255,17.958"/>
			<path style="fill:#263238;" d="M179.057,184.828c1.15-0.832,1.808-2.297,1.667-3.708c-0.162-1.622-1.287-3.119-1.063-4.734
				c0.11-0.792,0.536-1.498,0.859-2.229c1.184-2.67,0.985-5.91-0.517-8.414c0,0,13.658,0.639,20.06-3.433
				c6.403-4.071,11.274-14.476,7.406-19.452c-3.868-4.976-11.408,1.81-16.987,2.563c-5.579,0.754-25.483,3.921-28.65,11.611
				c-3.167,7.69,1.659,10.411,1.809,17.721c0.151,7.31,0.143,21.156,11.079,19.888c0,0-4.089-5.29-1.251-10.743
				C175.404,181.576,179.057,184.828,179.057,184.828z"/>
			<path style="fill:#263238;" d="M205.846,151.499c0,0,5.623,3.752,6.541,12.008c0.609,5.482,10.335,16.13,3.326,22.204
				c0,0-1.635-6.454-2.595-9.636c-0.96-3.181-2.184-8.985-3.796-11.013c-1.613-2.028-10.154-8.96-10.154-8.96L205.846,151.499z"/>
			<path style="fill:none;stroke:#263238;stroke-linecap:round;stroke-linejoin:round;stroke-miterlimit:10;" d="M181.423,215.914
				c0,0,6.74,4.433,19.259,4.619l1.463,16.791c0,0-14.071-1.075-24.548-10.705c0,0-2.828-7.489-2.081-10.705
				c0.746-3.216,7.453-6.412,7.453-6.412"/>
			<path style="fill:none;stroke:#263238;stroke-linecap:round;stroke-linejoin:round;stroke-miterlimit:10;" d="M209.741,208.401
				l0.403,5.977c-4.55,4.664-9.462,6.157-9.462,6.157l7.84,14.925c0,0,9.344-7.276,10.277-14.925c0,0,0.077-7.836-1.547-10.074
				c-1.624-2.239-7.57-3.294-7.57-3.294"/>
			<path style="opacity:0.8;fill:none;stroke:#FFFFFF;stroke-linecap:round;stroke-linejoin:round;stroke-miterlimit:10;" d="
				M171.802,161.995c1.014-2.513,3.736-3.956,6.408-4.405c2.672-0.45,5.406-0.116,8.115-0.188c3.712-0.097,7.458-0.992,10.596-2.978
				c3.138-1.986,5.618-5.13,6.404-8.759"/>
			<path style="opacity:0.8;fill:none;stroke:#FFFFFF;stroke-linecap:round;stroke-linejoin:round;stroke-miterlimit:10;" d="
				M165.347,161.512c1.696-5.135,7.174-8.3,12.563-8.757c2.669-0.227,5.368,0.088,8.028-0.225c2.66-0.313,5.429-1.411,6.819-3.701"
				/>
			<path style="fill:none;stroke:#263238;stroke-linecap:round;stroke-linejoin:round;stroke-miterlimit:10;" d="M162.511,324.517
				c-12.979,6.74-17.62-0.193-24.858-5.934c-7.239-5.741-2.496-15.975-3.994-32.449c-1.498-16.474,2.246-44.43,2.246-44.43
				s3.245-0.749,12.231-6.245c8.986-5.496,27.911-13.881,27.911-13.881"/>
			<path style="fill:none;stroke:#263238;stroke-linecap:round;stroke-linejoin:round;stroke-miterlimit:10;" d="M175.391,299.624
				c0,0-2.062-6.53-7.886-6.707c-5.824-0.176-14.999,2.451-21.533,14.826"/>
			<path style="fill:none;stroke:#263238;stroke-linecap:round;stroke-linejoin:round;stroke-miterlimit:10;" d="M166.179,292.529
				c-0.362,0.006-0.71-0.127-1.05-0.25c-4.759-1.724-10.045-1.963-14.941-0.675"/>
			<path style="fill:none;stroke:#263238;stroke-linecap:round;stroke-linejoin:round;stroke-miterlimit:10;" d="M146.844,250.63
				c10.581,11.699,15.745,27.179,20.636,42.176"/>
			<path style="fill:none;stroke:#263238;stroke-linecap:round;stroke-linejoin:round;stroke-miterlimit:10;" d="M218.8,218.97
				c0,0,19.203,4.579,28.579,5.669c9.376,1.09,10.902,2.398,10.902,2.398l1.744,6.542"/>
			<polygon style="fill:#FFFFFF;" points="308.275,230.376 242.882,232.891 237.539,300.143 248.742,300.143 305.519,287.426 
				312.663,231.994 			"/>
			<g>
				<polygon style="fill:#92E3A9;" points="240.944,302.135 312.458,233.579 305.519,287.426 				"/>
				<polygon style="opacity:0.7;fill:#FFFFFF;" points="240.944,302.135 312.458,233.579 305.519,287.426 				"/>
			</g>
			<polygon style="fill:none;stroke:#263238;stroke-linecap:round;stroke-linejoin:round;stroke-miterlimit:10;" points="
				240.944,300.326 246.659,235.459 312.663,231.994 305.519,287.426 			"/>
			<path style="fill:#263238;" d="M284.841,263.416c-0.446,3.95-2.556,6.954-4.712,6.71c-2.156-0.244-3.542-3.643-3.096-7.592
				c0.446-3.95,2.556-6.954,4.712-6.71C283.901,256.068,285.288,259.467,284.841,263.416z"/>
			<path style="fill:#263238;" d="M305.519,287.426c0,0,30.22-0.859,39.672,5.38c9.453,6.239,14.994,37.531,13.69,54.154
				c-1.304,16.624-12.712,54.76-12.712,54.76l-21.839-24.772c0,0-10.756-39.114-4.889-54.434c0,0-29.01,1.63-40.418-1.956
				c0,0-10.232-16.747-27.769-22.292L305.519,287.426z"/>
			<path style="fill:none;stroke:#263238;stroke-miterlimit:10;" d="M350.78,402.366c-9.229-8.358-18.133-19.862-20.775-23.953
				c-10.57-16.33-25.183-32.039-40.21-44.229c-12.117-9.827-14.857-25.829-29.799-33.854
				c-24.745-13.274-46.141,13.103-54.142,18.437c-8.001,5.334-21.859,11.35-21.859,11.35s5.054,18.961,19.91,21.25
				c14.857,2.289,29.896-8.001,37.044-3.044c7.148,4.944,12.372,27.046,35.851,40.003c19.192,10.582,45.337,20.909,58.83,27.862
				c3.02,1.559,5.241,3.201,6.941,4.128c4.66,2.541,9.64,5.538,14.337,8.495l16.19,9.861c0,0,16.247-9.61,22.487-18.472
				c0.839-1.191,2.563-4.363,4.183-7.424c3.535-6.682,7.981-12.683,14.191-16.02c4.284-2.302,8.095-3.009,7.973-3.236
				c-0.413-0.763-8.168-4.729-13.443-2.558c-11.159,4.604-33.465,22.317-43.963,21.006
				C364.525,411.968,356.877,407.889,350.78,402.366z"/>
			<path style="fill:#263238;" d="M350.78,402.366c-9.73,3.933-13.651,9.986-15.149,13.822c-13.493-6.953-39.638-17.28-58.83-27.862
				c-23.478-12.957-28.703-35.059-35.851-40.003c-7.148-4.956-22.188,5.334-37.044,3.044C189.048,349.077,184,330.111,184,330.111
				s13.857-6.007,21.858-11.341s26.448-31.719,54.137-18.441c15.295,7.335,17.682,24.027,29.799,33.854
				c15.027,12.19,29.64,27.899,40.21,44.229C332.647,382.505,341.525,394.037,350.78,402.366z"/>
			<path style="fill:none;stroke:#FFFFFF;stroke-linecap:round;stroke-linejoin:round;stroke-miterlimit:10;" d="M277.662,317.593
				c0,0-7.489-15.222-19.504-18.175"/>
			<path style="fill:none;stroke:#263238;stroke-linecap:round;stroke-linejoin:round;stroke-miterlimit:10;" d="M238.404,287.289
				c-8.263-1.803-17.334,7.329-21.152,5.62c-2.841-1.271-7.511,6.251-7.511,6.251s-12.094,1.868-23.222,1.166
				c-11.128-0.702-16.403,1.459-20.34,7.417l-5.497,14.562c0,0,14.503,13.016,30.004,5.433c15.5-7.584,36.078-30.403,50.258-30.324"
				/>
			<path style="fill:none;stroke:#263238;stroke-miterlimit:10;" d="M353.706,426.817c0,0,13.569,1.115,10.383-15.088"/>
			<path style="fill:#263238;" d="M417.612,401.72c-1.028,2.042-13.436,12.58-24.146,21.83c0.032-0.144,2.962-5.789,4.248-8.199
				c2.842-5.322,10.202-19.913,24.218-21.831C423.92,394.717,417.612,401.72,417.612,401.72z"/>
			<path style="fill:none;stroke:#263238;stroke-miterlimit:10;" d="M412.279,390.326c-14.168,2.829-17.385,20.981-22.417,28.737
				c-5.032,7.756-19.016,18.237-19.016,18.237"/>
			<path style="fill:none;stroke:#263238;stroke-miterlimit:10;" d="M363.222,432.656c2.303,4.225,1.214,9.122,0,12.19
				c-1.019,2.581-2.223,4.37-2.223,4.37c-20.059-3.296-40.119-14.074-40.119-14.074l-5.172-16.004l-0.824-2.559l7.785-10.485"/>
			<path style="fill:#263238;" d="M363.222,444.847c-1.019,2.581-2.223,4.37-2.223,4.37c-20.059-3.296-40.119-14.074-40.119-14.074
				l-5.172-16.004c2.591,3.383,7.395,8.327,14.594,10.366C340.073,432.269,358.105,435.511,363.222,444.847z"/>
			<polyline style="fill:none;stroke:#263238;stroke-linecap:round;stroke-linejoin:round;stroke-miterlimit:10;" points="
				237.539,297.803 242.882,232.891 308.275,230.376 312.663,231.994 			"/>
			<path style="fill:none;stroke:#263238;stroke-miterlimit:10;" d="M363.949,419.063c0,0,8.944,1.595,15.81-4.01
				c6.865-5.605,17.941-18.269,17.941-18.269"/>
			<path style="fill:none;stroke:#263238;stroke-linecap:round;stroke-linejoin:round;stroke-miterlimit:10;" d="M373.099,410.976
				c0,0-2.156,3.251,0,9.778"/>
			<path style="fill:none;stroke:#263238;stroke-linecap:round;stroke-linejoin:round;stroke-miterlimit:10;" d="M379.439,407.889
				c0,0-1.729,4.861,0.808,9.775"/>
			<path style="fill:none;stroke:#263238;stroke-linecap:round;stroke-linejoin:round;stroke-miterlimit:10;" d="M386.993,403.508
				c0,0-1.811,5.433,0,10.225"/>
			<path style="fill:none;stroke:#263238;stroke-miterlimit:10;" d="M324.442,404.742l-7.177,8.632c0,0,7.23,7.886,17.411,11.165
				c10.181,3.279,28.397,8.85,29.902,14.779"/>
		</g>
	</g>
</g>
</svg>
