<?xml version="1.0" encoding="utf-8"?>
<!-- Generator: Adobe Illustrator 28.0.0, SVG Export Plug-In . SVG Version: 6.00 Build 0)  -->
<svg version="1.1" id="Layer_1" xmlns="http://www.w3.org/2000/svg" xmlns:xlink="http://www.w3.org/1999/xlink" x="0px" y="0px"
	 viewBox="0 0 500 500" style="enable-background:new 0 0 500 500;" xml:space="preserve">
<style type="text/css">
	.st0{fill:#22C55E;}
</style>
<g transform="matrix(4.640678977689433,0,0,4.640678977689433,-2.5987810683883894,0.7637259811136552)">
	<path class="st0" d="M8.5,49.8c-2.3,0-4,1.7-4,3.9s1.8,3.9,4,3.9s3.9-1.8,3.9-3.9C12.3,51.5,10.6,49.8,8.5,49.8z M8.8,61.2
		c-1.7,0-3.3-0.5-4.3-1.3V66h-4V46.3h4v1.1c1-0.8,2.6-1.3,4.3-1.3c4,0,7.4,3.2,7.4,7.5S12.8,61.2,8.8,61.2L8.8,61.2z M25,49.8
		c-2.2,0-3.9,1.8-3.9,3.9c0,2.2,1.7,3.9,3.9,3.9c2.3,0,4-1.7,4-3.9S27.3,49.8,25,49.8z M29,61v-1.1c-1,0.8-2.6,1.3-4.3,1.3
		c-4,0-7.4-3.2-7.4-7.5s3.4-7.5,7.4-7.5c1.7,0,3.3,0.5,4.3,1.3v-1.2h4V61H29z M48.6,46.3l-4.9,14.1C42.3,64.3,40.6,66,37,66h-1.4
		v-3.6h1.2c1.3,0,2.2-0.7,2.7-1.9L34,46.3h4.5l3,9l3-9H48.6z M62,61l-2-8.4L58,61h-5l-3.7-14.7h4l2.4,10.1l2.5-10.1h4l2.5,10.1
		L67,46.3h3.9L67,61H62z M75.9,45.1h-4v-3.7h4V45.1z M75.9,61h-4V46.3h4V61z M81.4,46.3v1.5c0.7-0.8,2.2-1.7,4.3-1.7
		c3.4,0,5.7,2.4,5.7,5.9v9h-3.9v-8.3c0-1.7-1-2.9-2.7-2.9c-1.9,0-3.2,1.2-3.2,3.3v8h-4V46.3H81.4L81.4,46.3z M100.4,57.7
		c2.3,0,4-1.7,4-3.9s-1.8-3.9-4-3.9s-3.9,1.8-3.9,3.9S98.2,57.7,100.4,57.7z M104.3,61v-1.1c-1,0.8-2.6,1.3-4.3,1.3
		c-4,0-7.4-3.2-7.4-7.5s3.4-7.5,7.4-7.5c1.7,0,3.3,0.5,4.3,1.3v-6.1h4V61H104.3z"/>
</g>
</svg>
