<?xml version="1.0" encoding="utf-8"?>
<!-- Generator: Adobe Illustrator 28.0.0, SVG Export Plug-In . SVG Version: 6.00 Build 0)  -->
<svg version="1.1" id="Layer_1" xmlns="http://www.w3.org/2000/svg" xmlns:xlink="http://www.w3.org/1999/xlink" x="0px" y="0px"
	 viewBox="0 0 500 500" style="enable-background:new 0 0 500 500;" xml:space="preserve">
<style type="text/css">
	.st0{fill:#22C55E;}
	.st1{font-family:'Impact';}
	.st2{font-size:103.1327px;}
</style>
<g transform="matrix(4.640678977689433,0,0,4.640678977689433,-2.5987810683883894,0.7637259811136552)">
	<path class="st0" d="M8.5,40.7c-2.3,0-4,1.7-4,3.9c0,2.2,1.8,3.9,4,3.9c2.2,0,3.9-1.8,3.9-3.9C12.3,42.4,10.6,40.7,8.5,40.7z
		 M8.8,52.1c-1.7,0-3.3-0.5-4.3-1.3v6.1h-4V37.2h4v1.1c1-0.8,2.6-1.3,4.3-1.3c4,0,7.4,3.2,7.4,7.5S12.8,52.1,8.8,52.1L8.8,52.1z
		 M25,40.7c-2.2,0-3.9,1.8-3.9,3.9c0,2.2,1.7,3.9,3.9,3.9c2.3,0,4-1.7,4-3.9C29,42.4,27.3,40.7,25,40.7z M29,51.9v-1.1
		c-1,0.8-2.6,1.3-4.3,1.3c-4,0-7.4-3.2-7.4-7.5s3.4-7.5,7.4-7.5c1.7,0,3.3,0.5,4.3,1.3v-1.2h4v14.7H29z M48.6,37.2l-4.9,14.1
		c-1.4,3.9-3.1,5.6-6.7,5.6h-1.4v-3.6h1.2c1.3,0,2.2-0.7,2.7-1.9L34,37.2h4.5l3,9l3-9H48.6z M62,51.9l-2-8.4l-2,8.4h-5l-3.7-14.7h4
		l2.4,10.1l2.5-10.1h4l2.5,10.1L67,37.2h3.9L67,51.9H62z M75.9,36h-4v-3.7h4V36z M75.9,51.9h-4V37.2h4V51.9z M81.4,37.2v1.5
		c0.7-0.8,2.2-1.7,4.3-1.7c3.4,0,5.7,2.4,5.7,5.9v9h-3.9v-8.3c0-1.7-1-2.9-2.7-2.9c-1.9,0-3.2,1.2-3.2,3.3v8h-4V37.2H81.4L81.4,37.2
		z M100.4,48.6c2.3,0,4-1.7,4-3.9c0-2.2-1.8-3.9-4-3.9c-2.2,0-3.9,1.8-3.9,3.9C96.5,46.8,98.2,48.6,100.4,48.6z M104.3,51.9v-1.1
		c-1,0.8-2.6,1.3-4.3,1.3c-4,0-7.4-3.2-7.4-7.5s3.4-7.5,7.4-7.5c1.7,0,3.3,0.5,4.3,1.3v-6.1h4v19.6H104.3z"/>
</g>
<text transform="matrix(0.977 0 0 1 -3 366.0371)" class="st1 st2">For Advisors</text>
</svg>
