<?xml version="1.0" encoding="utf-8"?>
<!-- Generator: Adobe Illustrator 27.5.0, SVG Export Plug-In . SVG Version: 6.00 Build 0)  -->
<svg version="1.1" xmlns="http://www.w3.org/2000/svg" xmlns:xlink="http://www.w3.org/1999/xlink" x="0px" y="0px"
	 viewBox="0 0 500 500" style="enable-background:new 0 0 500 500;" xml:space="preserve">
<g id="Background_Simple">
	<g>
		<path style="fill:#92E3A9;" d="M475.79,277.045c-13.494,40.9-42.565,85.725-85.346,100.317
			c-64.641,22.054-70.416,75.069-187.736,74.707c-18.292-0.055-35.271-1.97-50.936-5.47c-8.421-1.88-16.465-4.23-24.12-7.001
			c-69.499-25.07-107.551-84.691-112.981-148.401C7.516,207.403,64.54,165.128,101.7,140.229
			c37.16-24.899,79.531-117.452,194.867-118.002c17.585-0.076,35.199,1.647,52.355,5.593c39.163,8.991,79.458,30.67,103.664,63.702
			c1.817,2.482,3.557,5.026,5.23,7.622C490.464,149.943,494.191,221.286,475.79,277.045z"/>
		<path style="opacity:0.7;fill:#FFFFFF;" d="M475.79,277.045c-13.494,40.9-42.565,85.725-85.346,100.317
			c-64.641,22.054-70.416,75.069-187.736,74.707c-18.292-0.055-35.271-1.97-50.936-5.47c-8.421-1.88-16.465-4.23-24.12-7.001
			c-69.499-25.07-107.551-84.691-112.981-148.401C7.516,207.403,64.54,165.128,101.7,140.229
			c37.16-24.899,79.531-117.452,194.867-118.002c17.585-0.076,35.199,1.647,52.355,5.593c39.163,8.991,79.458,30.67,103.664,63.702
			c1.817,2.482,3.557,5.026,5.23,7.622C490.464,149.943,494.191,221.286,475.79,277.045z"/>
	</g>
</g>
<g id="Floor">
	<line style="fill:none;stroke:#263238;stroke-miterlimit:10;" x1="41.061" y1="459.441" x2="480.24" y2="459.441"/>
</g>
<g id="Plant">
	<g>
		<g>
			<path style="fill:#263238;" d="M98.59,290.19l0.003-0.008c0.025-0.065-0.005-0.138-0.069-0.166
				c-0.066-0.029-0.142,0.001-0.17,0.067c-3.917,9.046-6.671,18.541-8.97,28.119c-2.219,9.604-3.826,19.348-4.949,29.151
				l-0.701,7.368c-0.108,1.229-0.242,2.457-0.33,3.687l-0.201,3.696c-0.106,2.466-0.257,4.931-0.328,7.399l0.067,7.405l0.082,3.701
				c0.055,1.232,0.143,2.464,0.227,3.695c0.187,2.461,0.337,4.923,0.562,7.378c0.472,4.908,1.21,9.792,1.969,14.653
				c0.01,0.062,0.064,0.11,0.129,0.11c0.071,0,0.129-0.058,0.129-0.13v-0.007c-0.013-2.468-0.117-4.923-0.173-7.379
				c-0.071-2.454-0.285-4.897-0.25-7.352c0.011-2.454-0.053-4.902-0.08-7.35l-0.068-3.67l0.065-3.671l0.033-7.337l0.199-7.333
				l0.076-3.67c0.047-1.222,0.138-2.442,0.206-3.663l0.45-7.329c0.858-9.753,2.198-19.47,4.152-29.075
				C92.599,308.884,95.01,299.327,98.59,290.19z"/>
			<path style="fill:#263238;" d="M99.641,328.557c0.019-0.066-0.016-0.139-0.081-0.162c-0.068-0.023-0.142,0.012-0.165,0.08
				c-2.112,6.096-3.797,12.332-5.223,18.634c-1.362,6.313-2.431,12.708-3.083,19.152c-0.652,6.421-1.37,12.848-1.458,19.305
				c-0.099,6.453,0.004,12.913,0.686,19.36c0.007,0.059,0.054,0.109,0.116,0.116c0.072,0.008,0.136-0.044,0.143-0.116
				c0.746-6.428,1.201-12.84,1.646-19.249c0.455-6.407,0.516-12.832,0.934-19.242c0.387-6.39,1.189-12.753,2.289-19.076
				C96.522,341.035,97.866,334.735,99.641,328.557z"/>
			<path style="fill:#263238;" d="M120.911,342.054c-0.038-0.06-0.118-0.079-0.179-0.04c-5.324,3.371-10.073,7.616-14.222,12.4
				c-2.04,2.428-3.936,4.969-5.561,7.733l-1.143,2.157l-0.894,2.24c-0.322,0.743-0.548,1.508-0.781,2.272
				c-0.23,0.764-0.487,1.525-0.693,2.295c-1.597,6.165-2.656,12.447-2.942,18.761c-0.257,6.311-0.137,12.631,0.706,18.897
				c0.009,0.059,0.058,0.108,0.12,0.112c0.072,0.005,0.134-0.049,0.139-0.12l1.621-18.706c0.646-6.184,1.042-12.405,2.37-18.444
				c0.169-0.752,0.385-1.488,0.576-2.234c0.193-0.745,0.38-1.493,0.656-2.203l0.759-2.162l0.977-2.042
				c1.44-2.702,3.202-5.287,5.096-7.737c3.798-4.902,8.267-9.37,13.354-12.998l0.007-0.005
				C120.933,342.189,120.949,342.112,120.911,342.054z"/>
			<path style="fill:#263238;" d="M110.617,366.086c-2.899,1.871-4.837,4.814-6.468,7.775c-1.554,3.026-2.778,6.234-3.624,9.525
				c-0.255,0.815-0.456,1.641-0.632,2.471l-0.587,2.487c-0.299,1.67-0.533,3.358-0.628,5.051c-0.022,1.697-0.071,3.392,0.044,5.084
				c0.141,1.691,0.333,3.379,0.667,5.052c0.012,0.048,0.052,0.093,0.104,0.104c0.072,0.014,0.142-0.032,0.156-0.104
				c0.41-1.669,0.678-3.323,0.896-4.973c0.263-1.647,0.519-3.283,0.716-4.921c0.24-1.631,0.456-3.257,0.583-4.901
				c0.228-1.621,0.348-3.279,0.703-4.881c0.569-3.243,1.507-6.408,2.774-9.436c1.262-3.002,2.904-5.995,5.43-8.11l0.02-0.017
				c0.049-0.041,0.061-0.113,0.026-0.168C110.756,366.065,110.677,366.048,110.617,366.086z"/>
			<path style="fill:#263238;" d="M80.787,384.823c-0.7-8.304-2.069-16.525-3.363-24.742c-1.299-8.218-2.73-16.411-4.234-24.589
				c-1.557-8.169-3.184-16.322-4.945-24.446c-0.015-0.067-0.081-0.113-0.15-0.1c-0.07,0.013-0.117,0.08-0.104,0.151
				c1.421,8.186,2.707,16.395,3.921,24.611c1.246,8.211,2.419,16.432,3.459,24.666c1.015,8.239,1.806,16.497,2.838,24.721
				l3.038,24.72c0.007,0.062,0.059,0.112,0.123,0.115c0.072,0.003,0.132-0.052,0.136-0.124c0.095-2.083,0.098-4.166,0.149-6.254
				c0.019-2.087-0.085-4.165-0.122-6.251C81.455,393.128,81.099,388.978,80.787,384.823z"/>
			<path style="fill:#263238;" d="M75.807,384.703c-0.444-3.289-1.049-6.559-1.676-9.818l-1.166-4.848
				c-0.382-1.616-0.744-3.236-1.217-4.832c-1.657-6.433-3.774-12.756-6.347-18.883l-0.996-2.285l-1.107-2.236
				c-0.704-1.505-1.555-2.94-2.362-4.39c-1.736-2.828-3.538-5.654-5.994-7.947c-0.05-0.046-0.128-0.046-0.178,0.002
				c-0.051,0.05-0.052,0.131-0.003,0.183l0.013,0.013c2.27,2.353,3.924,5.257,5.483,8.128c0.722,1.477,1.486,2.928,2.103,4.453
				l0.975,2.26l0.865,2.307c2.3,6.147,4.146,12.466,5.533,18.89c0.757,3.195,1.258,6.451,1.877,9.672l0.777,4.867
				c0.281,1.618,0.628,3.225,0.855,4.854c0.518,3.246,1.115,6.484,1.682,9.733c0.503,3.257,1.098,6.509,1.785,9.763
				c0.012,0.059,0.065,0.107,0.128,0.107c0.072,0,0.13-0.058,0.131-0.129c0.014-3.317-0.063-6.637-0.232-9.952
				C76.544,391.302,76.152,388.006,75.807,384.703z"/>
			<path style="fill:#263238;" d="M68.936,385.127c-1.539-4.357-3.319-8.622-5.259-12.804c-1.991-4.159-4.14-8.239-6.614-12.125
				c-0.038-0.055-0.116-0.077-0.176-0.042c-0.062,0.037-0.082,0.116-0.045,0.178c2.161,4.036,3.988,8.246,5.645,12.504
				c1.686,4.246,3.205,8.556,4.478,12.935c1.299,4.374,2.229,8.832,3.393,13.225c1.223,4.39,2.213,8.825,3.563,13.271
				c0.016,0.053,0.066,0.095,0.125,0.096c0.072,0.001,0.131-0.057,0.132-0.129c0.065-4.638-0.39-9.274-1.292-13.815
				C72.071,393.853,70.465,389.481,68.936,385.127z"/>
			<path style="fill:#ABABAB;" d="M68.65,399.64c-0.787-2.728-2.13-5.27-3.656-7.665c-1.498-2.407-3.237-4.683-5.321-6.611
				c-1.073-0.93-2.171-1.825-3.384-2.552c-1.195-0.747-2.463-1.378-3.839-1.735c-0.06-0.016-0.124,0.014-0.15,0.072
				c-0.029,0.065,0,0.141,0.066,0.171l0.016,0.007c2.488,1.106,4.591,2.94,6.368,4.947c1.801,2.01,3.238,4.316,4.436,6.717
				c1.26,2.385,1.911,5.022,3.007,7.479c0.484,1.26,0.964,2.528,1.523,3.786c0.474,1.284,1,2.564,1.669,3.837l0.004,0.007
				c0.021,0.04,0.063,0.069,0.112,0.071c0.074,0.003,0.136-0.054,0.139-0.128c0.059-1.421-0.024-2.834-0.158-4.244
				C69.278,402.402,68.984,401.017,68.65,399.64z"/>
		</g>
		<path style="fill:#92E3A9;" d="M69.164,322.934c0,0-13.607-3.14-16.747-17.794c-3.14-14.654,6.978-8.374-2.093-31.401
			c-9.072-23.028-6.978-28.261-3.838-34.89c3.14-6.629,4.885-4.536,7.676,4.187c2.791,8.722,12.909,22.33,16.747,47.8
			C74.746,316.305,69.164,322.934,69.164,322.934z"/>
		<path style="fill:#92E3A9;" d="M96.03,298.162c0,0-9.072-3.14-9.421-20.236c-0.349-17.096,6.629-13.607,7.676-34.89
			c1.047-21.283,2.442-36.286,6.28-36.635c3.838-0.349,13.956,10.467,17.445,34.192c3.489,23.725-4.536,39.426-11.514,46.404
			C99.518,293.975,96.03,298.162,96.03,298.162z"/>
		<path style="fill:#92E3A9;" d="M64.279,343.519c0,0-2.093-12.56-6.28-18.492c-4.187-5.931-13.258-11.165-19.19-22.679
			c-5.931-11.514-12.56-17.096-12.212-0.698c0.349,16.398,7.676,24.772,16.747,30.354C52.416,337.588,64.279,343.519,64.279,343.519
			z"/>
		<path style="fill:#92E3A9;" d="M60.441,365.151c0,0-8.374-16.049-20.585-27.912c-12.212-11.863-21.981-17.794-18.492-11.863
			c3.489,5.931,7.676,5.583,13.607,16.049c5.931,10.467,4.187,18.143,12.561,24.074C55.906,371.431,60.441,365.151,60.441,365.151z"
			/>
		<path style="fill:#92E3A9;" d="M59.394,385.736c-0.349-1.047-0.698-8.722-12.56-15.003c-11.863-6.28-23.028-3.838-21.632-0.698
			c1.396,3.14,8.722,8.374,16.049,11.514C48.579,384.69,59.394,385.736,59.394,385.736z"/>
		<path style="fill:#92E3A9;" d="M95.332,344.217c0,0-5.234-6.629-2.443-20.585c2.791-13.956,9.071-10.467,16.05-17.794
			c6.978-7.327,5.582-8.374,12.56-16.049c6.978-7.676,13.258-11.863,16.049-8.723c2.791,3.14-1.395,12.91-5.582,18.492
			c-4.187,5.582-10.816,8.374-13.956,15.352c-3.14,6.978-1.744,18.143-9.769,23.377C100.216,343.519,95.332,344.217,95.332,344.217z
			"/>
		<path style="fill:#92E3A9;" d="M112.776,348.055c0,0,12.561-14.305,21.632-24.772c9.072-10.467,12.56-18.492,12.909-11.514
			c0.349,6.978,3.14,12.561-4.187,21.632C135.804,342.472,112.776,348.055,112.776,348.055z"/>
		<path style="fill:#92E3A9;" d="M106.147,371.082c0,0-0.349-5.583,19.538-18.492c19.887-12.909,28.261-15.352,26.168-10.118
			c-2.093,5.233-10.816,10.467-20.236,19.887C122.197,371.78,106.147,371.082,106.147,371.082z"/>
		<path style="fill:none;stroke:#263238;stroke-linecap:round;stroke-linejoin:round;stroke-miterlimit:10;" d="M69.994,321.447
			c0,0-4.668-25.03-9.552-42.824c-4.885-17.794-8.025-28.61-8.025-28.61"/>
		<path style="fill:none;stroke:#263238;stroke-linecap:round;stroke-linejoin:round;stroke-miterlimit:10;" d="M95.226,298.425
			c0,0,8.479-27.129,11.271-43.527c2.791-16.398-0.349-28.61-1.745-35.937"/>
		<path style="fill:none;stroke:#263238;stroke-linecap:round;stroke-linejoin:round;stroke-miterlimit:10;" d="M63.179,342.995
			c0,0-5.18-9.245-12.856-18.317c-7.676-9.072-13.607-13.956-17.096-22.678"/>
		<path style="fill:none;stroke:#263238;stroke-linecap:round;stroke-linejoin:round;stroke-miterlimit:10;" d="M95.332,344.217
			c0,0,2.791-16.747,9.42-25.47c6.629-8.722,19.887-22.329,25.121-31.052"/>
		<path style="fill:none;stroke:#263238;stroke-linecap:round;stroke-linejoin:round;stroke-miterlimit:10;" d="M58.575,385.355
			c0,0-11.741-7.644-20.114-11.831"/>
		<path style="fill:#263238;" d="M92.719,459.355h-15.36c-2.719,0-5.175-1.629-6.221-4.138
			c-5.018-12.024-18.417-46.73-10.347-56.571c7.688-9.375,40.81-9.375,48.498,0c8.07,9.841-5.33,44.547-10.348,56.571
			C97.893,457.726,95.437,459.355,92.719,459.355z"/>
	</g>
</g>
<g id="Device">
	<g>
		<g>
			<path style="fill:#FFFFFF;stroke:#263238;stroke-miterlimit:10;" d="M331.656,79.393v343.626c0,9.432-7.646,17.077-17.077,17.077
				H166.102c-9.432,0-17.078-7.646-17.078-17.078V79.384c0-9.427,7.642-17.069,17.069-17.069h63.73l0.053,0.195
				c1.588,5.716,5.245,9.434,9.301,9.434h2.325c4.056,0,7.712-3.719,9.301-9.434l0.062-0.195h63.713
				C324.01,62.316,331.656,69.962,331.656,79.393z"/>
		</g>
		<g>
			<polygon style="fill:#92E3A9;" points="241.893,131.621 214.035,151.887 269.751,151.887 			"/>
			<rect x="213.478" y="154.08" style="fill:#92E3A9;" width="56.829" height="3.988"/>
			<polygon style="fill:#92E3A9;" points="270.308,188.975 268.23,188.975 268.23,160.395 261.584,160.395 261.584,188.975 
				252.943,188.975 252.943,160.395 246.296,160.395 246.296,188.975 237.656,188.975 237.656,160.395 231.009,160.395 
				231.009,188.975 222.368,188.975 222.368,160.395 215.721,160.395 215.721,188.975 213.478,188.975 213.478,192.963 
				270.308,192.963 			"/>
			<rect x="210.114" y="195.129" style="fill:#92E3A9;" width="63.558" height="5.612"/>
		</g>
		<g>
			
				<rect x="183.153" y="246.611" style="fill:#FFFFFF;stroke:#263238;stroke-linecap:round;stroke-linejoin:round;stroke-miterlimit:10;" width="115.114" height="19.522"/>
			
				<rect x="183.153" y="282.962" style="fill:#FFFFFF;stroke:#263238;stroke-linecap:round;stroke-linejoin:round;stroke-miterlimit:10;" width="115.114" height="19.522"/>
			<path style="fill:#263238;stroke:#263238;stroke-linecap:round;stroke-linejoin:round;stroke-miterlimit:10;" d="
				M268.375,342.286h-52.964c-2.675,0-4.843-2.168-4.843-4.843v-9.836c0-2.675,2.168-4.843,4.843-4.843h52.964
				c2.675,0,4.843,2.168,4.843,4.843v9.836C273.218,340.118,271.05,342.286,268.375,342.286z"/>
		</g>
		<g>
			<path style="fill:#DBDBDB;stroke:#263238;stroke-linecap:round;stroke-linejoin:round;stroke-miterlimit:10;" d="M331.656,95.382
				V79.393c0-9.432-7.646-17.077-17.077-17.077h-63.713l-0.062,0.195c-1.589,5.716-5.245,9.434-9.301,9.434h-2.326
				c-4.056,0-7.712-3.719-9.301-9.434l-0.053-0.195h-63.73c-9.427,0-17.069,7.642-17.069,17.069v15.997H331.656z"/>
			<path style="fill:#DBDBDB;stroke:#263238;stroke-linecap:round;stroke-linejoin:round;stroke-miterlimit:10;" d="
				M149.024,420.331v2.688c0,9.432,7.646,17.078,17.077,17.078h148.477c9.432,0,17.077-7.646,17.077-17.077v-2.688H149.024z"/>
		</g>
		<g>
			<path style="fill:#92E3A9;stroke:#263238;stroke-linecap:round;stroke-linejoin:round;stroke-miterlimit:10;" d="M343.27,161.466
				v-34.321h-3.105V83.206c0-14.958-12.126-27.084-27.084-27.084H167.6c-14.958,0-27.084,12.126-27.084,27.084v349.151
				c0,14.958,12.126,27.084,27.084,27.084h145.481c14.958,0,27.084-12.126,27.084-27.084v-241.64h3.105v-20.281h-3.105v-8.97H343.27
				z M331.656,413.01c0,14.964-12.132,27.087-27.087,27.087H176.111c-14.955,0-27.087-12.123-27.087-27.087V89.394
				c0-14.955,12.132-27.078,27.087-27.078h53.712l0.053,0.195c1.588,5.716,5.245,9.434,9.301,9.434h2.325
				c4.056,0,7.712-3.719,9.301-9.434l0.062-0.195h53.703c14.955,0,27.087,12.123,27.087,27.078V413.01z"/>
			<path style="fill:#263238;stroke:#263238;stroke-linecap:round;stroke-linejoin:round;stroke-miterlimit:10;" d="M310.909,59.852
				H169.773c-14.426,0-26.121,11.695-26.121,26.121v343.616c0,14.426,11.695,26.121,26.121,26.121h141.136
				c14.426,0,26.121-11.695,26.121-26.121V85.974C337.03,71.547,325.335,59.852,310.909,59.852z M331.656,413.973
				c0,14.428-11.696,26.124-26.124,26.124H175.148c-14.428,0-26.124-11.696-26.124-26.124V88.43
				c0-14.423,11.692-26.115,26.115-26.115h54.684l0.053,0.195c1.588,5.716,5.245,9.434,9.301,9.434h2.325
				c4.056,0,7.712-3.719,9.301-9.434l0.062-0.195h54.667c14.428,0,26.124,11.696,26.124,26.124V413.973z"/>
			<path style="fill:#FFFFFF;" d="M242.326,63.61c0-1.404-1.138-2.543-2.543-2.543c-1.404,0-2.543,1.138-2.543,2.543
				c0,1.404,1.138,2.543,2.543,2.543C241.187,66.153,242.326,65.015,242.326,63.61z"/>
			<g>
				<g>
					<path style="fill:#263238;" d="M165.257,73.354c0,2.573-2.889,3.499-2.901,5.462v0.134h2.804v0.866h-3.742v-0.732
						c0-2.755,2.889-3.291,2.889-5.693c0-0.878-0.293-1.341-1-1.341c-0.695,0-1,0.499-1,1.255v0.756h-0.89v-0.695
						c0-1.305,0.597-2.17,1.913-2.17C164.66,71.196,165.257,72.05,165.257,73.354z"/>
					<path style="fill:#263238;" d="M169.928,73.342v0.219c0,0.878-0.353,1.5-1.036,1.756c0.719,0.268,1.036,0.914,1.036,1.768
						v0.659c0,1.304-0.609,2.158-1.926,2.158c-1.304,0-1.913-0.853-1.913-2.158v-0.585h0.889v0.646c0,0.768,0.317,1.231,1,1.231
						c0.695,0,1-0.451,1-1.316V77.06c0-0.841-0.354-1.243-1.073-1.268h-0.512v-0.854h0.561c0.634-0.024,1.025-0.426,1.025-1.17
						v-0.391c0-0.878-0.305-1.328-1-1.328c-0.683,0-1,0.475-1,1.243v0.439h-0.889v-0.39c0-1.305,0.609-2.146,1.913-2.146
						C169.318,71.196,169.928,72.038,169.928,73.342z"/>
					<path style="fill:#263238;" d="M171.77,73.988v1.183h-0.915v-1.183H171.77z M171.77,78.633v1.183h-0.915v-1.183H171.77z"/>
					<path style="fill:#263238;" d="M173.697,74.757c0.268-0.464,0.695-0.707,1.268-0.707c1.097,0,1.584,0.804,1.584,2.024v1.67
						c0,1.304-0.621,2.158-1.925,2.158c-1.305,0-1.914-0.853-1.914-2.158V77.17h0.89v0.634c0,0.768,0.317,1.231,1,1.231
						s1-0.463,1-1.231v-1.658c0-0.768-0.317-1.232-1-1.232c-0.524,0-0.878,0.293-0.963,0.915v0.195h-0.89l0.232-4.743h3.364v0.853
						h-2.512L173.697,74.757z"/>
					<path style="fill:#263238;" d="M181.293,73.33v0.158h-0.889v-0.219c0-0.768-0.317-1.219-1.012-1.219
						c-0.72,0-1.037,0.463-1.037,1.378v1.914c0.232-0.585,0.695-0.914,1.378-0.914c1.097,0,1.585,0.793,1.585,2.024v1.293
						c0,1.304-0.647,2.158-1.951,2.158c-1.317,0-1.963-0.853-1.963-2.158v-4.353c0-1.353,0.61-2.195,1.963-2.195
						C180.684,71.196,181.293,72.026,181.293,73.33z M178.355,76.524v1.28c0,0.768,0.317,1.231,1.012,1.231
						c0.683,0,1.012-0.463,1.012-1.231v-1.28c0-0.768-0.329-1.231-1.012-1.231C178.672,75.293,178.355,75.756,178.355,76.524z"/>
				</g>
				<g>
					<rect x="272.048" y="73.705" style="fill:#263238;" width="2.41" height="6.024"/>
					<rect x="275.261" y="72.498" style="fill:#263238;" width="2.41" height="7.231"/>
					<rect x="278.474" y="71.642" style="fill:#263238;" width="2.41" height="8.087"/>
					<rect x="281.687" y="70.151" style="fill:#263238;" width="2.409" height="9.578"/>
					<g>
						<g>
							<path style="fill:#263238;" d="M313.915,79.564h-14.458v-8.835h14.458V79.564z M300.26,78.76h12.851v-7.229H300.26V78.76z"/>
						</g>
						<g>
							<rect x="301.465" y="72.406" style="fill:#263238;" width="7.63" height="5.481"/>
						</g>
						<g>
							<rect x="313.413" y="74.105" style="fill:#263238;" width="1.818" height="2.081"/>
						</g>
					</g>
					<g>
						<path style="fill:#263238;" d="M294.156,77.642c-0.094,0-0.19-0.024-0.276-0.076c-2.942-1.748-4.887-0.125-4.968-0.057
							c-0.224,0.195-0.565,0.17-0.76-0.054c-0.195-0.225-0.174-0.562,0.05-0.758c0.104-0.092,2.591-2.222,6.231-0.059
							c0.256,0.152,0.341,0.484,0.188,0.74C294.519,77.548,294.34,77.642,294.156,77.642z"/>
					</g>
					<g>
						<path style="fill:#263238;" d="M295.245,75.827c-0.094,0-0.19-0.024-0.276-0.076c-4.254-2.53-7.113-0.082-7.143-0.059
							c-0.224,0.199-0.564,0.175-0.761-0.048c-0.197-0.224-0.176-0.565,0.048-0.761c0.035-0.032,3.483-2.986,8.408-0.059
							c0.256,0.152,0.341,0.484,0.188,0.74C295.607,75.733,295.428,75.827,295.245,75.827z"/>
					</g>
					<g>
						<path style="fill:#263238;" d="M296.233,73.725c-0.094,0-0.19-0.024-0.276-0.076c-5.388-3.204-8.97-0.188-9.12-0.057
							c-0.225,0.195-0.566,0.171-0.761-0.053c-0.196-0.224-0.174-0.563,0.05-0.759c0.042-0.038,4.298-3.678,10.384-0.059
							c0.256,0.152,0.341,0.484,0.188,0.74C296.596,73.631,296.416,73.725,296.233,73.725z"/>
					</g>
					<g>
						<path style="fill:#263238;" d="M292.531,78.547c0,0.748-0.606,1.354-1.354,1.354c-0.748,0-1.355-0.606-1.355-1.354
							c0-0.748,0.606-1.354,1.355-1.354C291.924,77.192,292.531,77.798,292.531,78.547z"/>
					</g>
				</g>
			</g>
		</g>
	</g>
</g>
<g id="Password">
	<g>
		<path style="fill:#263238;" d="M367.129,130.484l-1.206-0.727l1.513-2.125l-2.259-0.862l0.498-1.301l2.163,1.148l-0.23-2.642
			h1.551l-0.249,2.642l2.182-1.148l0.478,1.301l-2.259,0.882l1.531,2.105l-1.244,0.727l-1.225-2.393L367.129,130.484z"/>
		<path style="fill:#263238;" d="M374.748,130.484l-1.207-0.727l1.513-2.125l-2.259-0.862l0.498-1.301l2.163,1.148l-0.23-2.642
			h1.551l-0.249,2.642l2.182-1.148l0.478,1.301l-2.259,0.882l1.531,2.105l-1.244,0.727l-1.225-2.393L374.748,130.484z"/>
		<path style="fill:#263238;" d="M382.367,130.484l-1.206-0.727l1.513-2.125l-2.259-0.862l0.498-1.301l2.163,1.148l-0.23-2.642
			h1.551l-0.249,2.642l2.182-1.148l0.478,1.301l-2.259,0.882l1.531,2.105l-1.244,0.727l-1.225-2.393L382.367,130.484z"/>
		<path style="fill:#263238;" d="M389.985,130.484l-1.206-0.727l1.513-2.125l-2.259-0.862l0.498-1.301l2.163,1.148l-0.23-2.642
			h1.551l-0.249,2.642l2.182-1.148l0.478,1.301l-2.259,0.882l1.531,2.105l-1.244,0.727l-1.225-2.393L389.985,130.484z"/>
		<path style="fill:#263238;" d="M397.604,130.484l-1.207-0.727l1.513-2.125l-2.259-0.862l0.498-1.301l2.163,1.148l-0.23-2.642
			h1.551l-0.249,2.642l2.182-1.148l0.478,1.301l-2.259,0.882l1.531,2.105l-1.244,0.727l-1.225-2.393L397.604,130.484z"/>
		<path style="fill:#263238;" d="M405.223,130.484l-1.207-0.727l1.513-2.125l-2.259-0.862l0.498-1.301l2.163,1.148l-0.23-2.642
			h1.551l-0.249,2.642l2.183-1.148l0.478,1.301l-2.259,0.882l1.531,2.105l-1.244,0.727l-1.225-2.393L405.223,130.484z"/>
		<path style="fill:#263238;" d="M412.841,130.484l-1.207-0.727l1.513-2.125l-2.259-0.862l0.498-1.301l2.163,1.148l-0.23-2.642
			h1.551l-0.249,2.642l2.182-1.148l0.478,1.301l-2.259,0.882l1.531,2.105l-1.244,0.727l-1.225-2.393L412.841,130.484z"/>
		<path style="fill:#263238;" d="M420.46,130.484l-1.206-0.727l1.513-2.125l-2.259-0.862l0.498-1.301l2.163,1.148l-0.23-2.642h1.551
			l-0.249,2.642l2.182-1.148l0.478,1.301l-2.259,0.882l1.531,2.105l-1.244,0.727l-1.225-2.393L420.46,130.484z"/>
		<path style="fill:#263238;" d="M428.079,130.484l-1.206-0.727l1.513-2.125l-2.259-0.862l0.498-1.301l2.163,1.148l-0.23-2.642
			h1.551l-0.249,2.642l2.183-1.148l0.478,1.301l-2.259,0.882l1.531,2.105l-1.244,0.727l-1.225-2.393L428.079,130.484z"/>
	</g>
</g>
<g id="Padlock">
	<g>
		
			<rect x="378.898" y="69.354" style="fill:none;stroke:#263238;stroke-linecap:round;stroke-linejoin:round;stroke-miterlimit:10;" width="39.165" height="38.31"/>
		<g>
			<path style="fill:none;stroke:#263238;stroke-miterlimit:10;" d="M386.086,69.369v-8.817c0-6.834,5.56-12.394,12.395-12.394
				c6.834,0,12.393,5.56,12.393,12.394v8.817h5.7v-8.817c0-9.977-8.117-18.094-18.093-18.094c-9.978,0-18.094,8.117-18.094,18.094
				v8.817H386.086z"/>
		</g>
		<path style="fill:none;stroke:#263238;stroke-linecap:round;stroke-linejoin:round;stroke-miterlimit:10;" d="M402.986,84.208
			c0-2.488-2.017-4.505-4.505-4.505c-2.488,0-4.505,2.017-4.505,4.505c0,1.909,1.191,3.531,2.867,4.187v8.92h3.277v-8.92
			C401.794,87.739,402.986,86.117,402.986,84.208z"/>
	</g>
</g>
<g id="Money">
	<g>
		<g>
			<path style="fill:none;stroke:#263238;stroke-linecap:round;stroke-linejoin:round;stroke-miterlimit:10;" d="M75.756,163.025
				v-3.703c-2.734-0.106-4.778-0.981-6.132-2.628c-1.354-1.646-2.084-4.101-2.19-7.366l5.614-0.956
				c0.053,1.328,0.192,2.436,0.418,3.325c0.226,0.89,0.564,1.553,1.016,1.991c0.451,0.438,1.035,0.657,1.752,0.657
				c0.822,0,1.387-0.265,1.692-0.796c0.305-0.53,0.458-1.141,0.458-1.831c0-1.354-0.312-2.488-0.936-3.404
				c-0.624-0.915-1.48-1.838-2.568-2.767l-3.384-2.907c-0.771-0.717-1.46-1.446-2.071-2.19c-0.611-0.743-1.095-1.593-1.453-2.548
				c-0.358-0.956-0.538-2.084-0.538-3.384c0-2.495,0.71-4.44,2.13-5.833c1.419-1.394,3.325-2.183,5.714-2.369v-3.544h1.911v3.544
				c1.433,0.08,2.608,0.405,3.524,0.976c0.915,0.571,1.612,1.288,2.09,2.15c0.478,0.863,0.822,1.805,1.035,2.827
				c0.212,1.023,0.345,2.011,0.398,2.966l-5.694,0.836c-0.026-0.982-0.106-1.852-0.239-2.608c-0.133-0.757-0.372-1.347-0.717-1.772
				c-0.345-0.424-0.876-0.624-1.593-0.597c-0.743,0.027-1.308,0.318-1.692,0.876c-0.385,0.557-0.578,1.181-0.578,1.871
				c0,1.222,0.292,2.204,0.876,2.947c0.584,0.743,1.248,1.46,1.991,2.15l3.305,2.867c0.876,0.796,1.686,1.66,2.429,2.588
				c0.743,0.929,1.34,1.958,1.792,3.086c0.451,1.128,0.677,2.422,0.677,3.882c0,1.407-0.286,2.688-0.856,3.843
				c-0.571,1.154-1.394,2.09-2.469,2.807c-1.075,0.717-2.343,1.141-3.803,1.274v3.743H75.756z"/>
		</g>
		
			<ellipse transform="matrix(0.9732 -0.2298 0.2298 0.9732 -30.7159 21.3249)" style="fill:none;stroke:#263238;stroke-linecap:round;stroke-linejoin:round;stroke-miterlimit:10;" cx="76.217" cy="142.566" rx="31.93" ry="31.93"/>
		
			<ellipse transform="matrix(0.7733 -0.634 0.634 0.7733 -73.1098 80.6347)" style="fill:none;stroke:#263238;stroke-linecap:round;stroke-linejoin:round;stroke-miterlimit:10;" cx="76.217" cy="142.566" rx="26.243" ry="26.243"/>
	</g>
	<g>
		<g>
			<path style="fill:none;stroke:#263238;stroke-linecap:round;stroke-linejoin:round;stroke-miterlimit:10;" d="M100.077,91.027
				v-2.389c-1.764-0.068-3.082-0.633-3.955-1.695c-0.873-1.061-1.344-2.645-1.413-4.751l3.621-0.617
				c0.034,0.856,0.124,1.571,0.27,2.145c0.146,0.574,0.364,1.002,0.655,1.284c0.291,0.282,0.668,0.424,1.13,0.424
				c0.53,0,0.895-0.171,1.091-0.514c0.197-0.342,0.295-0.736,0.295-1.181c0-0.873-0.201-1.605-0.603-2.196
				c-0.403-0.59-0.955-1.185-1.657-1.785l-2.183-1.875c-0.497-0.462-0.942-0.933-1.336-1.413c-0.394-0.479-0.706-1.027-0.937-1.644
				c-0.231-0.616-0.347-1.344-0.347-2.183c0-1.609,0.458-2.864,1.374-3.763c0.916-0.899,2.145-1.408,3.686-1.528v-2.286h1.233v2.286
				c0.924,0.051,1.682,0.261,2.273,0.629c0.591,0.368,1.04,0.831,1.348,1.387c0.308,0.557,0.53,1.164,0.668,1.823
				c0.137,0.66,0.222,1.297,0.257,1.913l-3.673,0.539c-0.017-0.633-0.069-1.194-0.154-1.682c-0.086-0.488-0.24-0.869-0.462-1.143
				c-0.223-0.274-0.565-0.402-1.027-0.385c-0.479,0.017-0.843,0.205-1.091,0.565c-0.249,0.359-0.373,0.762-0.373,1.207
				c0,0.788,0.188,1.421,0.565,1.901c0.377,0.479,0.805,0.942,1.284,1.387l2.132,1.849c0.565,0.514,1.087,1.07,1.567,1.67
				c0.479,0.599,0.865,1.263,1.156,1.99c0.291,0.728,0.437,1.563,0.437,2.504c0,0.908-0.184,1.734-0.552,2.479
				c-0.368,0.745-0.899,1.348-1.592,1.81c-0.694,0.462-1.511,0.736-2.453,0.822v2.414H100.077z"/>
		</g>
		
			<ellipse transform="matrix(0.9732 -0.2298 0.2298 0.9732 -15.1965 25.1434)" style="fill:none;stroke:#263238;stroke-linecap:round;stroke-linejoin:round;stroke-miterlimit:10;" cx="100.375" cy="77.83" rx="20.596" ry="20.596"/>
		
			<ellipse transform="matrix(0.9732 -0.2298 0.2298 0.9732 -15.1965 25.1434)" style="fill:none;stroke:#263238;stroke-linecap:round;stroke-linejoin:round;stroke-miterlimit:10;" cx="100.375" cy="77.83" rx="16.928" ry="16.928"/>
	</g>
	<g>
		<g>
			<path style="fill:none;stroke:#263238;stroke-linecap:round;stroke-linejoin:round;stroke-miterlimit:10;" d="M452.498,404.663
				v-2.389c-1.764-0.068-3.082-0.633-3.955-1.695c-0.873-1.061-1.344-2.645-1.413-4.751l3.621-0.617
				c0.034,0.856,0.124,1.571,0.27,2.145c0.146,0.574,0.364,1.002,0.655,1.284c0.291,0.282,0.668,0.424,1.13,0.424
				c0.53,0,0.895-0.171,1.091-0.514c0.197-0.342,0.296-0.736,0.296-1.181c0-0.873-0.201-1.605-0.604-2.196
				c-0.402-0.591-0.955-1.186-1.657-1.785l-2.183-1.875c-0.497-0.462-0.942-0.933-1.336-1.413c-0.394-0.479-0.706-1.027-0.937-1.644
				c-0.231-0.616-0.347-1.344-0.347-2.183c0-1.609,0.458-2.864,1.374-3.763c0.916-0.899,2.145-1.408,3.686-1.528v-2.286h1.233v2.286
				c0.924,0.051,1.682,0.261,2.273,0.629c0.591,0.368,1.04,0.831,1.348,1.387c0.308,0.557,0.53,1.165,0.668,1.823
				c0.137,0.659,0.222,1.297,0.257,1.913l-3.673,0.54c-0.017-0.633-0.069-1.194-0.154-1.682c-0.086-0.488-0.24-0.869-0.462-1.143
				c-0.223-0.274-0.565-0.402-1.027-0.385c-0.479,0.017-0.843,0.205-1.091,0.565c-0.249,0.359-0.373,0.762-0.373,1.207
				c0,0.788,0.188,1.422,0.565,1.901c0.377,0.479,0.805,0.942,1.284,1.387l2.132,1.849c0.565,0.514,1.087,1.071,1.567,1.67
				c0.479,0.599,0.865,1.263,1.156,1.991c0.291,0.728,0.437,1.563,0.437,2.504c0,0.908-0.184,1.734-0.552,2.479
				c-0.368,0.745-0.899,1.348-1.592,1.81c-0.693,0.462-1.511,0.736-2.453,0.822v2.414H452.498z"/>
		</g>
		
			<circle style="fill:none;stroke:#263238;stroke-linecap:round;stroke-linejoin:round;stroke-miterlimit:10;" cx="452.796" cy="391.466" r="20.596"/>
		
			<ellipse transform="matrix(0.9729 -0.2314 0.2314 0.9729 -78.304 115.4179)" style="fill:none;stroke:#263238;stroke-linecap:round;stroke-linejoin:round;stroke-miterlimit:10;" cx="452.796" cy="391.466" rx="16.928" ry="16.928"/>
	</g>
</g>
<g id="Text">
	<g>
		<g>
			<path style="fill:#CCCCCC;" d="M222.136,261.346c-0.625,0-1.105-0.124-1.439-0.373c-0.334-0.249-0.562-0.599-0.682-1.05
				c-0.121-0.451-0.181-0.979-0.181-1.583v-5.725h1.151v5.778c0,0.37,0.025,0.707,0.075,1.012c0.05,0.306,0.158,0.547,0.325,0.725
				c0.167,0.177,0.417,0.266,0.752,0.266c0.341,0,0.593-0.089,0.757-0.266c0.163-0.178,0.27-0.419,0.32-0.725
				c0.049-0.305,0.075-0.643,0.075-1.012v-5.778h1.141v5.725c0,0.604-0.061,1.132-0.181,1.583c-0.121,0.452-0.347,0.802-0.677,1.05
				C223.239,261.222,222.761,261.346,222.136,261.346z"/>
			<path style="fill:#CCCCCC;" d="M227.732,261.346c-0.497,0-0.911-0.107-1.242-0.32c-0.331-0.213-0.581-0.508-0.751-0.885
				c-0.171-0.377-0.27-0.814-0.299-1.311l1.066-0.288c0.021,0.305,0.069,0.6,0.144,0.885c0.075,0.284,0.197,0.517,0.368,0.698
				c0.171,0.181,0.409,0.272,0.714,0.272c0.313,0,0.549-0.087,0.709-0.261c0.16-0.174,0.24-0.425,0.24-0.752
				c0-0.391-0.089-0.705-0.267-0.943c-0.178-0.238-0.402-0.478-0.671-0.72l-1.45-1.279c-0.285-0.248-0.494-0.52-0.629-0.815
				c-0.135-0.295-0.203-0.659-0.203-1.093c0-0.632,0.181-1.122,0.544-1.471c0.363-0.348,0.856-0.523,1.482-0.523
				c0.341,0,0.641,0.045,0.901,0.134c0.259,0.089,0.476,0.226,0.65,0.41c0.174,0.185,0.313,0.417,0.416,0.698
				c0.103,0.281,0.172,0.609,0.208,0.986l-1.024,0.277c-0.021-0.284-0.064-0.545-0.128-0.784c-0.064-0.238-0.176-0.43-0.336-0.576
				c-0.16-0.145-0.389-0.218-0.688-0.218s-0.531,0.08-0.698,0.239c-0.167,0.16-0.25,0.396-0.25,0.709c0,0.263,0.044,0.48,0.133,0.65
				c0.089,0.171,0.232,0.345,0.432,0.522l1.46,1.279c0.327,0.285,0.615,0.624,0.864,1.018c0.249,0.395,0.373,0.862,0.373,1.402
				c0,0.426-0.089,0.794-0.266,1.104c-0.178,0.309-0.421,0.545-0.73,0.709C228.494,261.264,228.137,261.346,227.732,261.346z"/>
			<path style="fill:#CCCCCC;" d="M230.738,261.25v-8.635h3.347v0.896h-2.143v2.857h1.738v0.853h-1.738v3.166h2.164v0.864H230.738z"
				/>
			<path style="fill:#CCCCCC;" d="M235.077,261.25v-8.635h1.738c0.576,0,1.052,0.077,1.428,0.229
				c0.377,0.153,0.656,0.398,0.837,0.736c0.181,0.338,0.271,0.78,0.271,1.327c0,0.334-0.036,0.638-0.106,0.912
				c-0.071,0.273-0.185,0.505-0.341,0.693c-0.157,0.188-0.363,0.325-0.618,0.41l1.226,4.328h-1.162l-1.13-4.051h-0.938v4.051
				H235.077z M236.281,256.335h0.458c0.341,0,0.618-0.043,0.831-0.128c0.213-0.085,0.37-0.231,0.469-0.437
				c0.1-0.206,0.149-0.494,0.149-0.864c0-0.505-0.092-0.869-0.277-1.093c-0.185-0.224-0.551-0.336-1.098-0.336h-0.533V256.335z"/>
			<path style="fill:#CCCCCC;" d="M240.609,261.25v-8.635h0.821l2.452,5.735v-5.735h1.002v8.635h-0.767l-2.484-5.895v5.895H240.609z
				"/>
			<path style="fill:#CCCCCC;" d="M245.769,261.25l1.833-8.635h1.162l1.844,8.635h-1.14l-0.394-2.175h-1.759l-0.416,2.175H245.769z
				 M247.474,258.212h1.439l-0.725-3.891L247.474,258.212z"/>
			<path style="fill:#CCCCCC;" d="M251.461,261.25l0.16-8.635h1.183l1.524,7.004l1.535-7.004h1.172l0.16,8.635h-0.97l-0.096-6.268
				l-1.46,6.268h-0.682l-1.45-6.268l-0.096,6.268H251.461z"/>
			<path style="fill:#CCCCCC;" d="M258.518,261.25v-8.635h3.347v0.896h-2.143v2.857h1.738v0.853h-1.738v3.166h2.164v0.864H258.518z"
				/>
		</g>
		<g>
			<path style="fill:#CCCCCC;" d="M219.071,296.972v-8.635h2.143c0.519,0,0.932,0.095,1.242,0.283
				c0.309,0.188,0.535,0.461,0.677,0.815c0.142,0.356,0.213,0.785,0.213,1.29c0,0.455-0.08,0.849-0.24,1.183
				c-0.16,0.334-0.396,0.592-0.709,0.773c-0.313,0.181-0.704,0.271-1.173,0.271h-0.949v4.019H219.071z M220.275,292.09h0.554
				c0.348,0,0.622-0.039,0.821-0.117c0.199-0.078,0.341-0.215,0.426-0.41c0.085-0.196,0.128-0.471,0.128-0.827
				c0-0.412-0.03-0.728-0.091-0.948c-0.061-0.22-0.186-0.373-0.379-0.459c-0.192-0.085-0.49-0.128-0.895-0.128h-0.565V292.09z"/>
			<path style="fill:#CCCCCC;" d="M223.314,296.972l1.834-8.635h1.162l1.844,8.635h-1.14l-0.394-2.175h-1.759l-0.416,2.175H223.314z
				 M225.02,293.934h1.439l-0.725-3.891L225.02,293.934z"/>
			<path style="fill:#CCCCCC;" d="M231.063,297.068c-0.497,0-0.911-0.107-1.242-0.319c-0.331-0.213-0.581-0.508-0.751-0.885
				c-0.171-0.376-0.27-0.814-0.299-1.312l1.066-0.287c0.021,0.305,0.069,0.6,0.144,0.885c0.075,0.284,0.197,0.516,0.368,0.697
				c0.17,0.181,0.409,0.272,0.714,0.272c0.313,0,0.549-0.088,0.709-0.261c0.16-0.174,0.24-0.425,0.24-0.752
				c0-0.39-0.089-0.705-0.267-0.943c-0.178-0.239-0.402-0.478-0.671-0.72l-1.45-1.279c-0.285-0.249-0.494-0.52-0.629-0.815
				c-0.135-0.295-0.203-0.659-0.203-1.093c0-0.632,0.181-1.122,0.544-1.47c0.363-0.349,0.856-0.523,1.482-0.523
				c0.341,0,0.641,0.045,0.901,0.134c0.259,0.089,0.476,0.226,0.65,0.41c0.174,0.185,0.313,0.417,0.415,0.698
				c0.103,0.281,0.172,0.61,0.208,0.986l-1.024,0.277c-0.021-0.284-0.064-0.545-0.128-0.783c-0.064-0.238-0.176-0.43-0.336-0.576
				c-0.16-0.145-0.389-0.218-0.687-0.218c-0.299,0-0.531,0.08-0.698,0.239c-0.167,0.16-0.25,0.396-0.25,0.709
				c0,0.263,0.044,0.48,0.133,0.651c0.089,0.17,0.232,0.344,0.432,0.522l1.46,1.279c0.327,0.284,0.615,0.624,0.864,1.018
				c0.249,0.395,0.373,0.861,0.373,1.402c0,0.426-0.089,0.794-0.266,1.103c-0.178,0.309-0.421,0.545-0.73,0.709
				C231.826,296.986,231.469,297.068,231.063,297.068z"/>
			<path style="fill:#CCCCCC;" d="M236.105,297.068c-0.497,0-0.911-0.107-1.242-0.319c-0.331-0.213-0.581-0.508-0.751-0.885
				c-0.171-0.376-0.27-0.814-0.299-1.312l1.066-0.287c0.021,0.305,0.069,0.6,0.144,0.885c0.075,0.284,0.197,0.516,0.368,0.697
				c0.17,0.181,0.409,0.272,0.714,0.272c0.313,0,0.549-0.088,0.709-0.261c0.16-0.174,0.24-0.425,0.24-0.752
				c0-0.39-0.089-0.705-0.267-0.943c-0.178-0.239-0.402-0.478-0.671-0.72l-1.45-1.279c-0.285-0.249-0.494-0.52-0.629-0.815
				c-0.135-0.295-0.203-0.659-0.203-1.093c0-0.632,0.181-1.122,0.544-1.47c0.363-0.349,0.856-0.523,1.482-0.523
				c0.341,0,0.641,0.045,0.901,0.134c0.259,0.089,0.476,0.226,0.65,0.41c0.174,0.185,0.313,0.417,0.415,0.698
				c0.103,0.281,0.172,0.61,0.208,0.986l-1.024,0.277c-0.021-0.284-0.064-0.545-0.128-0.783c-0.064-0.238-0.176-0.43-0.336-0.576
				c-0.16-0.145-0.389-0.218-0.688-0.218c-0.299,0-0.531,0.08-0.698,0.239c-0.167,0.16-0.25,0.396-0.25,0.709
				c0,0.263,0.044,0.48,0.133,0.651c0.089,0.17,0.233,0.344,0.432,0.522l1.46,1.279c0.327,0.284,0.615,0.624,0.864,1.018
				c0.249,0.395,0.373,0.861,0.373,1.402c0,0.426-0.089,0.794-0.266,1.103c-0.178,0.309-0.421,0.545-0.731,0.709
				C236.867,296.986,236.511,297.068,236.105,297.068z"/>
			<path style="fill:#CCCCCC;" d="M240.231,296.972l-1.407-8.635h1.002l0.927,6.204l1.162-6.172h0.853l1.173,6.204l0.906-6.237
				h0.981l-1.386,8.635h-0.874l-1.205-6.396l-1.215,6.396H240.231z"/>
			<path style="fill:#CCCCCC;" d="M249.004,297.068c-0.583,0-1.048-0.114-1.397-0.341c-0.348-0.227-0.597-0.553-0.746-0.975
				c-0.149-0.423-0.224-0.919-0.224-1.487v-3.273c0-0.568,0.076-1.057,0.229-1.465c0.153-0.409,0.401-0.722,0.746-0.939
				c0.345-0.217,0.809-0.325,1.391-0.325c0.583,0,1.045,0.111,1.385,0.33c0.341,0.22,0.588,0.534,0.741,0.939
				c0.153,0.405,0.23,0.892,0.23,1.46v3.284c0,0.561-0.076,1.051-0.23,1.471c-0.153,0.419-0.399,0.744-0.741,0.975
				C250.049,296.952,249.587,297.068,249.004,297.068z M249.004,296.12c0.32,0,0.561-0.066,0.725-0.198
				c0.163-0.131,0.273-0.316,0.331-0.554c0.056-0.238,0.085-0.517,0.085-0.836v-3.784c0-0.32-0.029-0.595-0.085-0.827
				c-0.057-0.231-0.167-0.409-0.331-0.533c-0.163-0.124-0.405-0.186-0.725-0.186c-0.32,0-0.563,0.063-0.73,0.186
				c-0.167,0.124-0.279,0.302-0.336,0.533c-0.057,0.232-0.085,0.507-0.085,0.827v3.784c0,0.319,0.029,0.599,0.085,0.836
				c0.057,0.239,0.169,0.423,0.336,0.554C248.441,296.054,248.684,296.12,249.004,296.12z"/>
			<path style="fill:#CCCCCC;" d="M252.543,296.972v-8.635h1.738c0.576,0,1.052,0.077,1.428,0.23
				c0.377,0.153,0.656,0.398,0.837,0.736c0.181,0.337,0.272,0.78,0.272,1.326c0,0.335-0.036,0.638-0.106,0.912
				c-0.071,0.273-0.185,0.505-0.341,0.693c-0.156,0.188-0.363,0.325-0.618,0.41l1.226,4.328h-1.162l-1.13-4.051h-0.938v4.051
				H252.543z M253.748,292.058h0.459c0.341,0,0.619-0.043,0.831-0.128c0.213-0.086,0.37-0.232,0.469-0.437
				c0.1-0.207,0.149-0.495,0.149-0.864c0-0.504-0.092-0.868-0.277-1.092c-0.185-0.224-0.551-0.336-1.098-0.336h-0.533V292.058z"/>
			<path style="fill:#CCCCCC;" d="M258.075,296.972v-8.635h1.876c0.639,0,1.146,0.098,1.519,0.293
				c0.373,0.196,0.639,0.489,0.799,0.88c0.16,0.391,0.24,0.878,0.24,1.461v3.176c0,0.612-0.08,1.127-0.24,1.546
				c-0.16,0.42-0.419,0.737-0.778,0.954c-0.359,0.217-0.841,0.325-1.444,0.325H258.075z M259.28,296.108h0.682
				c0.441,0,0.753-0.085,0.938-0.255c0.185-0.171,0.297-0.42,0.336-0.747c0.039-0.326,0.059-0.721,0.059-1.183v-2.803
				c0-0.448-0.028-0.81-0.085-1.088c-0.057-0.277-0.181-0.48-0.374-0.607c-0.192-0.128-0.494-0.192-0.906-0.192h-0.651V296.108z"/>
		</g>
	</g>
	<g>
		<path style="fill:#263238;" d="M209.157,228.185v-4.815l-2.37-7.335h2.325l1.305,4.275l1.215-4.275h2.25l-2.34,7.335v4.815
			H209.157z"/>
		<path style="fill:#263238;" d="M218.113,228.35c-0.89,0-1.595-0.16-2.115-0.48c-0.52-0.32-0.893-0.777-1.118-1.373
			c-0.225-0.595-0.337-1.307-0.337-2.138v-4.53c0-0.83,0.113-1.54,0.337-2.13c0.225-0.59,0.598-1.04,1.118-1.35
			c0.52-0.31,1.225-0.465,2.115-0.465c0.9,0,1.612,0.157,2.137,0.472c0.525,0.315,0.9,0.765,1.125,1.35
			c0.225,0.585,0.337,1.293,0.337,2.123v4.53c0,0.831-0.112,1.543-0.337,2.138c-0.225,0.595-0.6,1.053-1.125,1.373
			C219.725,228.19,219.013,228.35,218.113,228.35z M218.113,226.565c0.32,0,0.555-0.072,0.704-0.217c0.15-0.145,0.25-0.34,0.3-0.585
			c0.05-0.245,0.075-0.507,0.075-0.788v-5.745c0-0.28-0.025-0.54-0.075-0.78c-0.05-0.24-0.15-0.433-0.3-0.578
			c-0.15-0.145-0.385-0.217-0.704-0.217c-0.3,0-0.525,0.072-0.675,0.217c-0.15,0.145-0.25,0.337-0.3,0.578
			c-0.05,0.24-0.075,0.5-0.075,0.78v5.745c0,0.28,0.022,0.542,0.067,0.788c0.046,0.245,0.143,0.44,0.293,0.585
			C217.573,226.493,217.803,226.565,218.113,226.565z"/>
		<path style="fill:#263238;" d="M226.782,228.35c-0.92,0-1.635-0.158-2.145-0.473c-0.51-0.315-0.868-0.77-1.072-1.365
			c-0.205-0.595-0.308-1.317-0.308-2.167v-8.31h2.445v8.655c0,0.3,0.023,0.595,0.067,0.885c0.045,0.29,0.145,0.525,0.3,0.705
			c0.155,0.18,0.392,0.27,0.712,0.27c0.33,0,0.572-0.09,0.727-0.27c0.155-0.18,0.253-0.415,0.292-0.705
			c0.04-0.29,0.06-0.585,0.06-0.885v-8.655h2.445v8.31c0,0.85-0.102,1.572-0.307,2.167c-0.205,0.595-0.563,1.05-1.073,1.365
			C228.417,228.193,227.702,228.35,226.782,228.35z"/>
		<path style="fill:#263238;" d="M232.032,228.185v-12.15h3.15c0.82,0,1.523,0.092,2.107,0.277c0.585,0.185,1.035,0.513,1.35,0.982
			c0.315,0.47,0.473,1.12,0.473,1.95c0,0.5-0.043,0.942-0.128,1.328c-0.085,0.385-0.235,0.72-0.45,1.005
			c-0.215,0.285-0.518,0.513-0.908,0.683l1.68,5.925h-2.535l-1.395-5.505h-0.87v5.505H232.032z M234.507,221.21h0.72
			c0.4,0,0.715-0.065,0.945-0.195c0.23-0.13,0.392-0.328,0.487-0.593c0.095-0.265,0.143-0.592,0.143-0.982
			c0-0.56-0.102-0.987-0.308-1.282c-0.205-0.295-0.587-0.443-1.147-0.443h-0.84V221.21z"/>
		<path style="fill:#263238;" d="M244.482,228.185v-12.15h3.075c0.53,0,1.02,0.045,1.47,0.135c0.45,0.09,0.848,0.25,1.192,0.48
			c0.345,0.23,0.61,0.548,0.795,0.953c0.185,0.405,0.278,0.933,0.278,1.582c0,0.49-0.07,0.908-0.21,1.252
			c-0.14,0.345-0.34,0.618-0.6,0.817c-0.26,0.2-0.58,0.335-0.96,0.405c0.47,0.07,0.865,0.23,1.185,0.48
			c0.32,0.25,0.56,0.58,0.72,0.99c0.16,0.41,0.24,0.905,0.24,1.485c0,0.61-0.078,1.14-0.232,1.59c-0.155,0.45-0.383,0.82-0.683,1.11
			c-0.3,0.29-0.67,0.508-1.11,0.653c-0.441,0.145-0.95,0.217-1.53,0.217H244.482z M246.957,220.94h0.615
			c0.43,0,0.755-0.062,0.975-0.188c0.22-0.125,0.373-0.315,0.458-0.57c0.085-0.255,0.127-0.567,0.127-0.938
			c0-0.37-0.063-0.667-0.188-0.893s-0.315-0.387-0.57-0.487c-0.255-0.1-0.578-0.15-0.968-0.15h-0.45V220.94z M246.957,226.445h0.69
			c0.62,0,1.047-0.155,1.282-0.465c0.235-0.31,0.353-0.775,0.353-1.395c0-0.48-0.055-0.862-0.165-1.147
			c-0.11-0.285-0.288-0.495-0.532-0.63c-0.245-0.135-0.573-0.203-0.982-0.203h-0.645V226.445z"/>
		<path style="fill:#263238;" d="M252.462,228.185l2.355-12.15h2.745l2.34,12.15h-2.295l-0.435-2.67h-1.92l-0.465,2.67H252.462z
			 M255.477,224h1.455l-0.735-4.905L255.477,224z"/>
		<path style="fill:#263238;" d="M261.042,228.185v-12.15h1.725l2.7,6.33v-6.33h2.04v12.15h-1.65l-2.7-6.72v6.72H261.042z"/>
		<path style="fill:#263238;" d="M269.352,228.185v-12.15h2.475v5.13l2.19-5.13h2.4l-2.28,5.46l2.445,6.69h-2.49l-1.875-5.445
			l-0.39,0.69v4.755H269.352z"/>
	</g>
	<g>
		<path style="fill:#92E3A9;" d="M226.13,337.78c-0.633,0-1.16-0.116-1.581-0.348c-0.422-0.232-0.74-0.582-0.955-1.05
			c-0.215-0.469-0.34-1.065-0.373-1.79l1.796-0.303c0.017,0.422,0.061,0.773,0.133,1.056c0.072,0.283,0.181,0.493,0.329,0.633
			c0.147,0.139,0.331,0.209,0.55,0.209c0.27,0,0.453-0.085,0.55-0.254c0.097-0.168,0.145-0.362,0.145-0.581
			c0-0.43-0.103-0.791-0.31-1.081c-0.207-0.292-0.479-0.584-0.816-0.879l-1.063-0.923c-0.379-0.32-0.689-0.684-0.93-1.088
			c-0.24-0.405-0.36-0.903-0.36-1.493c0-0.843,0.247-1.49,0.74-1.941c0.493-0.451,1.17-0.677,2.03-0.677
			c0.514,0,0.936,0.084,1.265,0.253c0.329,0.169,0.584,0.395,0.765,0.677c0.181,0.283,0.308,0.591,0.38,0.923
			c0.072,0.333,0.116,0.664,0.133,0.993l-1.783,0.265c-0.017-0.311-0.044-0.586-0.082-0.822c-0.038-0.236-0.114-0.422-0.228-0.557
			c-0.114-0.135-0.285-0.203-0.512-0.203c-0.245,0-0.426,0.091-0.544,0.273c-0.118,0.181-0.177,0.381-0.177,0.6
			c0,0.363,0.082,0.661,0.247,0.892c0.164,0.232,0.39,0.474,0.677,0.727l1.037,0.911c0.43,0.371,0.799,0.795,1.107,1.272
			c0.308,0.477,0.462,1.065,0.462,1.765c0,0.48-0.11,0.915-0.329,1.303c-0.219,0.388-0.525,0.691-0.917,0.911
			C227.123,337.671,226.661,337.78,226.13,337.78z"/>
		<path style="fill:#92E3A9;" d="M232.746,337.78c-0.776,0-1.379-0.133-1.809-0.398c-0.43-0.265-0.732-0.649-0.904-1.151
			c-0.173-0.501-0.259-1.111-0.259-1.827v-7.008h2.062v7.299c0,0.253,0.019,0.501,0.057,0.746c0.038,0.245,0.122,0.443,0.253,0.595
			c0.131,0.152,0.331,0.228,0.601,0.228c0.278,0,0.482-0.076,0.613-0.228c0.131-0.152,0.213-0.35,0.247-0.595
			c0.034-0.245,0.051-0.493,0.051-0.746v-7.299h2.062v7.008c0,0.716-0.087,1.326-0.259,1.827c-0.173,0.502-0.474,0.886-0.905,1.151
			C234.125,337.648,233.521,337.78,232.746,337.78z"/>
		<path style="fill:#92E3A9;" d="M237.173,337.641v-10.246h2.593c0.447,0,0.86,0.038,1.239,0.114
			c0.38,0.076,0.715,0.211,1.006,0.404c0.291,0.194,0.514,0.462,0.67,0.804c0.156,0.341,0.234,0.786,0.234,1.334
			c0,0.413-0.059,0.765-0.177,1.057c-0.118,0.291-0.287,0.521-0.506,0.689c-0.219,0.169-0.489,0.283-0.809,0.341
			c0.396,0.059,0.729,0.194,0.999,0.405c0.27,0.211,0.472,0.489,0.607,0.835c0.135,0.346,0.203,0.763,0.203,1.252
			c0,0.515-0.065,0.962-0.196,1.341c-0.131,0.38-0.323,0.692-0.576,0.936c-0.253,0.245-0.565,0.428-0.936,0.55
			c-0.371,0.123-0.801,0.184-1.29,0.184H237.173z M239.26,331.532h0.518c0.363,0,0.637-0.053,0.822-0.158
			c0.185-0.105,0.314-0.265,0.386-0.481c0.072-0.215,0.107-0.478,0.107-0.79c0-0.311-0.053-0.563-0.158-0.752
			c-0.105-0.19-0.266-0.327-0.481-0.412c-0.215-0.084-0.487-0.126-0.816-0.126h-0.379V331.532z M239.26,336.174h0.582
			c0.523,0,0.883-0.13,1.081-0.392c0.198-0.261,0.297-0.653,0.297-1.176c0-0.405-0.046-0.728-0.139-0.968
			c-0.093-0.241-0.243-0.418-0.449-0.532c-0.207-0.114-0.483-0.171-0.828-0.171h-0.544V336.174z"/>
		<path style="fill:#92E3A9;" d="M244.396,337.641l0.177-10.246h2.214l1.265,6.464l1.354-6.464h2.138l0.177,10.246h-1.518
			l-0.164-6.945l-1.303,6.945h-1.303l-1.366-6.995l-0.139,6.995H244.396z"/>
		<path style="fill:#92E3A9;" d="M253.136,337.641v-10.246h2.074v10.246H253.136z"/>
		<path style="fill:#92E3A9;" d="M257.741,337.641v-8.69h-1.581v-1.556h5.237v1.556h-1.556v8.69H257.741z"/>
	</g>
</g>
<g id="Character">
	<g>
		<path style="fill:#263238;stroke:#263238;stroke-miterlimit:10;" d="M368.559,286.696c0,0,0.473,71.587,0.709,72.532
			c0.236,0.945-1.418,11.34-0.945,21.972c0.473,10.632,5.198,45.362,5.198,45.362l-3.78,4.961l2.835,8.742
			c0,0-3.071,10.159-5.67,14.648c-2.599,4.489-5.434,6.615-2.835,8.978c2.599,2.363,10.395,1.418,12.994,1.181
			c2.599-0.236,4.962-0.473,5.906-2.126c0.945-1.654,1.89-6.379,2.835-10.395c0.945-4.016,0.709-7.56,0.709-8.978
			s0.709-4.489,1.418-7.088c0.709-2.599-1.418-9.687-1.418-11.104s3.071-60.719,3.071-60.719l7.088-42.291l2.599,4.017l3.308,38.274
			l2.599,16.775c0,0-0.236,15.593,0.945,20.791c1.181,5.198,3.308,25.28,3.308,25.28s-3.071,3.071-3.308,4.961
			c-0.236,1.89,1.654,6.379,1.654,6.379s-0.709,0.945-0.236,2.599c0.473,1.654,0.945,4.253,0.945,4.253s-2.599,13.231-0.945,14.885
			c1.654,1.654,7.324,4.253,8.505,4.725s8.505,1.89,10.632,1.418c2.126-0.473,5.198-0.473,4.016-4.253
			c-1.181-3.78-4.961-8.269-5.67-9.923c-0.709-1.654-2.363-7.324-2.363-7.324s2.126-6.143,1.89-6.852
			c-0.236-0.709-0.236-6.143-0.709-8.033c-0.473-1.89-1.89-3.544-1.89-5.198c0-1.654,6.143-31.659,4.725-37.329
			c-1.418-5.67-0.945-28.587-0.945-28.587l-1.418-61.192l-0.709-6.379L368.559,286.696z"/>
		<g>
			<path style="fill:#FFFFFF;stroke:#263238;stroke-miterlimit:10;" d="M391.058,192.486l-4.531,1.719l-3.75,42.189l-16.25,49.533
				c0,0,4.375,5.625,12.032,10.782c7.657,5.156,14.844,7.344,14.844,7.344l3.281-7.656l0.937,7.969c0,0,6.719-0.469,11.25-1.094
				c4.531-0.625,14.376-2.813,14.376-2.813l-6.094-73.753l2.813-32.345L391.058,192.486z"/>
			<line style="fill:none;stroke:#263238;stroke-miterlimit:10;" x1="401.684" y1="210.768" x2="400.59" y2="225.925"/>
			<line style="fill:none;stroke:#263238;stroke-miterlimit:10;" x1="397.123" y1="284.757" x2="396.996" y2="288.739"/>
			<line style="fill:none;stroke:#263238;stroke-miterlimit:10;" x1="398.246" y1="249.519" x2="397.223" y2="281.612"/>
			<line style="fill:none;stroke:#263238;stroke-miterlimit:10;" x1="376.526" y1="270.614" x2="389.339" y2="282.333"/>
			<line style="fill:none;stroke:#263238;stroke-miterlimit:10;" x1="377.776" y1="268.895" x2="388.089" y2="273.114"/>
		</g>
		<path style="fill:#FFFFFF;stroke:#263238;stroke-miterlimit:10;" d="M392.335,189.439c0,0-2.197,0.388-2.714,1.163
			c-0.517,0.775-1.034,3.619-1.034,4.007c0,0.388-0.388,15.38-0.388,15.38l9.693-5.687l7.496-0.646l8.53,8.142
			c0,0,4.007-14.992,3.102-18.223c-0.905-3.231-4.653-5.299-5.299-5.557C411.075,187.758,391.818,188.405,392.335,189.439z"/>
		<g>
			<path style="fill:#C2C2C2;stroke:#263238;stroke-miterlimit:10;" d="M391.559,185.691c0,0-1.292,9.047-0.129,10.727
				c1.163,1.68,9.822,12.407,10.727,11.761c0.905-0.646,7.755-8.918,8.659-10.081c0.905-1.163,2.068-4.911,2.068-4.911v-6.462
				L391.559,185.691z"/>
			<path style="fill:#263238;stroke:#263238;stroke-miterlimit:10;" d="M400.035,197.04l-8.605-0.622c0,0-0.313-2.248-0.372-3.932
				c-0.059-1.683,0.864-5.219,0.864-5.219L400.035,197.04z"/>
		</g>
		<g>
			<path style="fill:#C2C2C2;stroke:#263238;stroke-miterlimit:10;" d="M418.839,156.92c0,0-0.036,0.371-0.102,1.029
				c-0.478,4.748-3.302,27.129-4.629,29.766c-1.51,3.002-8.06,8.589-9.285,9.409s-2.514,0.727-4.788-0.083
				c-2.275-0.81-10.193-11.483-10.46-13.186c-0.267-1.704-0.267-23.472-0.359-25.811c-0.092-2.339,0.93-5.764,4.77-8.729
				c3.84-2.965,11.28-3.729,16.271-1.04C410.257,148.273,418.204,151.303,418.839,156.92z"/>
			<path style="fill:#263238;stroke:#263238;stroke-miterlimit:10;" d="M389.216,158.043c-0.092-2.339,0.93-5.764,4.77-8.729
				c3.84-2.965,11.28-3.729,16.271-1.04c0,0,7.947,3.03,8.582,8.647c0,0-0.036,0.371-0.102,1.029
				c-0.217,2.156-0.757,7.39-1.406,12.71l-0.26,0.129c0,0-1.068-1.372-1.114-2.542c-0.046-1.169-0.736-9.641-0.736-9.641
				s-5.479,4.144-10.028,4.337c-4.549,0.193-11.786-5.507-11.786-5.507s-0.801,7.587-1.252,8.462
				c-0.364,0.706-2.144,4.687-2.816,6.195C389.288,165.864,389.265,159.271,389.216,158.043z"/>
			<path style="fill:none;stroke:#263238;stroke-miterlimit:10;" d="M413.48,175.714c0,0-5.157-0.368-6.648,0.562"/>
			<path style="fill:none;stroke:#263238;stroke-miterlimit:10;" d="M401.546,175.898c0,0-3.646-1.556-6.326-0.322"/>
			<path style="fill:none;stroke:#263238;stroke-miterlimit:10;" d="M400.662,179.203c0,0-2.855,1.869-5.295-0.249"/>
			<path style="fill:none;stroke:#263238;stroke-miterlimit:10;" d="M411.518,179.59c0,0-2.053,1.538-4.54,0.064"/>
			<path style="fill:none;stroke:#263238;stroke-miterlimit:10;" d="M406.233,186.469c0,0-1.446,2.099-3.094,1.593
				c-1.648-0.507-2.965-2.026-2.965-2.026"/>
			<path style="fill:none;stroke:#263238;stroke-miterlimit:10;" d="M407.982,189.185c0,0-2.901,2.514-5.451,1.943
				c-2.551-0.571-3.803-2.993-3.803-2.993"/>
			<path style="fill:#C2C2C2;stroke:#263238;stroke-miterlimit:10;" d="M417.331,170.658c0,0,1.904-2.956,2.447,0.323
				c0.543,3.278-3.444,6.492-3.444,6.492L417.331,170.658z"/>
			<path style="fill:#C2C2C2;stroke:#263238;stroke-miterlimit:10;" d="M389.318,169.323c0,0-1.307-3.462-2.532-0.829
				c-1.225,2.633,2.587,7.311,2.587,7.311L389.318,169.323z"/>
		</g>
		<g>
			<path style="fill:#92E3A9;stroke:#263238;stroke-miterlimit:10;" d="M389.224,192.304c0,0-0.31,38.411-0.929,43.058
				c-0.62,4.647-7.28,26.95-10.997,32.216c-3.717,5.266-4.956,7.28-4.956,7.28l-3.098,9.913l0.31,5.421h-9.448
				c0,0-5.731-11.771-7.125-18.586c-1.394-6.815-1.704-13.01-0.62-17.347c1.084-4.337,13.475-43.058,13.63-43.987
				c0.155-0.929-1.084-10.222,0-11.461C367.075,197.57,389.224,192.304,389.224,192.304z"/>
			<path style="fill:#8A8A8A;stroke:#263238;stroke-miterlimit:10;" d="M357.66,283.859c0,0-3.871,33.475-3.416,35.866
				c0.455,2.391,5.01,6.262,11.386,5.693s9.564-6.718,9.564-6.718l-6.507-34.858L357.66,283.859z"/>
			<path style="fill:#8A8A8A;stroke:#263238;stroke-miterlimit:10;" d="M354.244,319.724c0.266,1.395,1.934,3.289,4.538,4.516
				c-0.216-0.771-0.451-1.677-0.688-2.747c-0.786-3.536,3.87-33.006,3.87-33.006l-0.934-4.634l-3.37,0.005
				C357.66,283.859,353.789,317.333,354.244,319.724z"/>
			<path style="fill:none;stroke:#263238;stroke-miterlimit:10;" d="M357.091,254.141c0,0,8.767-0.683,12.411,2.733"/>
			<path style="fill:none;stroke:#263238;stroke-miterlimit:10;" d="M361.189,251.409c0,0,4.441,0.228,7.287,2.505"/>
			<line style="fill:none;stroke:#263238;stroke-miterlimit:10;" x1="368.026" y1="230.078" x2="368.363" y2="234.216"/>
			<line style="fill:none;stroke:#263238;stroke-miterlimit:10;" x1="366.313" y1="209.053" x2="367.744" y2="226.622"/>
			<path style="fill:none;stroke:#263238;stroke-miterlimit:10;" d="M383.338,194.162c0,0-1.859,18.431-1.549,24.472
				c0.31,6.041,3.872,24.162,4.027,24.937"/>
		</g>
		<g>
			<polygon style="fill:#8A8A8A;stroke:#263238;stroke-miterlimit:10;" points="377.453,195.247 361.964,288.487 367.385,288.333 
				381.789,194.472 			"/>
			<path style="fill:#C2C2C2;stroke:#263238;stroke-miterlimit:10;" d="M366.018,263.312c0,0-5.338,2.053-5.748,2.874
				c-0.411,0.821-4.208,6.98-4.003,7.801c0.205,0.821,4.824,5.03,4.824,5.03s4.106,4.106,5.03,4.003
				c0.924-0.103,2.566-0.616,1.026-2.669c-1.54-2.053-3.387-3.798-3.387-3.798L366.018,263.312z"/>
			<line style="fill:none;stroke:#263238;stroke-miterlimit:10;" x1="363.76" y1="276.553" x2="360.578" y2="270.805"/>
			<path style="fill:#C2C2C2;stroke:#263238;stroke-miterlimit:10;" d="M357.088,275.116c0,0-1.129,3.49-0.616,4.003
				c0.513,0.513,4.722,3.387,5.44,4.106c0.719,0.719,3.285,1.745,3.901,1.026c0.616-0.719,0.308-1.232,0.308-1.232
				s-1.848-1.232-2.155-1.54C363.658,281.172,357.088,275.116,357.088,275.116z"/>
			<path style="fill:#C2C2C2;stroke:#263238;stroke-miterlimit:10;" d="M358.012,280.659c0,0,0.103,3.182,1.232,4.003
				c1.129,0.821,4.619,1.745,5.44,1.642c0.821-0.103,1.129-2.053,1.129-2.053s-2.361,0.411-3.901-1.026
				C360.373,281.788,358.012,280.659,358.012,280.659z"/>
			<path style="fill:#C2C2C2;stroke:#263238;stroke-miterlimit:10;" d="M359.244,284.662c0,0-0.103,1.026,0.719,1.95
				s3.182,1.848,4.106,1.848s-0.205-2.156-0.205-2.156L359.244,284.662z"/>
			<path style="fill:#C2C2C2;stroke:#263238;stroke-miterlimit:10;" d="M370.843,266.083c0,0,3.285,3.798,4.208,4.414
				c0.924,0.616,1.437,4.927,1.54,5.851c0.103,0.924-7.904,7.493-7.904,7.493l-0.821-0.103L370.843,266.083z"/>
			<path style="fill:none;stroke:#263238;stroke-miterlimit:10;" d="M368.482,280.557c0,0,3.182-5.338,5.44-6.569"/>
		</g>
		<path style="fill:#92E3A9;stroke:#263238;stroke-miterlimit:10;" d="M416.34,190.98c0,0-5.797,19.148-6.324,29.336
			c-0.527,10.189,0.176,46.2,0.176,46.2l2.811,32.674c0,0,3.865,4.216,9.837,6.148c5.973,1.932,10.013,2.986,10.013,2.986
			l-6.5-49.186l1.405-9.31l21.783-0.176c0,0-4.919-30.742-5.973-36.363c-1.054-5.621-2.811-14.053-4.567-14.58
			C437.244,198.182,416.34,190.98,416.34,190.98z"/>
		<path style="fill:none;stroke:#263238;stroke-miterlimit:10;" d="M422.663,194.318c0,0-2.459,12.648-5.27,22.485
			c-2.811,9.837-7.202,21.256-7.202,21.256"/>
		<line style="fill:none;stroke:#263238;stroke-miterlimit:10;" x1="421.609" y1="222.249" x2="426.704" y2="246.49"/>
		<path style="fill:none;stroke:#263238;stroke-miterlimit:10;" d="M437.935,200.455c0,0-5.625,13.907-7.031,25.782"/>
		<path style="fill:none;stroke:#263238;stroke-miterlimit:10;" d="M430.36,240.104c-0.201,1.268-0.343,2.362-0.394,3.165"/>
		<path style="fill:none;stroke:#263238;stroke-miterlimit:10;" d="M433.872,222.956c0,0-2.005,8.631-3.15,15.018"/>
		<g>
			<path style="fill:#FFFFFF;stroke:#263238;stroke-miterlimit:10;" d="M422.312,264.233l-2.347-13.463l5.781,0.625
				C425.747,251.394,424.346,262.539,422.312,264.233z"/>
			<path style="fill:#92E3A9;stroke:#263238;stroke-miterlimit:10;" d="M442.865,246.49l-19.499-2.284c0,0,0.351,9.31-0.176,14.053
				c-0.527,4.743-0.878,5.973-0.878,5.973s15.458,0.703,20.728-0.351c5.27-1.054,7.905-2.986,8.432-6.324
				c0.527-3.338-2.635-11.418-2.635-11.418"/>
			<polygon style="fill:#263238;stroke:#263238;stroke-miterlimit:10;" points="402.893,241.546 399.764,229.418 412.674,229.966 
				415.021,242.485 			"/>
			<g>
				<path style="fill:#C2C2C2;stroke:#263238;stroke-miterlimit:10;" d="M423.366,244.207l-3.025-3.834c0,0-1.8-3.13-2.191-3.912
					s-4.851-1.956-4.851-1.956l0.861,4.147c0,0-6.729,0.391-7.981,0.157c-1.252-0.235-2.347-0.469-2.426,0.626
					c-0.078,1.095,0,1.565,1.408,1.721c1.408,0.156,6.494,1.095,6.494,1.095s-7.198-0.235-8.059-0.469
					c-0.861-0.235-3.364-1.174-3.599-0.156c-0.235,1.017,0,1.408,0.313,1.643c0.313,0.235,1.878,1.017,1.878,1.017
					s-0.548,1.565,0,2.347c0.548,0.782,3.599,2.582,3.99,2.738c0.391,0.156,2.113,2.113,3.208,3.13
					c1.095,1.017,2.582,0.861,4.147,0.861c1.565,0,3.443-0.469,4.147-0.548c0.704-0.078,5.868,0.548,5.868,0.548L423.366,244.207z"
					/>
				<path style="fill:none;stroke:#263238;stroke-miterlimit:10;" d="M411.657,242.25c0,0,2.191,0.313,2.817,0.078
					c0.626-0.235,0.939-1.33,0.704-2.425"/>
				<path style="fill:none;stroke:#263238;stroke-miterlimit:10;" d="M402.189,244.284c0,0,4.616,1.643,6.025,2.269
					c1.408,0.626,5.399,0.469,5.712,0.469"/>
				<path style="fill:none;stroke:#263238;stroke-miterlimit:10;" d="M406.18,249.37c0,0,3.443,1.095,4.069,1.252
					c0.626,0.156,2.817,0,2.817,0"/>
			</g>
		</g>
	</g>
</g>
</svg>
