<?xml version="1.0" encoding="utf-8"?>
<!-- Generator: Adobe Illustrator 28.0.0, SVG Export Plug-In . SVG Version: 6.00 Build 0)  -->
<svg version="1.1" id="Layer_1" xmlns="http://www.w3.org/2000/svg" xmlns:xlink="http://www.w3.org/1999/xlink" x="0px" y="0px"
	 viewBox="0 0 500 500" style="enable-background:new 0 0 500 500;" xml:space="preserve">
<style type="text/css">
	.st0{fill:#22C55E;}
</style>
<path class="st0" d="M170.4,215.3c-18.8,0-32.7,13.9-32.7,31.8s14.7,31.8,32.7,31.8s31.8-14.7,31.8-31.8
	C201.4,229.2,187.5,215.3,170.4,215.3z M173.6,308.4c-14.2,0-27.6-4.1-35.9-10.6v49.6h-33.4V187.3h33.4v8.9
	c8.4-6.5,21.7-10.6,35.9-10.6c33.4,0,61.8,26,61.8,60.9S207,308.4,173.6,308.4L173.6,308.4z M336.8,306.9l-16.3-68.4l-16.3,68.4
	h-40.7l-30.1-119.6h32.5l19.5,82.2l20.3-82.2h32.5l20.3,82.2l18.7-82.2h31.7l-31.7,119.6H336.8z"/>
</svg>
