<?xml version="1.0" encoding="UTF-8"?>
<!DOCTYPE svg PUBLIC "-//W3C//DTD SVG 1.1//EN" "http://www.w3.org/Graphics/SVG/1.1/DTD/svg11.dtd">
<!-- Creator: CorelDRAW X5 -->
<svg xmlns="http://www.w3.org/2000/svg" xml:space="preserve" width="135.467mm" height="33.8666mm" style="shape-rendering:geometricPrecision; text-rendering:geometricPrecision; image-rendering:optimizeQuality; fill-rule:evenodd; clip-rule:evenodd"
viewBox="0 0 13547 3387"
 xmlns:xlink="http://www.w3.org/1999/xlink"
 xmlns:svg="http://www.w3.org/2000/svg">
 <defs>
  <style type="text/css">
   <![CDATA[
    .fil2 {fill:#1A3180;fill-rule:nonzero}
    .fil0 {fill:#D62A42;fill-rule:nonzero}
    .fil1 {fill:white;fill-rule:nonzero}
   ]]>
  </style>
 </defs>
 <g id="Layer_x0020_1">
  <metadata id="CorelCorpID_0Corel-Layer"/>
 </g>
 <g id="Layer_x0020_1_0">
  <metadata id="CorelCorpID_1Corel-Layer"/>
  <g id="_384739672">
   <polygon class="fil0" points="0,2 0,2632 2229,3385 4453,2632 4453,2 "/>
   <path class="fil1" d="M2223 2547l-680 0 0 -237 -6 0c-134,188 -322,279 -601,279 -334,0 -632,-200 -632,-626l0 -1270 705 0 0 972c0,213 24,364 231,364 122,0 279,-61 279,-358l0 -978 705 0 0 1853zm1318 -1312l0 0c-6,-61 -36,-109 -85,-140 -43,-36 -97,-55 -158,-55 -97,0 -213,24 -213,140 0,55 43,79 85,97 115,49 383,67 620,140 237,73 443,213 443,516 0,516 -492,650 -942,650 -437,0 -911,-176 -923,-650l674 0c6,67 30,115 85,164 36,30 103,55 188,55 91,0 237,-36 237,-140 0,-109 -61,-140 -389,-194 -541,-91 -753,-261 -753,-583 0,-468 504,-589 875,-589 401,0 881,109 899,583l-644 0 0 6z"/>
   <path class="fil2" d="M4708 2l705 0 0 899 6 0c109,-158 298,-249 504,-249 620,0 790,529 790,960 0,462 -255,978 -778,978 -346,0 -456,-134 -541,-249l-6 0 0 200 -680 0 0 -2539zm990 1160l0 0c-255,0 -310,237 -310,456 0,219 55,462 310,462 255,0 310,-237 310,-462 0,-213 -61,-456 -310,-456zm2983 972l0 0c0,140 6,298 85,413l-723 0c-18,-49 -30,-128 -24,-176l-6 0c-152,170 -364,219 -595,219 -358,0 -650,-170 -650,-559 0,-583 686,-565 1045,-632 97,-18 194,-49 194,-164 0,-128 -115,-170 -231,-170 -219,0 -261,109 -261,188l-656 0c24,-522 516,-607 954,-607 887,0 875,364 875,723l0 765 -6 0zm-674 -419l0 0c-85,43 -182,67 -279,91 -158,36 -237,73 -237,200 0,85 91,170 219,170 158,0 286,-97 298,-292l0 -170zm929 -1021l0 0 680 0 0 237 6 0c134,-188 322,-279 601,-279 334,0 638,200 638,626l0 1270 -711 0 0 -972c0,-213 -24,-364 -231,-364 -122,0 -279,61 -279,358l0 978 -705 0 0 -1853zm2175 -693l0 0 705 0 0 1227 450 -535 796 0 -662 699 765 1154 -850 0 -377 -668 -128 134 0 535 -705 0 0 -2545 6 0zm2369 2290l0 0c24,24 43,61 43,97 0,36 -12,73 -43,97 -24,24 -61,43 -97,43 -36,0 -73,-12 -97,-43 -24,-24 -43,-61 -43,-97 0,-36 12,-73 43,-97 24,-24 61,-43 97,-43 36,6 73,18 97,43zm18 -12l0 0c-30,-30 -67,-49 -115,-49 -43,0 -79,18 -115,49 -30,30 -49,67 -49,115 0,43 18,85 49,115 30,30 67,49 115,49 43,0 79,-18 115,-49 30,-30 49,-67 49,-115 -6,-49 -18,-85 -49,-115zm-91 103l0 0c-6,0 -18,6 -30,6l-30 0 0 -61 24 0c18,0 30,0 36,6 6,6 12,12 12,24 6,12 0,18 -12,24zm-91 97l0 0 30 0 0 -67 24 0c18,0 30,0 36,6 12,6 18,18 18,43l0 18 30 0 0 -36c0,-6 -6,-18 -12,-24 -6,-12 -18,-12 -30,-18 12,0 18,-6 24,-6 12,-6 18,-18 18,-36 0,-24 -6,-36 -24,-43 -12,-6 -24,-6 -49,-6l-61 0 0 170 -6 0z"/>
  </g>
 </g>
</svg>
